<svg width="50" height="50" viewBox="0 0 50 50" fill="none" xmlns="http://www.w3.org/2000/svg">
<mask id="mask0_2196_2956" style="mask-type:luminance" maskUnits="userSpaceOnUse" x="0" y="0" width="50" height="50">
<path d="M0 3.8147e-06H50V50H0V3.8147e-06Z" fill="white"/>
</mask>
<g mask="url(#mask0_2196_2956)">
<path d="M28.459 0.987404C39.7979 0.987404 49.0225 10.212 49.0225 21.5508" stroke="white" stroke-miterlimit="10" stroke-linecap="round" stroke-linejoin="round"/>
<path d="M28.459 6.86231C36.5577 6.86231 43.1475 13.4521 43.1475 21.5508" stroke="white" stroke-miterlimit="10" stroke-linecap="round" stroke-linejoin="round"/>
<path d="M28.459 12.7384C33.3185 12.7384 37.2715 16.6914 37.2715 21.5508" stroke="white" stroke-miterlimit="10" stroke-linecap="round" stroke-linejoin="round"/>
<path d="M28.459 18.6133C30.0811 18.6133 31.3965 19.9288 31.3965 21.5508" stroke="white" stroke-miterlimit="10" stroke-linecap="round" stroke-linejoin="round"/>
<path d="M18.3027 31.7192C18.3027 32.2586 17.8655 32.6958 17.3262 32.6958C16.7869 32.6958 16.3496 32.2586 16.3496 31.7192C16.3496 31.18 16.7869 30.7427 17.3262 30.7427C17.8655 30.7427 18.3027 31.18 18.3027 31.7192Z" fill="white"/>
<path d="M14.4722 28.3798C13.8526 27.566 13.2655 26.7257 12.7126 25.8605C11.9861 24.7229 12.2058 23.216 13.1599 22.2619L16.4754 18.9464C17.1892 18.2336 17.1892 17.0764 16.4754 16.3634L8.67255 8.56076C7.95966 7.84679 6.80253 7.84679 6.08964 8.56076L4.11493 10.5353C0.909952 13.7395 0.043741 18.63 2.05546 22.6905C5.63456 29.9161 12.9998 40.9923 27.1892 47.9503C31.2625 49.9465 36.1756 49.0998 39.3826 45.8928L41.4021 43.8732C42.1159 43.1604 42.1159 42.0031 41.4021 41.2892L33.5993 33.4875C32.8864 32.7736 31.7293 32.7736 31.0164 33.4875L27.701 36.8029C26.7468 37.7569 25.24 37.9767 24.1022 37.2502C22.8715 36.4636 21.6903 35.6074 20.5643 34.6867" stroke="white" stroke-miterlimit="10" stroke-linecap="round" stroke-linejoin="round"/>
</g>
</svg>
