<svg width="20" height="20" viewBox="0 0 20 20" fill="none" xmlns="http://www.w3.org/2000/svg">
<path d="M10.0383 1.56251C9.82228 1.56095 9.6461 1.73478 9.64454 1.9504C9.64298 2.16603 9.81642 2.3422 10.0324 2.34376C10.2481 2.34532 10.4242 2.17189 10.4258 1.95626C10.4274 1.74064 10.2539 1.56446 10.0383 1.56251Z" fill="#F3A952"/>
<path d="M10.0205 3.90632C8.51228 3.89562 7.27708 5.11238 7.26567 6.62015C7.25431 8.12785 8.47173 9.36364 9.97951 9.375C9.9865 9.37504 9.99345 9.37508 10.0004 9.37508C11.4986 9.37508 12.723 8.16195 12.7344 6.66117C12.7457 5.15355 11.5283 3.91769 10.0205 3.90632ZM10.0004 8.59387C9.99544 8.59387 9.99029 8.59383 9.98537 8.59379C8.90837 8.58567 8.03876 7.70293 8.04689 6.62601C8.05497 5.55394 8.9295 4.68745 9.99966 4.68745C10.0046 4.68745 10.0097 4.68749 10.0147 4.68753C11.0917 4.69566 11.9613 5.57839 11.9531 6.65531C11.945 7.72738 11.0705 8.59387 10.0004 8.59387Z" fill="#F3A952"/>
<path d="M11.7044 1.85899C11.5012 1.78688 11.2778 1.89333 11.2057 2.09669C11.1336 2.30005 11.24 2.52329 11.4433 2.5954C13.1639 3.2052 14.3106 4.84392 14.2969 6.6731C14.2953 6.88881 14.4688 7.06502 14.6846 7.06666C14.6855 7.06666 14.6866 7.06666 14.6876 7.06666C14.9019 7.06666 15.0765 6.89369 15.0781 6.67896C15.0944 4.51696 13.7385 2.57997 11.7044 1.85899Z" fill="#F3A952"/>
<path d="M12.3968 14.7048C14.9949 11.3605 16.6187 9.6165 16.6406 6.69056C16.6681 3.00919 13.6805 0 9.99938 0C6.36125 0 3.3871 2.94641 3.35945 6.59095C3.3371 9.59623 4.99097 11.3378 7.60707 14.7042C5.00453 15.0932 3.35945 16.0704 3.35945 17.2657C3.35945 18.0663 4.09953 18.7848 5.4434 19.2887C6.66656 19.7474 8.28481 20 10 20C11.7152 20 13.3334 19.7474 14.5566 19.2887C15.9005 18.7848 16.6406 18.0663 16.6406 17.2656C16.6406 16.071 14.997 15.094 12.3968 14.7048ZM4.14066 6.59685C4.16503 3.38087 6.78906 0.781252 9.99946 0.781252C13.2479 0.781252 15.8836 3.43704 15.8594 6.68474C15.8386 9.46342 14.1166 11.1758 11.3675 14.7595C10.8772 15.3984 10.4268 16.0025 10.0006 16.5934C9.57559 16.0021 9.13426 15.4089 8.63657 14.7593C5.77383 11.0255 4.11949 9.44256 4.14066 6.59685ZM10 19.2188C6.64644 19.2188 4.14066 18.1877 4.14066 17.2657C4.14066 16.5819 5.63863 15.7182 8.15731 15.4191C8.71407 16.1496 9.20219 16.8132 9.68094 17.4911C9.75407 17.5946 9.8729 17.6562 9.99965 17.6563C9.99977 17.6563 9.99989 17.6563 10 17.6563C10.1266 17.6563 10.2454 17.5949 10.3187 17.4916C10.7929 16.8226 11.2944 16.1425 11.8464 15.4195C14.3627 15.7189 15.8594 16.5824 15.8594 17.2657C15.8593 18.1877 13.3536 19.2188 10 19.2188Z" fill="#F3A952"/>
</svg>
