<svg width="34" height="34" viewBox="0 0 34 34" fill="none" xmlns="http://www.w3.org/2000/svg">
<g clip-path="url(#clip0_0_783)">
<path d="M25.7367 10.8112C25.6333 10.8112 25.5293 10.7808 25.4392 10.7206C25.2648 10.6033 25.1758 10.3953 25.211 10.1879L25.5613 8.14509H24.1371C23.2551 8.14509 22.5374 7.42737 22.5374 6.54542V2.27961C22.5374 1.39765 23.2551 0.679932 24.1371 0.679932H31.6022C32.4842 0.679932 33.2019 1.39765 33.2019 2.27961V6.54542C33.2019 7.42737 32.4842 8.14509 31.6022 8.14509H30.1556L26.0193 10.7302C25.933 10.784 25.8349 10.8112 25.7367 10.8112Z" fill="white"/>
<path d="M5.51263 23.113L6.89148 21.7341L3.69231 18.535L2.31346 19.9138L5.51263 23.113Z" fill="#0E3672"/>
<path d="M14.0708 31.6721L15.6055 30.266L12.4061 27.0667L10.8619 28.4632L14.0708 31.6721Z" fill="#0E3672"/>
<path d="M25.7751 25.7704C25.3437 24.4773 24.2431 23.5228 22.9015 23.2786L19.338 22.6302V22.354C19.9581 21.9941 20.4977 21.5125 20.9275 20.9425H22.0041C22.8861 20.9425 23.6038 20.2248 23.6038 19.3429V12.9441C23.6038 9.12198 20.494 6.01221 16.6718 6.01221C12.8497 6.01221 9.73991 9.12198 9.73991 12.9441V16.6767C9.73991 17.7048 10.471 18.5649 11.4404 18.7654C11.7395 20.2979 12.6972 21.5947 14.0057 22.354V22.6302L10.4416 23.2786C9.10057 23.5228 7.99946 24.4773 7.56861 25.7704L7.35532 26.4108L5.53916 24.5946C5.3312 24.3866 5.3312 24.048 5.53916 23.8401L7.6454 21.7344L3.69206 17.781L1.31174 20.1614C0.606816 20.8663 0.218628 21.8037 0.218628 22.8008C0.218628 23.798 0.606816 24.7348 1.31174 25.4398L8.51829 32.6463C9.22321 33.3512 10.1606 33.7399 11.1578 33.7399C12.1549 33.7399 13.0918 33.3512 13.7802 32.6623L16.3775 30.2825L15.5675 29.4741H27.0095L25.7751 25.7704ZM16.6718 24.4544L15.0722 22.8547V22.8296C15.5777 22.9885 16.1146 23.0754 16.6718 23.0754C17.2291 23.0754 17.766 22.9885 18.2715 22.8296V22.8547L16.6718 24.4544ZM22.0041 19.8761H21.5557C21.7103 19.5236 21.8276 19.152 21.9033 18.7654C22.1315 18.7179 22.3416 18.6273 22.5373 18.5132V19.3429C22.5373 19.6372 22.2979 19.8761 22.0041 19.8761ZM22.0041 15.7585C22.3214 15.9435 22.5373 16.2837 22.5373 16.6767C22.5373 17.0697 22.3214 17.4099 22.0041 17.5949V15.7585ZM10.8064 16.6767C10.8064 16.2837 11.0223 15.9435 11.3396 15.7585V17.5949C11.0223 17.4099 10.8064 17.0697 10.8064 16.6767ZM11.3396 14.0106V14.6195C11.1498 14.6691 10.9717 14.7438 10.8064 14.8403V12.9441C10.8064 9.71013 13.4378 7.07866 16.6718 7.07866C19.9059 7.07866 22.5373 9.71013 22.5373 12.9441V14.8403C22.372 14.7438 22.1939 14.6686 22.0041 14.6195V14.0106H21.4709C19.8941 14.0106 18.4118 13.3963 17.2963 12.2813L16.6718 11.6569L16.0474 12.2813C14.9319 13.3963 13.4496 14.0106 11.8728 14.0106H11.3396ZM12.406 17.7432V15.0568C14.0073 14.9363 15.5003 14.2756 16.6718 13.1617C17.8433 14.2756 19.3364 14.9368 20.9377 15.0568V17.7432C20.9377 18.5206 20.7254 19.2479 20.3607 19.8761H16.6718V20.9425H19.4841C18.7322 21.6043 17.7495 22.009 16.6718 22.009C14.3198 22.009 12.406 20.0952 12.406 17.7432ZM6.1369 21.7344L5.55782 22.3135L3.11244 19.8681L3.69153 19.289L6.1369 21.7344ZM11.1567 32.6735C10.4448 32.6735 9.7751 32.3957 9.2712 31.8923L2.06466 24.6863C1.56129 24.1829 1.28401 23.5132 1.28401 22.8014C1.28401 22.089 1.56129 21.4192 2.06466 20.9159L2.35793 20.6226L4.8033 23.068L4.78411 23.0872C4.16077 23.711 4.16077 24.7258 4.78411 25.3496L8.60787 29.1734C8.91021 29.4752 9.31173 29.6421 9.73938 29.6421C10.167 29.6421 10.5685 29.4757 10.8512 29.1921L10.8911 29.1563L13.3477 31.6129L13.0416 31.8934C12.5383 32.3957 11.8685 32.6735 11.1567 32.6735ZM14.1348 30.8909L11.6835 28.4397L12.3879 27.803L14.8349 30.25L14.1348 30.8909ZM14.5011 28.4077L12.4242 26.3308L10.1164 28.4184C9.91534 28.6204 9.56394 28.6204 9.36238 28.4184L8.19782 27.2538L8.57961 26.1074C8.88728 25.1838 9.67379 24.5018 10.632 24.3269L14.3592 23.6497L16.6718 25.9623L18.9839 23.6502L22.7106 24.3274C23.6688 24.5023 24.4553 25.1838 24.763 26.1079L25.5303 28.4077H14.5011Z" fill="white"/>
<path d="M31.069 2.81274H24.6703V3.8792H31.069V2.81274Z" fill="#0E3672"/>
<path d="M28.9361 4.9458H24.6703V6.01225H28.9361V4.9458Z" fill="#0E3672"/>
<path d="M31.069 4.9458H30.0025V6.01225H31.069V4.9458Z" fill="#0E3672"/>
<path d="M5.21553 13.9343L4.66684 13.0198L3.2218 13.8868C4.73296 7.73711 10.263 3.34599 16.6719 3.34599C18.0727 3.34599 19.4548 3.55395 20.7799 3.96453L21.0955 2.94607C19.6681 2.5035 18.1799 2.27954 16.6719 2.27954C9.70476 2.27954 3.7033 7.09884 2.14308 13.8212L1.13262 12.1368L0.21814 12.6854L2.09243 15.8085L5.21553 13.9343Z" fill="white"/>
<path d="M32.9433 12.4871L29.8202 10.6128L27.9459 13.7359L28.8604 14.2846L29.7935 12.7292C30.2846 14.1662 30.5357 15.6694 30.5357 17.2099C30.5357 20.381 29.4373 23.4811 27.4436 25.9388L28.2717 26.6106C30.4195 23.9637 31.6022 20.6246 31.6022 17.2099C31.6022 15.5787 31.3393 13.986 30.8269 12.461L32.394 13.401L32.9433 12.4871Z" fill="white"/>
</g>
<defs>
<clipPath id="clip0_0_783">
<rect width="33.06" height="33.06" fill="white" transform="translate(0.179993 0.679932)"/>
</clipPath>
</defs>
</svg>
