<svg width="15" height="15" viewBox="0 0 15 15" fill="none" xmlns="http://www.w3.org/2000/svg">
<g clip-path="url(#clip0_0_530)">
<path d="M14.0624 11.25V10.3125H13.0775C13.0171 10.0191 12.9006 9.74007 12.7344 9.49078L13.4328 8.79234L12.77 8.12953L12.0716 8.82797C11.8223 8.6618 11.5433 8.5453 11.2499 8.48484V7.5H10.3124V8.48484C10.019 8.5453 9.73994 8.6618 9.49066 8.82797L8.79222 8.12953L8.12941 8.79234L8.82785 9.49078C8.66168 9.74007 8.54518 10.0191 8.48472 10.3125H7.49988V11.25H8.48472C8.54518 11.5434 8.66168 11.8224 8.82785 12.0717L8.12941 12.7702L8.79222 13.433L9.49066 12.7345C9.73994 12.9007 10.019 13.0172 10.3124 13.0777V14.0625H11.2499V13.0777C11.5433 13.0172 11.8223 12.9007 12.0716 12.7345L12.77 13.433L13.4328 12.7702L12.7344 12.0717C12.9006 11.8224 13.0171 11.5434 13.0775 11.25H14.0624ZM10.7811 12.1875C10.503 12.1875 10.2311 12.105 9.99986 11.9505C9.7686 11.796 9.58836 11.5764 9.48192 11.3194C9.37549 11.0624 9.34764 10.7797 9.4019 10.5069C9.45616 10.2341 9.59009 9.98355 9.78676 9.78688C9.98343 9.59021 10.234 9.45628 10.5068 9.40202C10.7796 9.34776 11.0623 9.37561 11.3193 9.48204C11.5762 9.58848 11.7959 9.76872 11.9504 9.99998C12.1049 10.2312 12.1874 10.5031 12.1874 10.7812C12.187 11.1541 12.0387 11.5116 11.7751 11.7752C11.5114 12.0389 11.154 12.1871 10.7811 12.1875Z" fill="#BDBDBD"/>
<path d="M6.56238 12.5002L5.04644 11.6916C4.37114 11.3324 3.80639 10.796 3.41281 10.1402C3.01922 9.48431 2.81165 8.73365 2.81238 7.96875V1.875H12.1874V6.5625H13.1249V1.875C13.1246 1.62644 13.0258 1.38812 12.85 1.21236C12.6743 1.0366 12.4359 0.937748 12.1874 0.9375H2.81238C2.56382 0.937748 2.3255 1.0366 2.14974 1.21236C1.97398 1.38812 1.87513 1.62644 1.87488 1.875V7.96875C1.87384 8.9036 2.12741 9.82109 2.60837 10.6227C3.08934 11.4244 3.77953 12.0799 4.60488 12.5189L6.56238 13.5628V12.5002Z" fill="#BDBDBD"/>
</g>
<defs>
<clipPath id="clip0_0_530">
<rect width="15" height="15" fill="white"/>
</clipPath>
</defs>
</svg>
