<?xml version="1.0" standalone="no"?>
<!DOCTYPE svg PUBLIC "-//W3C//DTD SVG 1.1//EN" "http://www.w3.org/Graphics/SVG/1.1/DTD/svg11.dtd" >
<svg xmlns="http://www.w3.org/2000/svg">
<metadata>Generated by IcoMoon</metadata>
<defs>
<font id="icomoon" horiz-adv-x="1024">
<font-face units-per-em="1024" ascent="960" descent="-64" />
<missing-glyph horiz-adv-x="1024" />
<glyph unicode="&#x20;" horiz-adv-x="512" d="" />
<glyph unicode="&#xe901;" glyph-name="2" d="M704 608c0 8.487 3.369 16.626 9.375 22.627 6.001 6.001 14.136 9.373 22.625 9.373h128c8.489 0 16.625-3.372 22.625-9.373 6.006-6.001 9.375-14.14 9.375-22.627v-64c0-8.487-3.369-16.626-9.375-22.627-6.001-6.001-14.136-9.373-22.625-9.373h-128c-8.489 0-16.625 3.372-22.625 9.373-6.006 6.001-9.375 14.14-9.375 22.627v64zM128 832c-33.948 0-66.505-13.486-90.51-37.49s-37.49-56.562-37.49-90.51v-512c0-33.946 13.486-66.504 37.49-90.511 24.004-24.003 56.562-37.489 90.51-37.489h768c33.946 0 66.504 13.486 90.511 37.489 24.003 24.008 37.489 56.566 37.489 90.511v512c0 33.948-13.486 66.505-37.489 90.51-24.008 24.005-56.566 37.49-90.511 37.49h-768zM960 704v-320h-896v320c0 16.974 6.743 33.252 18.745 45.255s28.281 18.745 45.255 18.745h768c16.973 0 33.254-6.743 45.256-18.745s18.744-28.281 18.744-45.255zM896 128h-768c-16.974 0-33.252 6.743-45.255 18.744s-18.745 28.283-18.745 45.256v64h896v-64c0-16.973-6.743-33.254-18.744-45.256s-28.283-18.744-45.256-18.744z" />
<glyph unicode="&#xe902;" glyph-name="3" d="M512 896c-247.4 0-448-200.6-448-448 0-247.398 200.6-448 448-448 247.398 0 448 200.602 448 448 0 247.4-200.602 448-448 448zM512 76.001c-205.4 0-372 166.6-372 371.999s166.6 372 372 372c205.399 0 371.999-166.6 371.999-372s-166.6-371.999-371.999-371.999zM686.7 321.398l-142.597 103.101v247.501c0 4.4-3.604 8-8.003 8h-48.1c-4.4 0-8-3.6-8-8v-275.4c0-2.601 1.2-5.002 3.3-6.502l165.399-120.596c3.599-2.601 8.602-1.802 11.203 1.7l28.6 38.999c2.596 3.702 1.797 8.699-1.802 11.197z" />
<glyph unicode="&#xe903;" glyph-name="4" d="M591.304-64v467.060h156.71l23.511 182.076h-180.221v116.229c0 52.698 14.574 88.612 90.229 88.612l96.335 0.040v162.855c-16.66 2.165-73.847 7.129-140.407 7.129-138.988 0-234.141-84.837-234.141-240.602v-134.262h-157.185v-182.076h157.185v-467.060h187.983z" />
<glyph unicode="&#xe904;" glyph-name="5" d="M666.047 401.703c50.219-127.055 87.508-257.859 111.742-391.489 34.57 21.077 66.883 46.404 96.246 75.759 76.288 76.292 125.508 172.418 142.899 276.745-74.931 31-157.005 48.156-243.012 48.156-36.766 0-72.797-3.172-107.875-9.172zM874.47 809.602c-0.154 0.141-0.29 0.297-0.435 0.438-96.71 96.703-225.28 149.961-362.038 149.961-53.477 0-105.703-8.18-155.258-23.883 79.43-99.516 149.305-205.718 209.188-317.961 112.812 47.898 216.726 112.797 308.543 191.445zM914.697 764.291c-96.314-82.726-203.939-149.765-321.056-199.867 17.265-34.758 33.57-70.071 48.961-105.906 42.976 8.18 86.828 12.352 131.32 12.352 86.178 0 170.001-15.501 249.54-46.008 0.341 7.688 0.538 15.398 0.538 23.141 0 116.187-38.451 226.446-109.303 316.289zM196.854 44.382c89.633-70.281 199.462-108.399 315.149-108.399 73.531 0 144.688 15.428 209.805 44.689-24.406 141.425-63.485 277.878-115.625 407.745-181.195-49.453-330.476-176.969-409.329-344.035zM502.321 416.029c26.336 11.14 53.18 20.578 80.445 28.343-14.391 32.953-29.656 65.437-45.718 97.461-138.32-51.36-283.766-77.383-433.172-77.383-34.711 0-69.196 1.429-103.43 4.227-0.273-6.868-0.445-13.757-0.445-20.672 0-136.758 53.258-265.328 149.961-362.032 0.032-0.034 0.071-0.060 0.102-0.094 33.446 66.704 77.188 127.329 130.485 180.634 64.070 64.062 138.679 114.367 221.774 149.516zM508.984 595.724c-60.757 112.523-131.843 218.687-211.961 317.234-53.992-25.008-103.734-59.578-147.063-102.906-77.468-77.469-127.023-175.398-143.679-281.602 32.188-2.633 64.734-4 97.594-4 142.203 0 278.648 25.172 405.109 71.274z" />
<glyph unicode="&#xe905;" glyph-name="6" d="M1008.244 760.619c-37.492-16.447-77.442-27.348-119.098-32.642 42.851 25.584 75.558 65.788 90.931 114.247-39.95-23.82-84.064-40.645-131.072-50.034-37.936 40.393-92.003 65.41-150.985 65.41-114.434 0-206.563-92.885-206.563-206.754 0-16.384 1.386-32.137 4.789-47.135-171.843 8.381-323.899 90.742-426.047 216.206-17.834-30.941-28.294-66.355-28.294-104.479 0-71.586 36.864-135.042 91.813-171.78-33.209 0.63-65.788 10.271-93.389 25.458 0-0.63 0-1.449 0-2.269 0-100.446 71.649-183.879 165.605-203.098-16.826-4.6-35.163-6.806-54.193-6.806-13.233 0-26.593 0.756-39.133 3.529 26.782-81.857 102.778-142.037 193.142-143.99-70.325-55.011-159.618-88.161-256.284-88.161-16.951 0-33.209 0.758-49.467 2.84 91.561-59.051 200.074-92.761 317.093-92.761 380.36 0 588.314 315.077 588.314 588.186 0 9.137-0.314 17.96-0.758 26.718 41.021 29.114 75.489 65.473 103.595 107.315z" />
<glyph unicode="&#xe906;" glyph-name="7" d="M511.999 194.117c-11.378 0-22.386 2.133-33.024 6.4-10.695 4.267-19.598 9.955-26.709 17.067l-392.534 392.533c-15.644 15.645-23.467 35.555-23.467 59.733s7.822 44.089 23.467 59.733c15.644 15.644 35.556 23.467 59.734 23.467s44.088-7.822 59.733-23.467l332.8-332.8 332.8 332.8c15.645 15.644 35.555 23.467 59.733 23.467s44.089-7.822 59.734-23.467c15.644-15.644 23.466-35.556 23.466-59.733s-7.822-44.089-23.466-59.733l-392.534-392.533c-8.533-8.534-17.778-14.563-27.733-18.091-9.955-3.584-20.622-5.376-32-5.376z" />
<glyph unicode="&#xe907;" glyph-name="8" d="M532.5 427.999c0-11.043-8.958-20.001-20.001-20.001s-20.001 8.958-20.001 20.001c0 11.043 8.958 20.001 20.001 20.001s20.001-8.958 20.001-20.001z" />
<glyph unicode="&#xe908;" glyph-name="9" d="M316.369 960l-120.744-120.748 391.252-391.252-391.252-391.252 120.744-120.748 512 512-512 512z" />
<glyph unicode="&#xe909;" glyph-name="10" d="M325.556 404.502h381.074v-95.27h-381.074v95.27zM849.532 833.205h-95.27v95.269h-95.264v-95.269h-285.808v95.269h-95.269v-95.269h-95.268c-52.541 0-95.269-42.728-95.269-95.268v-666.882c0-52.537 42.728-95.264 95.269-95.264h666.878c52.542 0 95.27 42.728 95.27 95.264v666.882c0 52.54-42.728 95.268-95.27 95.268zM849.629 71.055h-666.975v571.614h666.878l0.097-571.614z" />
<glyph unicode="&#xe90a;" glyph-name="11" d="M1015.038-11.727c0 134.232-52.273 260.418-147.188 355.333-25.624 25.624-53.536 48.108-83.266 67.33v-180.648c32.246-12.503 55.184-43.832 55.184-80.433 0-47.553-38.688-86.24-86.245-86.24-47.553 0-86.235 38.688-86.235 86.24 0 37.508 24.079 69.486 57.578 81.32v212.807c-7.412 3.462-14.911 6.744-22.489 9.826-5.866-4.481-11.898-8.763-18.086-12.834l-141.917-199.509v-305.469h472.664v52.278zM613.030 31.417c-16.735 0-29.13 13.683-29.852 29.862-0.727 16.126 14.243 29.857 29.852 29.857 16.745 0 29.135-13.678 29.862-29.857 0.727-16.126-14.243-29.862-29.862-29.862zM341.039 440.778c-6.289 4.125-12.414 8.475-18.383 13.029-4.391-1.785-8.765-3.633-13.109-5.544v-209.925c65.492-14.941 114.516-73.621 114.516-143.57v-52.536h-59.711v52.536c0 48.289-39.289 87.581-87.578 87.581-48.297 0-87.586-39.292-87.586-87.581v-55.71h-59.719v55.71c0 72.016 51.969 132.086 120.367 144.784v177.298c-33.25-20.47-64.352-44.949-92.649-73.245-94.914-94.915-147.187-221.111-147.187-355.333v-52.278h472.656v305.508l-141.617 199.275zM579.618 396.81c-21.626-4.735-44.071-7.256-67.101-7.256-22.991 0-45.399 2.511-66.993 7.231l66.998-94.32 67.096 94.345zM753.523 176.382c-14.624 0-26.522-11.908-26.522-26.526 0-14.629 11.898-26.526 26.522-26.526s26.526 11.903 26.526 26.526c0 14.629-11.903 26.526-26.526 26.526zM512.517 451.272c140.259 0 254.366 114.103 254.366 254.361s-114.108 254.367-254.366 254.367c-140.251 0-254.368-114.109-254.368-254.367s114.109-254.361 254.368-254.361z" />
<glyph unicode="&#xe90b;" glyph-name="12" d="M736.934-64c-179.512 0-371.21 65.96-521.094 215.84-149.634 149.641-215.84 341.209-215.84 521.094 0 158.538 128.264 287.066 287.066 287.066 12.268 0 23.298-7.468 27.854-18.858l128.534-321.334c6.154-15.384-1.328-32.842-16.71-38.996l-141.194-56.476c9.988-162.435 140.376-292.814 302.787-302.791l56.476 141.195c6.139 15.36 23.591 22.869 38.995 16.711l321.331-128.532c11.391-4.554 18.861-15.584 18.861-27.853 0-158.54-128.263-287.066-287.066-287.066z" />
<glyph unicode="&#xe90c;" glyph-name="13" d="M152 600c0-177.834 135.762-370.77 255.556-537.497 28.476-39.609 55.752-77.546 79.482-113.142 5.565-8.353 14.942-13.361 24.962-13.361 10.016 0 19.393 5.008 24.956 13.361 23.732 35.596 51.010 73.533 79.482 113.142 119.798 166.727 255.561 359.663 255.561 537.497 0 198.516-161.485 360-359.999 360-198.516 0-360-161.484-360-360zM692 600c0-99.258-80.74-179.999-180-179.999-99.258 0-180 80.741-180 179.999s80.742 180 180 180c99.26 0 180-80.742 180-180zM512 480c66.272 0 119.998 53.726 119.998 120s-53.726 120-119.998 120c-66.274 0-120-53.725-120-120s53.726-120 120-120z" />
<glyph unicode="&#xe90d;" glyph-name="14" d="M467.665 3.059c-3.056 0-6.079 0.634-8.878 1.856-2.799 1.229-5.316 3.014-7.389 5.261l-438.617 474.458c-2.924 3.164-4.862 7.11-5.578 11.357s-0.177 8.612 1.549 12.559c1.726 3.946 4.565 7.304 8.17 9.662s7.819 3.613 12.126 3.613h211.126c3.17 0 6.303-0.68 9.187-1.995s5.454-3.232 7.535-5.624l146.588-168.644c15.842 33.864 46.509 90.25 100.326 158.958 79.559 101.576 227.544 250.961 480.728 385.816 4.89 2.606 10.586 3.282 15.949 1.895 5.37-1.387 10.022-4.736 13.043-9.386s4.186-10.263 3.264-15.731c-0.915-5.468-3.853-10.392-8.224-13.802-0.966-0.756-98.586-77.629-210.931-218.437-103.392-129.578-240.842-341.457-308.475-614.993-1.188-4.806-3.951-9.075-7.85-12.122-3.898-3.053-8.705-4.71-13.655-4.71l0.006 0.006z" />
<glyph unicode="&#xe90e;" glyph-name="15" d="M1022.759 389.17c-7.566 52.423-48.748 93.605-101.174 101.174v31.027c0 85.603-65.074 155.303-145.063 155.303-77.686 0-142.728-67.584-145.066-150.663h0.992l-0.992-0.17v-336.328c0-107.517-80.381-194.829-179.197-194.829-98.813 0-179.197 87.429-179.197 194.829v29.131c24.746 0 51.2 17.938 51.2 68.266v42.923c109.533 28.005 187.728 122.058 187.728 228.688v35.585h-34.131l-0.717 222.119c-0.249 41.115-29.752 76.221-70.211 83.54-8.727 26.737-37.478 41.337-64.217 32.608-26.738-8.727-41.337-37.478-32.607-64.217 8.727-26.737 37.478-41.337 64.217-32.607 14.316 4.674 25.828 15.445 31.446 29.418 21.864-6.221 37.010-26.111 37.189-48.844l0.767-222.017h-34.131v-36.080c-1.36-59.363-41.159-110.949-98.234-127.333-30.539-9.687-63.328-9.687-93.866 0-57.008 16.44-96.717 68.017-98.030 127.333v36.080h-51.199v221.863c0.098 23.067 15.612 43.223 37.887 49.22 10.387-26.442 40.243-39.456 66.685-29.068s39.455 40.245 29.068 66.685c-10.387 26.44-40.245 39.455-66.685 29.068-14.327-5.63-25.382-17.378-30.127-32.023-40.902-6.989-70.849-42.387-70.962-83.881v-221.863h-34.133v-35.498c0-106.751 78.249-200.839 187.731-228.776v-42.923c0-50.328 26.453-68.266 51.199-68.266v-29.131c0-126.291 95.693-228.963 213.33-228.963 117.64 0 213.331 102.792 213.331 228.963v335.509c1.706 64.767 51.504 117.467 110.931 117.467 61.165 0 110.931-54.339 110.931-121.171v-30.975c-65.302-9.427-110.598-70.006-101.174-135.308s70.004-110.598 135.306-101.174c65.305 9.427 110.601 70.006 101.174 135.308zM358.394 867.169c-9.424 0-17.066 7.642-17.066 17.067s7.642 17.066 17.066 17.066c9.427 0 17.066-7.641 17.066-17.066s-7.639-17.067-17.066-17.067zM153.598 901.302c9.425 0 17.067-7.641 17.067-17.066s-7.641-17.067-17.067-17.067c-9.425 0-17.066 7.642-17.066 17.067s7.641 17.066 17.066 17.066zM34.133 558.61v1.363h51.199v-1.946c1.28-74.176 50.63-138.91 121.82-159.791 37.305-11.814 77.347-11.814 114.653 0 71.224 20.852 120.618 85.589 121.92 159.791v1.946h34.134v-1.363c0-94.942-73.181-178.48-174.077-198.688-23.693-4.746-47.962-5.936-72.004-3.534-7.915 0.769-15.782 1.96-23.569 3.569-100.896 20.173-174.077 103.711-174.077 198.653zM238.93 252.779c-15.36 0-17.067 23.891-17.067 34.131v36.214c1.365-0.17 2.765-0.237 4.147-0.374 1.707-0.187 3.413-0.325 5.12-0.477 8.072-0.717 16.213-1.194 24.422-1.211h0.853c8.192 0 16.316 0.494 24.337 1.211 1.707 0.152 3.516 0.29 5.273 0.477 1.348 0.155 2.748 0.205 4.096 0.374v-36.214c0-10.24-1.707-34.131-17.067-34.131h-34.116zM904.52 286.91c-47.127 0-85.331 38.207-85.331 85.334 0 47.124 38.204 85.331 85.331 85.331s85.331-38.207 85.331-85.331c-0.056-47.107-38.227-85.279-85.331-85.334z" />
<glyph unicode="&#xe90f;" glyph-name="16" d="M292 548.001h20.001c11.045 0 20 8.953 20 20 0 11.045-8.956 20-20 20h-20.001c-11.046 0-20-8.956-20-20 0-11.047 8.954-20 20-20zM431.999 548.001h20c11.047 0 20 8.953 20 20 0 11.045-8.953 20-20 20h-20c-11.045 0-20-8.956-20-20 0-11.047 8.956-20 20-20zM572.001 548.001h20c11.045 0 20 8.953 20 20 0 11.045-8.956 20-20 20h-20c-11.047 0-20-8.956-20-20 0-11.047 8.953-20 20-20zM711.999 548.001h20c11.045 0 20 8.953 20 20 0 11.045-8.956 20-20 20h-20c-11.045 0-20-8.956-20-20 0-11.047 8.956-20 20-20zM852 548.001h20c11.045 0 20 8.953 20 20 0 11.045-8.956 20-20 20h-20c-11.047 0-20-8.956-20-20 0-11.047 8.953-20 20-20zM152 428h20c11.046 0 20 8.956 20 20s-8.954 20-20 20h-20c-11.046 0-20-8.956-20-20s8.954-20 20-20zM292 428h20.001c11.045 0 20 8.956 20 20s-8.956 20-20 20h-20.001c-11.046 0-20-8.956-20-20s8.954-20 20-20zM431.999 428h20c11.047 0 20 8.956 20 20s-8.953 20-20 20h-20c-11.045 0-20-8.956-20-20s8.956-20 20-20zM572.001 428h20c11.045 0 20 8.956 20 20s-8.956 20-20 20h-20c-11.047 0-20-8.956-20-20s8.953-20 20-20zM711.999 428h20c11.045 0 20 8.956 20 20s-8.956 20-20 20h-20c-11.045 0-20-8.956-20-20s8.956-20 20-20zM852 428h20c11.045 0 20 8.956 20 20s-8.956 20-20 20h-20c-11.047 0-20-8.956-20-20s8.953-20 20-20zM152 307.999h20c11.046 0 20 8.959 20 20 0 11.045-8.954 20-20 20h-20c-11.046 0-20-8.956-20-20 0-11.042 8.954-20 20-20zM292 307.999h20.001c11.045 0 20 8.959 20 20 0 11.045-8.956 20-20 20h-20.001c-11.046 0-20-8.956-20-20 0-11.042 8.954-20 20-20zM431.999 307.999h20c11.047 0 20 8.959 20 20 0 11.045-8.953 20-20 20h-20c-11.045 0-20-8.956-20-20 0-11.042 8.956-20 20-20zM572.001 307.999h20c11.045 0 20 8.959 20 20 0 11.045-8.956 20-20 20h-20c-11.047 0-20-8.956-20-20 0-11.042 8.953-20 20-20zM711.999 307.999h20c11.045 0 20 8.959 20 20 0 11.045-8.956 20-20 20h-20c-11.045 0-20-8.956-20-20 0-11.042 8.956-20 20-20zM852 307.999h20c11.045 0 20 8.959 20 20 0 11.045-8.956 20-20 20h-20c-11.047 0-20-8.956-20-20 0-11.042 8.953-20 20-20zM152 188.001h20c11.046 0 20 8.956 20 20s-8.954 20-20 20h-20c-11.046 0-20-8.956-20-20s8.954-20 20-20zM292 188.001h20.001c11.045 0 20 8.956 20 20s-8.956 20-20 20h-20.001c-11.046 0-20-8.956-20-20s8.954-20 20-20zM431.999 188.001h20c11.047 0 20 8.956 20 20s-8.953 20-20 20h-20c-11.045 0-20-8.956-20-20s8.956-20 20-20zM572.001 188.001h20c11.045 0 20 8.956 20 20s-8.956 20-20 20h-20c-11.047 0-20-8.956-20-20s8.953-20 20-20zM711.999 188.001h20c11.045 0 20 8.956 20 20s-8.956 20-20 20h-20c-11.045 0-20-8.956-20-20s8.956-20 20-20zM852 188.001h20c11.045 0 20 8.956 20 20s-8.956 20-20 20h-20c-11.047 0-20-8.956-20-20s8.953-20 20-20zM152 67.999h20c11.046 0 20 8.956 20 20s-8.954 20-20 20h-20c-11.046 0-20-8.956-20-20s8.954-20 20-20zM292 67.999h20.001c11.045 0 20 8.956 20 20s-8.956 20-20 20h-20.001c-11.046 0-20-8.956-20-20s8.954-20 20-20zM431.999 67.999h20c11.047 0 20 8.956 20 20s-8.953 20-20 20h-20c-11.045 0-20-8.956-20-20s8.956-20 20-20zM572.001 67.999h20c11.045 0 20 8.956 20 20s-8.956 20-20 20h-20c-11.047 0-20-8.956-20-20s8.953-20 20-20zM991.999 868h-99.998v10c0 38.598-31.402 70-70.001 70s-70.001-31.402-70.001-70v-10h-479.999v10c0 38.598-31.402 70-70 70s-70-31.402-70-70v-10h-100c-11.046 0-20-8.954-20-20v-879.999c0-11.045 8.954-20 20-20h959.999c11.045 0 20 8.956 20 20 0 40.468 0 865.329 0 879.999 0 11.046-8.956 20-20 20zM792 878c0 16.542 13.455 30 30 30 16.542 0 30-13.458 30-30v-60c0-16.542-13.458-30-30-30-16.545 0-30 13.458-30 30v60zM172 878c0 16.542 13.458 30 30 30s30-13.458 30-30v-60c0-16.542-13.458-30-30-30s-30 13.458-30 30v60zM52 828h80v-10c0-38.598 31.402-70 70-70s70 31.402 70 70v10h479.999v-10c0-41.266 35.764-73.852 77.148-69.638 35.264 3.59 62.853 33.466 62.853 69.638v10h80.001v-120h-920.001v120zM972.001-12.001h-920.001v680.001h920.001v-680.001z" />
<glyph unicode="&#xe910;" glyph-name="17" d="M839.001-63.997h-654.201c-64 0.199-115.8 51.999-116 115.999v51.2c0 125.2 52.6 244.601 145.2 328.801 38.6 35 96 39.798 139.801 11.6 45.799-29.401 100.399-45 158.199-45s112.4 15.6 158.199 45c43.801 28.198 101.2 23.4 139.799-11.6 92.602-84.199 145.402-203.6 145.2-328.801v-51.2c-0.199-64.199-52.198-115.999-116.198-115.999zM291.4 422.002c-18.8 0-36.8-7.001-50.6-19.599-84.2-76.601-132.2-185.4-132.2-299.201v-51.2c0.2-41.999 34-75.799 76-76.001h654.199c42.002 0 76.001 34.003 76.001 76.001v51.2c0 113.802-47.999 222.401-132.201 299.201-25.199 22.8-62.599 25.998-91.2 7.598-52.198-33.599-114.398-51.399-179.8-51.399-65.398 0-127.599 17.8-179.799 51.399-11.8 7.8-26 12.001-40.4 12.001zM512 444.001c-142.4 0.199-257.8 115.601-258 257.999 0 142.2 115.6 258 258 258 142.4-0.2 257.799-115.6 258.001-258-0.202-142.2-115.8-257.999-258.001-257.999zM512 919.8c-120.399 0-218-97.6-218-218 0-120.399 97.601-218.001 218-218.001s218.001 97.602 218.001 218.001c-0.202 120.4-97.602 218-218.001 218z" />
<glyph unicode="&#xe911;" glyph-name="18" horiz-adv-x="1035" d="M448.345 401.694c0 8.598-6.979 15.578-15.578 15.578s-15.578-6.98-15.578-15.578v-179.408c0-76.073-45.169-144.609-115.020-174.655l-175.665-75.567c-17.805-7.638-37.43-6.221-53.919 3.945s-26.605 27.061-27.769 46.383c-11.229 186.591 18.361 341.468 87.959 460.332 61 104.094 141.979 160.643 199.185 189.727 18.31 9.307 39.706 8.447 57.207-2.277 17.5-10.722 27.97-29.438 27.97-49.973v-70.003c-57.813-43.398-132.115-120.483-137.021-232.467-0.354-8.598 6.271-15.882 14.871-16.236 0.253 0 0.455 0 0.708 0 8.296 0 15.175 6.525 15.528 14.871 5.665 129.637 118.105 208.593 166.157 236.513 20.637 11.988 33.484 34.345 33.484 58.269v333.274c0 8.599-6.98 15.579-15.578 15.579s-15.578-6.98-15.578-15.579v-333.325c0-12.847-6.879-24.885-18.006-31.308-4.097-2.378-8.599-5.109-13.455-8.144v48.557c0 31.462-16.034 60.091-42.841 76.529-26.808 16.439-59.584 17.753-87.605 3.49-60.848-30.956-147.087-91.146-211.881-201.766-72.836-124.276-103.842-285.071-92.208-477.934 1.77-29.589 17.298-55.487 42.538-71.066 14.517-8.952 30.652-13.505 46.939-13.505 11.988 0 24.076 2.479 35.66 7.435l175.665 75.568c81.334 34.95 133.836 114.767 133.836 203.282v179.459zM940.893 498.454c-64.793 110.619-151.033 170.81-211.982 201.766-28.022 14.263-60.798 12.949-87.605-3.49s-42.842-45.067-42.842-76.529v-43.953c-2.074 1.264-4.097 2.478-6.019 3.541-11.077 6.423-18.006 18.462-18.006 31.308v333.325c0 8.599-6.98 15.579-15.578 15.579-8.599 0-15.58-6.98-15.58-15.579v-333.325c0-23.924 12.848-46.23 33.485-58.268 48.051-27.921 160.492-106.876 166.157-236.514 0.354-8.346 7.283-14.871 15.528-14.871 0.253 0 0.455 0 0.708 0 8.598 0.355 15.276 7.638 14.871 16.237-5.109 116.841-85.835 195.746-144.508 237.93v64.591c0 20.536 10.47 39.251 27.971 49.973 17.5 10.724 38.896 11.584 57.206 2.277 57.206-29.084 138.235-85.633 199.185-189.778 69.599-118.864 99.239-273.741 87.959-460.332-1.163-19.322-11.279-36.215-27.769-46.382s-36.114-11.584-53.918-3.946l-175.666 75.568c-69.852 30.044-115.020 98.632-115.020 174.653v179.409c0 8.598-6.98 15.578-15.578 15.578s-15.578-6.98-15.578-15.578v-179.409c0-88.516 52.553-168.332 133.836-203.282l175.666-75.568c11.583-4.956 23.62-7.435 35.659-7.435 16.286 0 32.422 4.553 46.938 13.505 25.24 15.578 40.768 41.425 42.538 71.066 11.735 192.862-19.271 353.658-92.056 477.934zM689.863 284.955c-0.101-8.599 6.829-15.63 15.427-15.731 0.050 0 0.101 0 0.151 0 8.548 0 15.478 6.879 15.58 15.427 1.314 132.47-82.294 202.523-132.268 232.467-18.564 11.127-39.857 16.995-61.658 16.995-21.749 0-43.094-5.868-61.657-16.995-49.973-29.944-133.582-99.997-132.268-232.467 0.101-8.548 7.031-15.427 15.58-15.427 0.050 0 0.101 0 0.151 0 8.598 0.101 15.528 7.132 15.427 15.731-1.164 116.942 72.886 178.902 117.144 205.406 13.707 8.244 29.488 12.544 45.623 12.544s31.917-4.35 45.624-12.544c44.258-26.505 118.307-88.464 117.144-205.406z" />
<glyph unicode="&#xe912;" glyph-name="19" d="M941.054 252.165h-57.188v18.258h63.593c8.652 0 15.674 7.022 15.674 15.674v80.052c0 8.652-7.022 15.674-15.674 15.674h-286.28c-8.651 0-15.673-7.022-15.673-15.674v-80.052c0-8.652 7.022-15.674 15.673-15.674h59.436v-18.258h-53.032c-20.618 0-37.415-16.797-37.415-37.414v-222.855c0-20.618 16.797-37.415 37.415-37.415h273.527c20.617 0 37.414 16.797 37.414 37.415v222.855c-0.056 20.617-16.853 37.414-37.47 37.414zM947.121 54.87h-163.026v78.198h163.026v-78.198zM676.796 350.475h254.99v-48.762h-254.99v48.762zM941.054-14.172h-273.526c-3.371 0-6.068 2.753-6.068 6.068v222.855c0 3.37 2.752 6.067 6.068 6.067h116.006c8.652 0 15.674 7.022 15.674 15.674s-7.022 15.673-15.674 15.673h-31.628v18.258h100.614v-18.258h-6.91c-8.652 0-15.673-7.021-15.673-15.673s7.021-15.674 15.673-15.674h95.445c3.371 0 6.068-2.752 6.068-6.067v-50.391h-178.701c-8.651 0-15.673-7.022-15.673-15.674v-109.489c0-8.651 7.022-15.673 15.673-15.673h178.701v-31.628c0-3.314-2.697-6.068-6.068-6.068zM1018.523 955.394c-6.124 6.123-16.011 6.123-22.134 0l-266.167-266.168-21.46 21.46c-2.922 2.921-6.911 4.606-11.067 4.606s-8.146-1.628-11.067-4.606l-46.346-46.346-21.572 21.572c-6.124 6.122-16.011 6.122-22.134 0l-485.259-485.26c-6.123-6.124-6.123-16.011 0-22.134l40.56-40.56-35.897-35.898-55.054 55.055c-6.123 6.122-16.010 6.122-22.134 0l-33.257-33.257c-3.034-2.978-4.663-6.967-4.663-11.123s1.629-8.146 4.607-11.067l161.116-161.117c2.922-2.921 6.91-4.606 11.067-4.606s8.145 1.629 11.067 4.606l33.257 33.257c6.124 6.124 6.124 16.011 0 22.134l-55.054 55.054 35.897 35.897 40.56-40.56c2.922-2.922 6.91-4.607 11.067-4.607s8.146 1.629 11.067 4.607l485.26 485.26c2.921 2.921 4.606 6.91 4.606 11.066s-1.628 8.146-4.606 11.067l-21.572 21.572 46.346 46.346c2.921 2.921 4.607 6.91 4.607 11.067s-1.629 8.145-4.607 11.067l-23.202 23.2 266.168 266.168c6.124 6.236 6.124 16.179 0 22.246zM177.661-26.249l-138.983 138.983 11.123 11.123 138.982-138.983-11.123-11.123zM144.797 73.13l-6.741 6.74 35.897 35.898 6.741-6.741-35.897-35.897zM664.887 490.020l-37.245 37.246c-6.124 6.124-16.011 6.124-22.134 0s-6.124-16.011 0-22.134l37.245-37.245-47.695-47.695-13.932 13.932c-6.122 6.122-16.010 6.122-22.133 0-6.124-6.124-6.124-16.011 0-22.134l13.932-13.932-47.695-47.695-37.246 37.245c-6.122 6.124-16.010 6.124-22.133 0-6.124-6.122-6.124-16.010 0-22.133l37.245-37.245-47.695-47.695-13.932 13.931c-6.124 6.124-16.011 6.124-22.133 0-6.124-6.122-6.124-16.010 0-22.133l13.932-13.932-47.695-47.695-37.246 37.245c-6.124 6.124-16.011 6.124-22.133 0-6.124-6.124-6.124-16.011 0-22.133l37.245-37.246-47.695-47.695-13.932 13.932c-6.124 6.124-16.011 6.124-22.134 0s-6.122-16.011 0-22.133l13.932-13.932-39.043-39.044-109.995 109.996 463.013 463.013 109.939-109.939-52.638-52.751zM707.075 597.544l-44.661 44.661 35.28 35.279 44.661-44.66-35.28-35.28zM597.811 608.444l-13.259-13.259c-6.124-6.122-6.124-16.010 0-22.133 3.034-3.033 7.078-4.607 11.067-4.607s8.034 1.517 11.067 4.607l13.257 13.257c6.124 6.124 6.124 16.011 0 22.134-6.067 6.124-16.010 6.124-22.133 0zM544.611 555.185l-307.571-307.571c-6.124-6.124-6.124-16.011 0-22.134 3.033-3.033 7.078-4.606 11.067-4.606 3.988 0 8.033 1.517 11.067 4.606l307.571 307.571c6.122 6.124 6.122 16.011 0 22.134-6.124 6.124-16.068 6.124-22.134 0z" />
<glyph unicode="&#xe913;" glyph-name="20" horiz-adv-x="1070" d="M215.791 303.88c0.379 37.302 15.213 72.223 41.742 98.372s61.773 40.55 99.238 40.55h74.226c49.375 0 96.261 19.003 132.155 53.49 35.569 34.216 56.576 80.072 59.12 129.070 0.217 4.493-1.407 8.933-4.493 12.181s-7.417 5.144-11.965 5.144h-22.469c-81.967 0-148.613 66.321-148.613 147.855v150.779c0 9.096-7.363 16.459-16.459 16.459s-16.458-7.363-16.458-16.459v-150.834c0-99.67 81.426-180.772 181.585-180.772h4.169c-5.523-34-21.926-65.401-47.21-89.709-29.669-28.532-68.487-44.287-109.309-44.287h-74.28c-46.127 0-89.601-17.757-122.355-50.025-29.235-28.803-46.939-66.268-50.784-106.655-99.184-13.482-174.925-98.643-174.925-199.993v-165.993c0-9.095 7.363-16.458 16.459-16.458s16.458 7.363 16.458 16.458v165.993c0 88.951 69.732 162.96 158.684 168.537 8.662 0.542 15.376 7.634 15.484 16.296zM971.096 397c8.391 32.917 12.723 66.971 12.723 101.295v120.245c0 50.784-19.869 98.318-55.926 133.888-35.895 35.408-83.701 54.951-134.592 54.951h-10.666c-59.878 0-112.177-26.311-144.931-72.492h-23.822c-41.851 0-75.85 33.999-75.85 75.849v132.805c-0.055 9.096-7.417 16.459-16.513 16.459s-16.459-7.363-16.459-16.459v-132.805c0-59.986 48.835-108.766 108.822-108.766h32.646c5.63 0 10.882 2.869 13.914 7.687 26.095 41.201 70.653 64.806 122.247 64.806h10.666c42.175 0 81.752-16.134 111.474-45.422 29.777-29.344 46.127-68.595 46.127-110.445v-120.245c0-26.745-2.868-53.382-8.446-79.314-41.579 27.502-91.387 43.636-144.878 43.636-145.203 0-263.282-118.133-263.282-263.282 0-26.907 4.061-52.841 11.586-77.257-0.433 0.055-0.812 0.108-1.245 0.108h-181.423c-54.193 0-103.568 30.048-128.907 78.395-3.302 6.334-10.287 9.799-17.325 8.607-64.751-10.774-111.744-66.213-111.744-131.776v-124.359c0-9.095 7.363-16.458 16.459-16.458s16.458 7.363 16.458 16.458v124.359c0 45.586 30.157 84.675 73.198 96.802 32.484-52.731 89.493-84.999 151.808-84.999h181.314c4.548 0 8.717 1.841 11.694 4.872 40.713-92.958 133.509-158.087 241.301-158.087 145.203 0 263.282 118.132 263.282 263.282 0 78.665-34.758 149.371-89.709 197.664zM797.523-31.028c-127.012 0-230.365 103.352-230.365 230.365 0 127.011 103.352 230.365 230.365 230.365s230.365-103.353 230.365-230.365c0-127.067-103.352-230.365-230.365-230.365z" />
<glyph unicode="&#xe914;" glyph-name="21" d="M659.871 747.94c8.863 0.195 17.572-2.375 24.909-7.357s12.938-12.13 16.026-20.443c3.092-8.313 3.512-17.381 1.208-25.945s-7.219-16.194-14.060-21.836l-261.085-223.666 261.085-223.587c4.731-3.482 8.694-7.895 11.643-12.979 2.944-5.079 4.813-10.716 5.478-16.553 0.671-5.837 0.123-11.745-1.597-17.362-1.725-5.617-4.588-10.819-8.412-15.278s-8.53-8.074-13.819-10.629c-5.289-2.555-11.049-3.988-16.922-4.219-5.868-0.225-11.72 0.758-17.193 2.898-5.468 2.145-10.44 5.391-14.597 9.539l-298.916 255.754c-4.694 4.004-8.463 8.975-11.048 14.582-2.585 5.601-3.923 11.704-3.923 17.874s1.339 12.27 3.923 17.874 6.354 10.58 11.048 14.586l298.916 255.999c7.552 6.707 17.239 10.511 27.336 10.748z" />
<glyph unicode="&#xe915;" glyph-name="22" d="M364.131 747.94c-8.866 0.195-17.573-2.375-24.91-7.357s-12.939-12.13-16.028-20.443c-3.088-8.313-3.51-17.381-1.207-25.945s7.219-16.194 14.061-21.836l261.083-223.666-261.083-223.587c-4.733-3.482-8.697-7.895-11.644-12.979-2.947-5.079-4.812-10.716-5.48-16.553s-0.123-11.745 1.599-17.362c1.723-5.617 4.586-10.819 8.412-15.278s8.53-8.074 13.819-10.629c5.289-2.555 11.049-3.988 16.919-4.219 5.87-0.225 11.723 0.758 17.193 2.898 5.471 2.145 10.44 5.391 14.598 9.539l298.916 255.754c4.695 4.004 8.463 8.975 11.049 14.582 2.586 5.601 3.922 11.704 3.922 17.874s-1.336 12.27-3.922 17.874-6.354 10.58-11.049 14.586l-298.916 255.999c-7.551 6.707-17.236 10.511-27.333 10.748z" />
<glyph unicode="&#xe916;" glyph-name="23" d="M217.828 937.422c-92.32 52.956-167.166 9.574-167.166-96.819v-785.13c0-106.5 74.847-149.827 167.166-96.922l686.241 393.559c92.353 52.972 92.353 138.799 0 191.764l-686.241 393.548z" />
<glyph unicode="&#xe917;" glyph-name="24" d="M1004.052 383.406h-427.459v-427.459h-142.486v427.459h-427.459v142.486h427.459v427.458h142.486v-427.458h427.459v-142.486z" />
<glyph unicode="&#xe919;" glyph-name="26" d="M381.367 316.952c0-10.518-8.527-19.046-19.047-19.046-10.518 0-19.048 8.528-19.048 19.046s8.53 19.046 19.048 19.046c10.52 0 19.047-8.528 19.047-19.046z" />
<glyph unicode="&#xe91a;" glyph-name="27" d="M513.961 879.999c-11.060 0.080-20.081-8.82-20.161-19.86s8.8-20.060 19.858-20.14c11.044-0.080 20.060 8.8 20.142 19.84s-8.801 20.060-19.84 20.16zM513.050 759.996c-77.221 0.548-140.463-61.75-141.047-138.948-0.582-77.194 61.75-140.467 138.949-141.048 0.358-0.002 0.714-0.004 1.070-0.004 76.708 0 139.397 62.112 139.981 138.952 0.579 77.19-61.752 140.466-138.952 141.048zM512.020 519.994c-0.254 0-0.518 0.002-0.77 0.004-55.142 0.416-99.666 45.612-99.25 100.75 0.414 54.89 45.19 99.254 99.982 99.254 0.253 0 0.514-0.002 0.77-0.004 55.142-0.416 99.666-45.612 99.246-100.75-0.415-54.89-45.189-99.254-99.978-99.254zM599.265 864.82c-10.404 3.692-21.842-1.758-25.533-12.17s1.756-21.842 12.165-25.534c88.095-31.222 146.806-115.124 146.104-208.778-0.082-11.044 8.801-20.066 19.85-20.15 0.046 0 0.102 0 0.154 0 10.972 0 19.912 8.856 19.994 19.85 0.835 110.694-68.588 209.868-172.733 246.782zM634.716 207.114c133.023 171.228 216.161 260.521 217.283 410.329 1.408 188.486-151.557 342.557-340.030 342.557-186.272 0-338.549-150.856-339.964-337.457-1.144-153.87 83.534-243.039 217.478-415.398-133.25-19.917-217.478-69.949-217.478-131.149 0-40.991 37.892-77.778 106.698-103.578 62.626-23.485 145.48-36.419 233.298-36.419s170.67 12.933 233.298 36.419c68.808 25.8 106.701 62.587 106.701 103.583 0 61.164-84.152 111.186-217.283 131.113zM212.002 622.241c1.248 164.658 135.598 297.759 299.971 297.759 166.32 0 301.268-135.976 300.029-302.259-1.065-142.268-89.231-229.942-229.985-413.428-25.103-32.712-48.164-63.642-69.985-93.896-21.761 30.275-44.357 60.646-69.838 93.906-146.572 191.171-231.274 272.217-230.191 417.917zM512-24.003c-171.702 0-299.998 52.792-299.998 99.999 0 35.011 76.696 79.232 205.652 94.546 28.506-37.402 53.498-71.378 78.010-106.086 3.744-5.299 9.828-8.453 16.318-8.458 0.006 0 0.012 0 0.018 0 6.482 0 12.564 3.144 16.317 8.433 24.279 34.253 49.956 69.074 78.218 106.092 128.835-15.329 205.466-59.54 205.466-94.525-0.005-47.206-128.297-99.999-300.001-99.999z" />
<glyph unicode="&#xe91b;" glyph-name="28" d="M961.574 906.981h-192.963c-8.284 0-14.999-6.716-14.999-15s6.715-15 14.999-15h192.963c17.879 0 32.425-14.546 32.425-32.426v-569.949h-963.999v569.949c0 17.88 14.546 32.426 32.426 32.426h636.185c8.282 0 14.999 6.716 14.999 15s-6.717 15-14.999 15h-636.185c-34.422 0-62.426-28.004-62.426-62.426v-617.522c0-34.422 28.004-62.426 62.426-62.426h143.602c8.284 0 15 6.715 15 14.999s-6.716 14.999-15 14.999h-143.602c-17.88 0-32.426 14.546-32.426 32.428v17.574h963.999v-17.574c0-17.882-14.546-32.428-32.425-32.428h-686.205c-8.284 0-15.002-6.715-15.002-14.999s6.717-14.999 15.002-14.999h94.408l-14.81-85.591h-27.374c-24.814 0-45-20.186-45-45s20.186-45 45-45h368.814c24.814 0 45 20.186 45 45s-20.186 45-45 45h-27.374l-14.81 85.591h307.348c34.422 0 62.426 28.004 62.426 62.426v617.522c0.003 34.422-28.001 62.426-62.423 62.426zM638.587 79.017h-40.835c-8.284 0-14.999-6.715-14.999-14.999s6.715-15.002 14.999-15.002h98.655c8.271 0 14.999-6.728 14.999-14.999s-6.728-14.999-14.999-14.999h-368.814c-8.271 0-14.999 6.728-14.999 14.999s6.728 14.999 14.999 14.999h200.136c8.284 0 14.999 6.717 14.999 15.002s-6.715 14.999-14.999 14.999h-142.316l14.81 85.591h223.557l14.807-85.591zM811.436 527.444c-5.642 0-10.808-3.169-13.368-8.2l-70.789-139.128-59.735 117.409c-2.56 5.030-7.726 8.197-13.371 8.197-5.642 0-10.808-3.167-13.368-8.197l-32.384-63.647h-51.702c-8.284 0-14.999-6.715-14.999-14.999s6.715-14.999 14.999-14.999h60.9c5.645 0 10.811 3.167 13.371 8.197l23.183 45.565 59.738-117.409c2.56-5.030 7.726-8.2 13.368-8.2 5.645 0 10.811 3.169 13.371 8.2l70.787 139.128 34.235-67.287c2.56-5.030 7.726-8.197 13.371-8.197h60.9c8.284 0 14.999 6.715 14.999 14.999s-6.715 14.999-14.999 14.999h-51.702l-43.433 85.368c-2.56 5.030-7.726 8.2-13.371 8.2zM556.726 571.878h77.837c8.284 0 15.002 6.717 15.002 15.002v157.907c0 8.284-6.717 15-15.002 15h-77.837c-8.284 0-15.002-6.716-15.002-15v-157.907c0-8.284 6.717-15.002 15.002-15.002zM571.725 729.787h47.839v-127.908h-47.839v127.908zM777.782 716.881h-77.837c-8.284 0-15.002-6.716-15.002-15.001v-114.998c0-8.284 6.717-14.999 15.002-14.999h77.837c8.284 0 14.999 6.715 14.999 14.999v114.998c0 8.285-6.715 15.001-14.999 15.001zM762.783 601.884h-47.839v84.997h47.839v-84.997zM919.944 571.884c8.284 0 15.002 6.715 15.002 14.999v197.499c0 8.284-6.717 15-15.002 15h-77.837c-8.284 0-15.002-6.716-15.002-15v-197.499c0-8.284 6.717-14.999 15.002-14.999h77.837zM857.106 769.381h47.839v-167.497h-47.839v167.497zM443.794 629.693h-340c-8.284 0-15-6.715-15-14.999s6.716-15.002 15-15.002h340c8.284 0 14.999 6.717 14.999 15.002s-6.715 14.999-14.999 14.999zM103.794 520.013h60.844c8.284 0 15 6.715 15 14.999s-6.716 15.002-15 15.002h-60.844c-8.284 0-15-6.717-15-15.002s6.716-14.999 15-14.999zM443.794 550.013h-210.425c-8.284 0-15-6.717-15-15.002s6.716-14.999 15-14.999h210.425c8.284 0 15.002 6.715 15.002 14.999s-6.717 15.002-15.002 15.002zM443.794 799.381h-340c-8.284 0-15-6.716-15-15s6.716-15 15-15h340c8.284 0 14.999 6.716 14.999 15s-6.715 15-14.999 15zM103.794 689.695h210.843c8.284 0 15.002 6.715 15.002 14.999s-6.717 15-15.002 15h-210.843c-8.284 0-15-6.716-15-15s6.716-14.999 15-14.999zM443.794 719.694h-60.426c-8.284 0-14.999-6.716-14.999-15s6.715-14.999 14.999-14.999h60.426c8.284 0 15.002 6.715 15.002 14.999s-6.717 15-15.002 15zM458.793 456.3c0 8.284-6.715 15.002-14.999 15.002h-340c-8.284 0-15-6.717-15-15.002s6.716-14.999 15-14.999h340c8.284 0 14.999 6.715 14.999 14.999zM103.794 392.038c-8.284 0-15-6.717-15-15.002s6.716-14.999 15-14.999h159.999c8.284 0 15.002 6.715 15.002 14.999s-6.717 15.002-15.002 15.002h-159.999z" />
<glyph unicode="&#xe91c;" glyph-name="29" d="M976 464h-32c-12.731 0-24.94-5.056-33.94-14.060-9.004-9.001-14.060-21.21-14.060-33.94h-64l76.8 102.4c2.076 2.77 3.2 6.139 3.2 9.6v160c0 4.244-1.684 8.312-4.687 11.313-3 3.003-7.068 4.687-11.313 4.687h-66.944c-3.773 10.675-11.2 19.673-20.966 25.402-9.769 5.729-21.245 7.821-32.404 5.907-11.162-1.915-21.284-7.713-28.582-16.37s-11.302-19.616-11.302-30.939c0-11.323 4.004-22.282 11.302-30.938 7.299-8.658 17.421-14.456 28.582-16.371 11.159-1.915 22.636 0.177 32.404 5.906 9.766 5.729 17.193 14.728 20.966 25.403h50.944v-138.673l-88-117.327h-56v144c0 4.244-1.684 8.312-4.687 11.313-3 3.003-7.068 4.687-11.313 4.687h-50.944c-3.773 10.675-11.2 19.674-20.966 25.403-9.769 5.729-21.245 7.821-32.404 5.906-11.162-1.915-21.284-7.713-28.582-16.371-7.299-8.655-11.302-19.615-11.302-30.938s4.004-22.282 11.302-30.938c7.299-8.658 17.421-14.456 28.582-16.371 11.159-1.915 22.636 0.177 32.404 5.906 9.766 5.729 17.193 14.728 20.966 25.403h34.944v-128h-64c0 12.731-5.056 24.94-14.060 33.94-9.001 9.004-21.21 14.060-33.94 14.060h-16c0 12.731-5.056 24.94-14.060 33.94-9.001 9.004-21.21 14.060-33.94 14.060v16c0 12.731-5.056 24.94-14.060 33.94-9.001 9.004-21.21 14.060-33.94 14.060v192h128v-34.944c-10.675-3.774-19.674-11.201-25.403-20.968s-7.821-21.244-5.906-32.403c1.915-11.162 7.713-21.284 16.371-28.582 8.655-7.299 19.615-11.302 30.938-11.302s22.282 4.004 30.938 11.302c8.658 7.299 14.456 17.421 16.371 28.582 1.915 11.159-0.177 22.636-5.906 32.403s-14.728 17.193-25.403 20.968v50.944c0 4.243-1.684 8.313-4.687 11.314-3 3.001-7.068 4.686-11.313 4.686h-144v32c12.731 0 24.94 5.057 33.94 14.059 9.004 9.002 14.060 21.211 14.060 33.941v32c0 4.243-1.684 8.313-4.687 11.314-3 3.001-7.068 4.686-11.313 4.686h-416c-4.243 0-8.313-1.686-11.314-4.686s-4.686-7.070-4.686-11.314v-32c0-12.73 5.057-24.939 14.059-33.941s21.211-14.059 33.941-14.059v-256c-12.73 0-24.939-5.056-33.941-14.060-9.002-9.001-14.059-21.21-14.059-33.94v-16c-12.73 0-24.939-5.056-33.941-14.060-9.002-9.001-14.059-21.21-14.059-33.94v-448c0-12.731 5.057-24.94 14.059-33.94 9.002-9.004 21.211-14.060 33.941-14.060h448c12.731 0 24.94 5.056 33.94 14.060 9.004 9.001 14.060 21.21 14.060 33.94h16c12.731 0 24.94 5.056 33.94 14.060 9.004 9.001 14.060 21.21 14.060 33.94h256c0-12.731 5.056-24.94 14.060-33.94 9.001-9.004 21.21-14.060 33.94-14.060h32c4.244 0 8.312 1.684 11.313 4.687 3.003 3 4.687 7.068 4.687 11.313v416c0 4.244-1.684 8.312-4.687 11.313-3 3.003-7.068 4.687-11.313 4.687zM784 672c-3.164 0-6.257 0.94-8.888 2.696-2.632 1.759-4.682 4.257-5.893 7.181s-1.528 6.141-0.911 9.244c0.617 3.105 2.14 5.955 4.38 8.192 2.237 2.24 5.087 3.763 8.192 4.38 3.103 0.617 6.321 0.3 9.244-0.911s5.422-3.261 7.181-5.893c1.756-2.629 2.696-5.724 2.696-8.888 0-4.244-1.684-8.312-4.687-11.313-3-3.003-7.068-4.687-11.313-4.687zM624 544c-3.164 0-6.257 0.94-8.888 2.696-2.632 1.759-4.682 4.257-5.893 7.181s-1.528 6.141-0.911 9.244c0.617 3.105 2.14 5.955 4.38 8.192 2.237 2.24 5.087 3.763 8.192 4.38 3.103 0.617 6.321 0.3 9.244-0.911s5.422-3.261 7.181-5.893c1.756-2.629 2.696-5.724 2.696-8.888 0-4.244-1.684-8.312-4.687-11.313-3-3.003-7.068-4.687-11.313-4.687zM624 672c-3.164 0-6.257 0.94-8.888 2.696-2.632 1.759-4.682 4.257-5.893 7.181s-1.528 6.141-0.911 9.244c0.617 3.105 2.14 5.955 4.38 8.192 2.237 2.24 5.087 3.763 8.192 4.38 3.103 0.617 6.321 0.3 9.244-0.911s5.422-3.261 7.181-5.893c1.756-2.629 2.696-5.724 2.696-8.888 0-4.244-1.684-8.312-4.687-11.313-3-3.003-7.068-4.687-11.313-4.687zM112 880v16h384v-16c0-4.243-1.684-8.313-4.687-11.314-3-3.001-7.068-4.686-11.313-4.686h-352c-4.243 0-8.313 1.686-11.314 4.686s-4.686 7.070-4.686 11.314zM160 832h288v-256h-288v256zM112 528c0 4.244 1.686 8.312 4.686 11.313 3.001 3.003 7.070 4.687 11.314 4.687h352c4.244 0 8.312-1.684 11.313-4.687 3.003-3 4.687-7.068 4.687-11.313v-16h-384v16zM544 16c0-4.244-1.684-8.312-4.687-11.313-3-3.003-7.068-4.687-11.313-4.687h-448c-4.243 0-8.313 1.684-11.314 4.687-3.001 3-4.686 7.068-4.686 11.313v448c0 4.244 1.686 8.312 4.686 11.313 3.001 3.003 7.070 4.687 11.314 4.687h448c4.244 0 8.312-1.684 11.313-4.687 3.003-3 4.687-7.068 4.687-11.313v-448zM608 64c0-4.244-1.684-8.312-4.687-11.313-3-3.003-7.068-4.687-11.313-4.687h-16v384h16c4.244 0 8.312-1.684 11.313-4.687 3.003-3 4.687-7.068 4.687-11.313v-352zM640 96v288h256v-288h-256zM960 48h-16c-4.244 0-8.312 1.684-11.313 4.687-3.003 3-4.687 7.068-4.687 11.313v352c0 4.244 1.684 8.312 4.687 11.313 3 3.003 7.068 4.687 11.313 4.687h16v-384zM827.313 315.313l-48 48-22.625-22.625 20.687-20.687h-57.375v-32h57.375l-20.687-20.687 22.625-22.625 48 48-0.113 0.113c1.528 1.449 2.747 3.192 3.581 5.125 0.837 1.933 1.272 4.014 1.28 6.118 0.010 2.107-0.407 4.191-1.226 6.131-0.819 1.938-2.022 3.692-3.538 5.153l0.015-0.015zM779.313 212.687l-22.625 22.625-48-48c-1.51-1.462-2.711-3.215-3.528-5.153-0.817-1.94-1.231-4.024-1.221-6.126 0.010-2.104 0.445-4.183 1.283-6.113 0.835-1.93 2.053-3.674 3.579-5.12l-0.097-0.095 48-48 22.625 22.623-20.705 20.672h57.377v32h-57.377l20.69 20.687zM251.203 763.2c-1.448 1.528-3.192 2.747-5.124 3.582s-4.014 1.271-6.119 1.28c-2.105 0.009-4.191-0.409-6.13-1.228s-3.693-2.023-5.154-3.539l-48-48 22.624-22.624 20.704 20.704v-57.376h31.999v57.376l20.687-20.688 22.625 22.625-48 48-0.112-0.112zM427.313 692.687l-22.625 22.625-20.687-20.689v57.377h-32v-57.377l-20.687 20.689-22.625-22.625 48-48c1.462-1.51 3.215-2.711 5.153-3.528 1.94-0.817 4.024-1.231 6.126-1.221 2.104 0.010 4.183 0.445 6.113 1.283 1.93 0.835 3.674 2.053 5.12 3.579l0.095-0.095 48.018 47.982zM242.448 424.509c-11.712-18.624-114.448-183.903-114.448-248.512 0-33.948 13.486-66.504 37.49-90.509s56.562-37.491 90.51-37.491c33.948 0 66.506 13.486 90.509 37.491 24.005 24.005 37.491 56.561 37.491 90.509 0 64.609-102.735 229.888-114.447 248.512-1.539 2.161-3.571 3.922-5.929 5.135-2.358 1.216-4.972 1.848-7.624 1.848s-5.266-0.632-7.623-1.848c-2.357-1.213-4.39-2.975-5.929-5.135zM256 79.997c-25.453 0.026-49.856 10.148-67.854 28.145-17.998 17.999-28.121 42.401-28.146 67.855 0 41.039 60.432 150.208 96 209.393 35.569-59.2 96-168.335 96-209.393-0.026-25.454-10.148-49.856-28.145-67.855-17.999-17.997-42.401-28.119-67.855-28.145zM427.904 458.685c-1.539 1.605-3.387 2.883-5.432 3.756-2.048 0.873-4.247 1.321-6.472 1.321s-4.424-0.448-6.472-1.321c-2.045-0.873-3.894-2.15-5.432-3.756-8.704-9.695-52.096-59.63-52.096-90.688 0-16.973 6.743-33.252 18.744-45.253 12.004-12.004 28.283-18.747 45.256-18.747s33.252 6.743 45.256 18.747c12.001 12.001 18.744 28.28 18.744 45.253 0 31.058-43.392 80.993-52.096 90.688zM416 335.997c-8.486 0-16.627 3.372-22.628 9.375-6.001 6.001-9.372 14.139-9.372 22.625 0 10.194 15.025 34.002 32 55.217 17.009-21.312 32-45.297 32-55.217 0-8.486-3.372-16.625-9.372-22.625-6.001-6.003-14.141-9.375-22.628-9.375zM512 64h-32v-32h32v32zM128 448h-32v-32h32v32z" />
<glyph unicode="&#xe91d;" glyph-name="30" d="M779.973 297.651l0.361 1.039c2.619 9.828 6.707 19.205 12.127 27.812 6.881 7.181 14.83 13.258 23.562 18.020 17.615 8.986 32.236 22.897 42.084 40.044 6.868 18.424 8.387 38.415 4.378 57.667-1.841 10.237-2.115 20.698-0.814 31.020 3.1 9.395 7.601 18.266 13.356 26.312 12.111 15.99 19.389 35.11 20.974 55.104-1.592 19.983-8.863 39.096-20.959 55.084-5.763 8.051-10.273 16.932-13.376 26.335-1.298 10.314-1.024 20.767 0.814 30.999 4.006 19.249 2.496 39.237-4.355 57.666-9.853 17.13-24.463 31.033-42.063 40.021-8.742 4.773-16.696 10.866-23.583 18.063-5.425 8.608-9.518 17.984-12.147 27.812-4.539 19.24-14.495 36.778-28.685 50.541-16.141 11.092-35.192 17.177-54.771 17.493-9.946 0.44-19.758 2.436-29.084 5.916-8.32 5.266-15.795 11.763-22.167 19.27-12.408 15.581-29.13 27.165-48.077 33.308-19.172 2.712-38.717-0.265-56.21-8.563-9.316-4.089-19.215-6.692-29.338-7.714-10.115 1.018-20.006 3.619-29.312 7.708-17.495 8.311-37.053 11.28-56.228 8.533-18.939-6.12-35.656-17.682-48.064-33.244-6.362-7.518-13.837-14.017-22.167-19.27-9.326-3.48-19.141-5.476-29.084-5.916-19.581-0.316-38.633-6.401-54.771-17.494-14.195-13.771-24.156-31.314-28.709-50.56-2.618-9.829-6.706-19.205-12.126-27.812-6.882-7.182-14.829-13.26-23.563-18.020-17.614-8.984-32.236-22.897-42.084-40.043-6.868-18.425-8.385-38.416-4.376-57.665 1.838-10.24 2.112-20.7 0.813-31.022-3.099-9.393-7.602-18.266-13.355-26.312-12.113-15.99-19.392-35.116-20.975-55.114 1.592-19.983 8.863-39.094 20.958-55.081 5.764-8.051 10.274-16.932 13.376-26.335 1.301-10.317 1.027-20.774-0.813-31.009-4.006-19.249-2.497-39.237 4.354-57.667 9.853-17.129 24.464-31.032 42.063-40.020 8.743-4.774 16.698-10.867 23.584-18.063 5.423-8.609 9.517-17.984 12.145-27.812l0.395-1.137c-0.068-0.11-0.184-0.169-0.25-0.282l-110.042-190.595c-4.022-6.958-5.996-14.912-5.694-22.943 0.302-8.033 2.868-15.816 7.402-22.454s10.85-11.858 18.222-15.060c7.372-3.203 15.499-4.257 23.444-3.044l74.27 11.292 27.376-70.019c2.895-7.501 7.869-14.021 14.336-18.798s14.159-7.616 22.18-8.182c1.103-0.082 2.207-0.125 3.313-0.125 7.48-0.018 14.83 1.946 21.304 5.693s11.84 9.144 15.549 15.639l113.979 197.445c4.531 1.459 8.942 3.062 13.207 4.618 9.318 4.088 19.218 6.689 29.34 7.708 10.115-1.019 20.006-3.62 29.312-7.708 4.268-1.562 8.727-3.11 13.261-4.572l0.095-0.282 113.853-197.21c3.709-6.495 9.075-11.891 15.547-15.639 6.474-3.748 13.827-5.711 21.307-5.693 1.103 0 2.207 0.044 3.313 0.125 8.026 0.568 15.724 3.407 22.195 8.189 6.469 4.782 11.446 11.305 14.346 18.811l27.354 69.998 74.24-11.292c7.949-1.221 16.079-0.172 23.455 3.028 7.378 3.203 13.699 8.422 18.237 15.060 4.536 6.638 7.107 14.423 7.409 22.459 0.305 8.036-1.669 15.992-5.693 22.953l-110.257 190.984zM318.523 0.003l-33.564 85.896c-1.777 4.5-5.025 8.266-9.219 10.683-4.191 2.419-9.078 3.346-13.862 2.629l-91.149-13.875 96.876 167.803c1.482-1.756 3.069-3.423 4.749-4.989 16.138-11.092 35.192-17.178 54.771-17.492 9.946-0.44 19.758-2.437 29.084-5.916 8.32-5.266 15.795-11.763 22.167-19.269 11.19-13.194 25.224-23.683 41.047-30.676l-100.9-174.792zM555.948 220.815c-13.937 5.967-28.81 9.449-43.948 10.291-15.137-0.832-30.013-4.314-43.948-10.291-9.943-4.854-20.895-7.281-31.956-7.084-10.575 4.841-19.835 12.15-27 21.312-9.623 11.228-21.138 20.685-34.020 27.948-13.732 5.855-28.38 9.265-43.284 10.076-11.315 0.015-22.454 2.806-32.438 8.128-7.439 9.011-12.654 19.643-15.229 31.040-3.96 14.497-10.383 28.204-18.988 40.522-9.756 11.236-21.404 20.677-34.417 27.894-10.423 5.128-19.438 12.723-26.261 22.124-2.893 11.318-3.079 23.158-0.542 34.56 2.53 14.948 2.558 30.211 0.083 45.166-3.975 14.208-10.352 27.628-18.854 39.68-7.404 9.487-12.374 20.639-14.479 32.486 2.102 11.848 7.073 22.999 14.479 32.481 8.511 12.050 14.888 25.472 18.854 39.68 2.475 14.958 2.447 30.223-0.083 45.174-2.542 11.402-2.349 23.245 0.563 34.559 6.816 9.423 15.835 17.033 26.27 22.167 13.019 7.209 24.674 16.643 34.438 27.874 8.584 12.316 14.989 26.015 18.939 40.499 2.586 11.402 7.808 22.040 15.247 31.059 9.987 5.32 21.125 8.111 32.438 8.126 14.909 0.814 29.56 4.227 43.292 10.084 12.892 7.249 24.407 16.708 34.020 27.947 7.165 9.155 16.425 16.457 27 21.29 11.054 0.177 21.996-2.249 31.939-7.082 13.932-5.968 28.803-9.452 43.937-10.296 15.137 0.831 30.013 4.314 43.948 10.291 9.951 4.831 20.897 7.257 31.956 7.083 10.575-4.841 19.835-12.15 27-21.312 9.623-11.227 21.138-20.685 34.020-27.947 13.732-5.854 28.38-9.265 43.284-10.078 11.315-0.015 22.454-2.805 32.438-8.126 7.439-9.011 12.654-19.645 15.229-31.042 3.96-14.495 10.383-28.201 18.988-40.52 9.756-11.236 21.404-20.677 34.417-27.896 10.424-5.128 19.438-12.721 26.26-22.122 2.895-11.317 3.080-23.157 0.543-34.559-2.529-14.948-2.557-30.211-0.084-45.169 3.976-14.205 10.353-27.625 18.854-39.68 7.404-9.485 12.375-20.639 14.479-32.486-2.102-11.845-7.073-22.996-14.479-32.479-8.509-12.050-14.886-25.472-18.854-39.68-2.473-14.958-2.445-30.223 0.084-45.174 2.542-11.402 2.35-23.245-0.563-34.56-6.815-9.423-15.836-17.034-26.271-22.167-13.018-7.209-24.673-16.643-34.437-27.873-8.584-12.319-14.989-26.017-18.939-40.499-2.586-11.405-7.808-22.044-15.247-31.066-9.987-5.32-21.125-8.11-32.438-8.125-14.909-0.814-29.56-4.227-43.292-10.084-12.892-7.247-24.407-16.709-34.020-27.948-7.165-9.155-16.425-16.456-27-21.289-11.052-0.164-21.985 2.266-31.928 7.091zM762.132 99.215c-4.785 0.709-9.669-0.22-13.857-2.637-4.191-2.417-7.442-6.18-9.224-10.675l-33.572-85.901-100.908 174.792c15.816 6.986 29.844 17.464 41.032 30.648 6.362 7.519 13.837 14.016 22.167 19.269 9.326 3.482 19.141 5.476 29.084 5.916 19.581 0.317 38.633 6.403 54.771 17.492 1.69 1.574 3.282 3.249 4.769 5.012l96.876-167.798-91.139 13.88zM768 554.668c0 50.634-15.014 100.129-43.144 142.226-28.129 42.1-68.111 74.912-114.89 94.288-46.776 19.376-98.25 24.446-147.909 14.568s-95.273-34.259-131.077-70.062c-35.802-35.802-60.183-81.416-70.062-131.077-9.877-49.659-4.808-101.13 14.569-147.909s52.188-86.758 94.287-114.89c42.099-28.129 91.594-43.144 142.226-43.144 67.873 0.074 132.943 27.069 180.938 75.064 47.992 47.992 74.988 113.065 75.062 180.936zM512 341.335c-42.194 0-83.438 12.513-118.523 35.953-35.082 23.442-62.426 56.76-78.572 95.741s-20.372 81.876-12.14 123.259c8.23 41.382 28.549 79.396 58.383 109.23 29.837 29.835 67.848 50.153 109.23 58.385 41.385 8.232 84.278 4.007 123.259-12.14s72.3-43.49 95.741-78.573c23.442-35.082 35.953-76.329 35.953-118.523-0.067-56.558-22.564-110.781-62.556-150.774-39.995-39.995-94.218-62.492-150.776-62.559zM609.167 636.419c2.332-1.554 4.334-3.551 5.896-5.878 1.559-2.327 2.644-4.941 3.195-7.688 0.548-2.747 0.55-5.576 0.008-8.325-0.545-2.749-1.628-5.363-3.182-7.693l-85.335-128c-1.751-2.624-4.063-4.828-6.769-6.451s-5.737-2.627-8.876-2.936c-0.709-0.069-1.418-0.113-2.104-0.113-5.658 0.003-11.082 2.25-15.084 6.252l-64 64c-3.886 4.022-6.036 9.411-5.988 15.004s2.294 10.947 6.249 14.902c3.955 3.955 9.306 6.198 14.899 6.246s10.982-2.102 15.007-5.988l45.604-45.604 70.894 106.355c3.141 4.705 8.020 7.972 13.568 9.080 5.548 1.111 11.31-0.028 16.018-3.164z" />
<glyph unicode="&#xe91e;" glyph-name="32" d="M739.556 106.667v-113.778h-625.778v113.778h625.778zM1024 504.889v-113.778h-1024v113.778h1024zM910.222 903.111v-113.778h-625.778v113.778h625.778z" />
<glyph unicode="&#xe91f;" glyph-name="33" d="M357.978 412.067h314.799v-78.701h-314.799v78.701zM790.817 766.213h-78.701v78.7h-78.697v-78.7h-236.102v78.7h-78.7v-78.7h-78.7c-43.403 0-78.7-35.297-78.7-78.7v-550.903c0-43.4 35.297-78.697 78.7-78.697h550.9c43.404 0 78.701 35.297 78.701 78.697v550.903c0 43.403-35.297 78.7-78.701 78.7zM790.898 136.611h-550.98v472.202h550.9l0.080-472.202z" />
<glyph unicode="&#xe920;" glyph-name="34" d="M1015.047-11.727c0 134.232-52.278 260.418-147.188 355.333-25.629 25.624-53.541 48.108-83.266 67.33v-180.648c32.241-12.503 55.179-43.832 55.179-80.433 0-47.553-38.688-86.24-86.245-86.24-47.553 0-86.231 38.688-86.231 86.24 0 37.508 24.079 69.486 57.578 81.32v212.807c-7.417 3.462-14.916 6.744-22.494 9.826-5.866-4.481-11.898-8.763-18.086-12.834l-141.917-199.509v-305.469h472.669v52.278zM613.040 31.417c-16.735 0-29.135 13.683-29.852 29.862-0.727 16.126 14.238 29.857 29.852 29.857 16.74 0 29.13-13.678 29.857-29.857 0.727-16.126-14.243-29.862-29.857-29.862zM341.039 440.778c-6.289 4.125-12.414 8.475-18.383 13.029-4.391-1.785-8.765-3.633-13.109-5.544v-209.925c65.492-14.941 114.516-73.621 114.516-143.57v-52.536h-59.711v52.536c0 48.289-39.289 87.581-87.578 87.581-48.297 0-87.586-39.292-87.586-87.581v-55.71h-59.719v55.71c0 72.016 51.969 132.086 120.367 144.784v177.298c-33.25-20.47-64.352-44.949-92.649-73.245-94.914-94.915-147.187-221.111-147.187-355.333v-52.278h472.656v305.508l-141.617 199.275zM579.618 396.82c-21.626-4.735-44.071-7.256-67.101-7.256-22.991 0-45.399 2.516-66.993 7.236l66.998-94.32 67.096 94.34zM753.523 176.382c-14.624 0-26.522-11.908-26.522-26.526 0-14.629 11.898-26.526 26.522-26.526s26.526 11.903 26.526 26.526c0 14.629-11.903 26.526-26.526 26.526zM512.512 451.272c140.254 0 254.366 114.103 254.366 254.361s-114.113 254.367-254.366 254.367c-140.252 0-254.369-114.109-254.369-254.367s114.109-254.361 254.369-254.361z" />
<glyph unicode="&#xe921;" glyph-name="35" d="M736.934-64c-179.512 0-371.21 65.96-521.094 215.84-149.634 149.641-215.84 341.209-215.84 521.094 0 158.538 128.264 287.066 287.066 287.066 12.268 0 23.298-7.468 27.854-18.858l128.534-321.334c6.154-15.384-1.328-32.842-16.71-38.996l-141.194-56.476c9.988-162.435 140.376-292.814 302.787-302.791l56.476 141.195c6.139 15.36 23.591 22.869 38.995 16.711l321.331-128.532c11.391-4.554 18.861-15.584 18.861-27.853 0-158.54-128.263-287.066-287.066-287.066z" />
<glyph unicode="&#xe922;" glyph-name="36" d="M152 600c0-177.834 135.762-370.77 255.556-537.497 28.476-39.609 55.752-77.546 79.482-113.142 5.565-8.353 14.942-13.361 24.962-13.361 10.016 0 19.393 5.008 24.956 13.361 23.732 35.596 51.010 73.533 79.482 113.142 119.798 166.727 255.561 359.663 255.561 537.497 0 198.516-161.485 360-359.999 360-198.516 0-360-161.484-360-360zM692 600c0-99.258-80.74-179.999-180-179.999-99.258 0-180 80.741-180 179.999s80.742 180 180 180c99.26 0 180-80.742 180-180zM512 480c66.272 0 119.998 53.726 119.998 120s-53.726 120-119.998 120c-66.274 0-120-53.725-120-120s53.726-120 120-120z" />
<glyph unicode="&#xe923;" glyph-name="37" d="M511.656 391.582c-124.802 4.069-154.734 110.925-161.141 145.423-12.015 2.783-22.721 9.584-30.347 19.276-8.706 11.998-12.745 26.756-11.36 41.513-0.989 7.953-0.299 16.023 2.028 23.692s6.237 14.763 11.477 20.825c2.959 3.032 6.36 5.598 10.088 7.611-23.196 37.449-34.621 80.997-32.796 125.011 14.447 103.23 97.64 113.276 123.697 113.858 11.992 13.948 26.984 25.004 43.852 32.339 31.599 12.746 66.523 14.692 99.343 5.535 64.512-16.841 107.533-49.138 127.944-96.007 29.060-66.616 3.571-143.291-11.070-177.72 5.583-1.814 10.73-4.769 15.111-8.676 5.962-6.053 10.455-13.394 13.133-21.458s3.467-16.634 2.31-25.051c1.397-14.758-2.637-29.518-11.347-41.513-7.635-9.69-18.343-16.489-30.36-19.276-6.407-34.456-36.269-141.312-160.561-145.381zM355.524 627.795c-4.908 0.229-9.708-1.481-13.367-4.76-2.533-3.547-4.337-7.562-5.309-11.811s-1.091-8.649-0.351-12.944c0.057-0.924 0.026-1.851-0.096-2.768-0.752-7.942 1.298-15.898 5.798-22.487 2.806-3.134 6.21-5.676 10.012-7.478s7.925-2.825 12.128-3.011c3.163-0.374 6.103-1.829 8.318-4.117 2.216-2.289 3.574-5.274 3.846-8.448 0.456-5.148 12.731-126.713 135.181-130.726 121.773 4.013 134.103 125.578 134.56 130.754 0.277 3.17 1.637 6.146 3.853 8.43 2.215 2.283 5.15 3.734 8.309 4.107 4.203 0.184 8.327 1.208 12.13 3.009 3.802 1.802 7.207 4.345 10.012 7.48 4.518 6.622 6.571 14.619 5.798 22.597-0.116 0.89-0.148 1.788-0.098 2.684 0.748 4.437 0.58 8.98-0.492 13.349-1.074 4.369-3.029 8.474-5.748 12.058-4.323 3.184-9.7 4.59-15.028 3.93-2.56-0.453-5.198-0.178-7.608 0.798s-4.498 2.611-6.022 4.719c-1.524 2.107-2.423 4.602-2.594 7.196s0.393 5.187 1.626 7.476c0.512 0.968 51.2 97.169 18.626 171.934-16.869 38.636-53.692 65.606-109.472 80.163-26.809 7.587-55.373 6.128-81.269-4.151-14.733-6.348-27.575-16.396-37.28-29.17-1.397-1.9-3.261-3.408-5.411-4.378s-4.514-1.368-6.863-1.157c-3.584 0.291-88.313 5.77-101.597-88.949 0 0-3.834-75.347 39.812-121.012 1.902-1.988 3.167-4.498 3.635-7.209s0.118-5.502-1.007-8.012c-1.036-2.576-2.864-4.756-5.219-6.226s-5.116-2.154-7.885-1.953l-0.928 0.083zM662.568 627.463c-3.572-0.002-7.006 1.375-9.585 3.846s-4.103 5.843-4.253 9.411c-0.166 3.584-4.456 87.178-66.864 95.217-28.545-3.624-57.531-1.364-85.169 6.641-27.637 8.005-53.343 21.588-75.531 39.909-17.643-13.271-58.299-53.608-50.48-139.637 0.102-3.522-1.141-6.95-3.478-9.585-2.337-2.637-5.592-4.283-9.1-4.602s-7.006 0.712-9.78 2.883c-2.775 2.17-4.618 5.317-5.152 8.799-11.471 126.215 69.577 170.025 73.022 171.825 2.565 1.339 5.486 1.84 8.349 1.432 2.865-0.407 5.53-1.702 7.62-3.702 19.723-17.864 43.073-31.259 68.45-39.267s52.186-10.44 78.591-7.131c1.267 0.205 2.555 0.252 3.833 0.139 70.352-7.32 91.842-82.903 93.364-121.773 0.143-3.662-1.173-7.23-3.658-9.923s-5.937-4.29-9.599-4.441l-0.58-0.041zM900.69-36.324h-777.382c-3.67 0-7.19 1.458-9.785 4.052s-4.053 6.115-4.053 9.785v154.264c0.099 48.757 19.529 95.484 54.030 129.936s81.257 53.815 130.014 53.844h26.568c3.671 0 7.19-1.458 9.785-4.053s4.053-6.115 4.053-9.784c0-3.671-1.458-7.19-4.053-9.785s-6.115-4.053-9.785-4.053h-26.568c-41.42-0.021-81.14-16.467-110.452-45.73s-45.824-68.955-45.915-110.374v-140.427h749.706v140.427c-0.048 41.387-16.51 81.065-45.774 110.33-29.266 29.264-68.943 45.726-110.331 45.774h-28.478c-3.669 0-7.189 1.458-9.784 4.053s-4.053 6.115-4.053 9.785c0 3.669 1.458 7.19 4.053 9.784 2.595 2.595 6.115 4.053 9.784 4.053h28.478c48.72-0.069 95.426-19.454 129.876-53.905s53.836-81.154 53.905-129.875v-154.264c0-3.671-1.458-7.19-4.053-9.785s-6.115-4.052-9.785-4.052zM558.245-36.324c-1.992 0-3.959 0.429-5.77 1.259s-3.421 2.042-4.72 3.551c-1.3 1.509-2.258 3.282-2.809 5.196-0.552 1.914-0.684 3.924-0.386 5.894l56.002 370.619c0.296 1.96 1.011 3.835 2.094 5.495 1.085 1.66 2.512 3.068 4.189 4.129 1.676 1.059 3.56 1.748 5.525 2.016s3.964 0.112 5.862-0.46l96.644-29.129c1.925-0.58 3.7-1.573 5.202-2.909s2.695-2.983 3.496-4.827c0.801-1.843 1.19-3.84 1.141-5.85s-0.535-3.984-1.425-5.787l-38.415-77.077 22.279-25.005c1.975-2.231 3.176-5.041 3.426-8.010 0.249-2.97-0.467-5.94-2.042-8.47l-138.53-224.076c-1.24-2.005-2.971-3.66-5.030-4.808s-4.375-1.751-6.733-1.752zM625.552 330.268l-43.52-288.007 97.598 157.752-21.628 24.285c-1.84 2.064-3.020 4.631-3.388 7.372-0.367 2.74 0.095 5.527 1.326 8.003l35.259 70.766-65.647 19.83zM464.166-36.325c-2.36-0.001-4.68 0.601-6.741 1.749s-3.794 2.804-5.035 4.81l-138.573 224.034c-1.575 2.531-2.291 5.5-2.041 8.47s1.451 5.78 3.424 8.012l22.279 25.005-38.413 77.077c-0.89 1.802-1.376 3.777-1.425 5.787s0.34 4.006 1.141 5.849c0.801 1.844 1.993 3.491 3.495 4.827s3.277 2.33 5.202 2.91l96.644 29.128c1.898 0.569 3.896 0.724 5.859 0.455 1.964-0.269 3.846-0.958 5.52-2.018s3.101-2.467 4.184-4.126c1.084-1.659 1.798-3.533 2.094-5.492l56.030-370.619c0.29-1.963 0.154-3.966-0.399-5.871s-1.507-3.671-2.801-5.175c-1.293-1.504-2.896-2.712-4.698-3.543s-3.762-1.263-5.745-1.27zM342.78 200.053l97.598-157.751-43.52 287.965-65.647-19.788 35.245-70.767c1.232-2.473 1.697-5.26 1.332-8.001s-1.543-5.308-3.38-7.373l-21.628-24.286zM512.235 221.683c-29.92 0.021-59.813 1.832-89.517 5.424-1.842 0.169-3.632 0.706-5.263 1.577-1.631 0.873-3.071 2.063-4.234 3.501-1.164 1.438-2.027 3.095-2.538 4.873s-0.663 3.64-0.443 5.477c0.221 1.836 0.807 3.611 1.724 5.216 0.918 1.607 2.148 3.012 3.618 4.135s3.151 1.938 4.942 2.4c1.791 0.462 3.657 0.561 5.487 0.289 56.554-6.955 113.748-6.955 170.302 0 3.607 0.39 7.223-0.652 10.068-2.901 2.846-2.25 4.695-5.527 5.148-9.127 0.455-3.599-0.524-7.233-2.723-10.117s-5.443-4.792-9.033-5.309c-29.036-3.644-58.274-5.46-87.539-5.438zM614.278 334.295c-2.154 0.007-4.276 0.518-6.199 1.491-1.921 0.974-3.59 2.382-4.871 4.113-20.563 27.8-24.286 82.903-24.631 89.088-0.212 3.662 1.039 7.259 3.478 9.999s5.867 4.4 9.529 4.614c3.652 0.172 7.227-1.093 9.958-3.525s4.402-5.834 4.654-9.482c0.844-14.558 5.964-56.279 19.249-74.24 1.518-2.057 2.437-4.492 2.655-7.039s-0.273-5.104-1.42-7.389c-1.146-2.284-2.903-4.206-5.075-5.553s-4.675-2.066-7.23-2.077h-0.098zM408.133 334.295c-2.556 0.011-5.059 0.73-7.231 2.077s-3.928 3.268-5.075 5.553c-1.146 2.284-1.637 4.842-1.419 7.389 0.217 2.547 1.136 4.982 2.655 7.039 13.312 17.989 18.417 59.697 19.262 74.24 0.105 1.818 0.568 3.596 1.36 5.235s1.9 3.105 3.26 4.315c1.359 1.211 2.944 2.141 4.663 2.739 1.72 0.597 3.54 0.851 5.358 0.746 1.816-0.106 3.595-0.568 5.233-1.36 1.64-0.794 3.105-1.9 4.315-3.26 1.211-1.36 2.142-2.945 2.739-4.664 0.599-1.719 0.852-3.539 0.747-5.356-0.346-6.185-4.152-61.288-24.632-89.088-1.298-1.754-2.993-3.176-4.946-4.15s-4.108-1.473-6.29-1.454zM790.903 157.627c-3.602-0.001-7.062 1.402-9.646 3.911s-4.087 5.927-4.192 9.527c-2.587 90.112-36.849 118.466-37.182 118.743-2.859 2.27-4.713 5.571-5.163 9.194s0.539 7.278 2.755 10.178c2.2 2.878 5.448 4.771 9.037 5.269 3.588 0.497 7.228-0.441 10.129-2.611 1.826-1.384 45.069-34.968 48.1-139.97 0.104-3.666-1.251-7.223-3.768-9.89-2.516-2.667-5.989-4.226-9.655-4.335l-0.414-0.015zM790.971 75.928c-10.819-0.002-21.397 3.204-30.393 9.212-8.998 6.009-16.011 14.551-20.153 24.546s-5.227 20.994-3.118 31.606c2.109 10.612 7.318 20.361 14.967 28.011 7.65 7.652 17.396 12.862 28.008 14.975 10.611 2.111 21.61 1.029 31.606-3.111s18.54-11.151 24.552-20.146c6.011-8.997 9.22-19.573 9.22-30.392-0.015-14.501-5.781-28.404-16.033-38.658s-24.154-16.024-38.655-16.043zM790.971 157.655c-5.346 0.002-10.572-1.58-15.017-4.548-4.447-2.967-7.913-7.188-9.961-12.125s-2.584-10.373-1.543-15.616 3.614-10.060 7.394-13.841c3.779-3.781 8.594-6.356 13.837-7.4s10.676-0.51 15.616 1.535c4.94 2.046 9.161 5.509 12.131 9.954s4.556 9.671 4.556 15.016c-0.007 7.163-2.855 14.030-7.919 19.096s-11.93 7.918-19.093 7.929zM222.538 157.627c-3.506-0.009-6.885 1.313-9.454 3.7-2.569 2.386-4.135 5.658-4.385 9.155-7.541 106.206 50.979 140.15 53.47 141.547 3.196 1.804 6.979 2.264 10.514 1.279s6.537-3.333 8.34-6.53c1.804-3.196 2.264-6.978 1.279-10.514-0.984-3.535-3.333-6.535-6.53-8.34-2.103-1.245-45.664-28.132-39.479-115.49 0.258-3.661-0.947-7.275-3.354-10.046-2.405-2.772-5.814-4.474-9.474-4.732l-0.926-0.028zM194.544 46.827c-2.142-0.010-4.256 0.478-6.177 1.424s-3.596 2.326-4.893 4.029c-6.756 8.871-11.731 18.964-14.655 29.723-6.423 20.959-4.315 43.605 5.865 63.017s27.611 34.024 48.505 40.656c9.91 2.787 20.275 3.571 30.492 2.306s20.079-4.551 29.011-9.668c15.653-9.044 28.173-22.65 35.889-39 7.714-16.349 10.256-34.664 7.285-52.496-0.602-3.621-2.617-6.853-5.603-8.988s-6.697-2.995-10.318-2.394c-3.621 0.602-6.853 2.617-8.988 5.603s-2.995 6.697-2.393 10.318c2.031 12.219 0.306 24.766-4.947 35.984s-13.786 20.576-24.472 26.84c-5.762 3.327-12.13 5.472-18.729 6.311s-13.301 0.355-19.712-1.426c-13.867-4.637-25.344-14.554-31.945-27.6s-7.791-28.169-3.315-42.086c2.003-7.367 5.415-14.275 10.047-20.342 1.558-2.050 2.512-4.496 2.757-7.060 0.244-2.565-0.233-5.146-1.376-7.454s-2.907-4.251-5.096-5.61c-2.188-1.36-4.712-2.082-7.287-2.086h0.056zM312.407 75.223c-0.54 0-1.093 0-1.647 0.083l-15.595 1.841c-1.805 0.213-3.551 0.781-5.137 1.671-1.586 0.889-2.982 2.081-4.106 3.51-1.125 1.428-1.958 3.063-2.452 4.814-0.492 1.749-0.635 3.58-0.421 5.386s0.781 3.55 1.671 5.136c0.889 1.586 2.081 2.982 3.51 4.107 2.884 2.271 6.554 3.305 10.2 2.872l15.595-1.854c3.502-0.417 6.713-2.155 8.977-4.86 2.264-2.704 3.408-6.171 3.202-9.693s-1.751-6.829-4.315-9.25c-2.564-2.422-5.956-3.758-9.483-3.762zM194.548 46.703c-3.25-0.005-6.396 1.135-8.891 3.217-2.493 2.083-4.175 4.977-4.749 8.175s-0.005 6.496 1.609 9.316c1.613 2.821 4.167 4.983 7.214 6.11l16.606 6.129c1.703 0.636 3.516 0.931 5.333 0.867s3.604-0.486 5.259-1.241c1.654-0.755 3.143-1.829 4.382-3.159 1.24-1.331 2.205-2.893 2.842-4.596 0.636-1.704 0.93-3.517 0.866-5.333-0.065-1.818-0.486-3.605-1.241-5.259s-1.829-3.144-3.159-4.384c-1.331-1.24-2.893-2.205-4.596-2.84l-16.606-6.144c-1.559-0.577-3.209-0.867-4.87-0.858z" />
<glyph unicode="&#xe924;" glyph-name="38" d="M936.007 220.326h-2.606v484.073c-0.049 17.654-7.090 34.57-19.583 47.044-12.492 12.475-29.417 19.491-47.070 19.516h-331.031v58.834c-0.023 7.444-2.959 14.581-8.177 19.888-5.22 5.306-12.309 8.359-19.751 8.505h-33.512c-2.27 8.953-7.731 16.769-15.359 21.978-7.626 5.209-16.894 7.453-26.060 6.31s-17.596-5.595-23.709-12.519-9.488-15.842-9.488-25.078c0-9.236 3.374-18.155 9.488-25.078s14.544-11.375 23.709-12.518c9.166-1.143 18.433 1.1 26.060 6.309 7.628 5.21 13.089 13.026 15.359 21.978h33.512c1.263 0.002 2.512-0.254 3.674-0.75s2.208-1.225 3.079-2.139c0.87-0.914 1.546-1.996 1.986-3.179s0.634-2.445 0.571-3.706v-59.485h-283.461v59.485c0.024 2.601 1.074 5.087 2.922 6.917s4.343 2.858 6.945 2.858h33.141c2.27-8.979 7.741-16.818 15.387-22.044 7.645-5.227 16.936-7.48 26.125-6.337s17.646 5.605 23.776 12.546 9.515 15.883 9.515 25.144c0 9.261-3.384 18.203-9.515 25.144s-14.586 11.403-23.776 12.547c-9.189 1.144-18.481-1.11-26.125-6.336-7.646-5.227-13.117-13.066-15.387-22.045h-33.141c-7.539 0-14.77-2.988-20.109-8.31s-8.352-12.544-8.376-20.082v-59.485h-47.57c-17.662 0-34.6-7.010-47.098-19.49-12.497-12.479-19.53-29.41-19.555-47.070v-483.422h-2.606c-9.876 0-19.347-3.923-26.33-10.906-6.983-6.984-10.906-16.455-10.906-26.33v-52.131c0-9.876 3.923-19.346 10.906-26.33 6.983-6.983 16.454-10.906 26.33-10.906h837.818c9.876 0 19.348 3.923 26.33 10.906 6.983 6.984 10.907 16.455 10.907 26.33v52.131c0 9.876-3.924 19.346-10.907 26.33-6.983 6.983-16.455 10.906-26.33 10.906zM437.598 829.606c-3.838-0.018-7.593 1.104-10.792 3.224s-5.694 5.144-7.172 8.686c-1.476 3.542-1.869 7.443-1.124 11.207s2.59 7.223 5.304 9.937 6.172 4.559 9.936 5.304c3.764 0.744 7.665 0.353 11.208-1.124 3.541-1.477 6.565-3.973 8.686-7.172s3.243-6.955 3.224-10.792c0-2.531-0.499-5.036-1.468-7.374s-2.387-4.462-4.176-6.252-3.914-3.209-6.252-4.176c-2.337-0.969-4.843-1.468-7.374-1.468zM313.228 868.239c3.822-0.037 7.547-1.204 10.707-3.353s5.612-5.187 7.050-8.728c1.436-3.541 1.793-7.429 1.025-11.172s-2.626-7.177-5.342-9.866c-2.715-2.689-6.165-4.515-9.916-5.247-3.751-0.733-7.635-0.338-11.162 1.132-3.528 1.471-6.541 3.953-8.66 7.133s-3.251 6.916-3.251 10.738c0 2.558 0.507 5.092 1.492 7.453 0.984 2.361 2.427 4.504 4.245 6.305s3.974 3.223 6.345 4.185c2.371 0.962 4.909 1.445 7.467 1.42zM866.748 751.689c12.723 0 24.927-5.048 33.932-14.036s14.078-21.182 14.102-33.905v-483.422h-48.313v473.833c0 2.47-0.981 4.837-2.727 6.583s-4.114 2.727-6.583 2.727h-321.442v48.221h331.031zM395.335 201.708h243.525v-16.571c0-4.938-1.961-9.673-5.453-13.166-3.491-3.491-8.227-5.453-13.164-5.453h-206.29c-4.938 0-9.673 1.961-13.166 5.453-3.491 3.493-5.453 8.227-5.453 13.166v16.571zM376.716 220.326h-190.37v464.524h29.044c1.214-38.075 16.122-74.433 41.984-102.4-3.071-6.448-3.823-13.758-2.126-20.696 1.696-6.936 5.736-13.076 11.436-17.379 22.072-16.243 47.531-27.286 74.473-32.302v-52.597c-0.002-7.463 2.447-14.721 6.971-20.658s10.873-10.224 18.070-12.203v-71.68c0.123-17.737 7.242-34.709 19.811-47.226 12.57-12.516 29.57-19.564 47.309-19.613h7.168c17.833 0 34.939 7.078 47.559 19.68 12.618 12.601 19.721 29.697 19.745 47.532v72.424c0 12.888 5.12 25.249 14.234 34.361 9.112 9.114 21.472 14.232 34.36 14.232s25.248-5.119 34.361-14.232c9.112-9.112 14.232-21.474 14.232-34.361v-110.405c0.024-17.818 7.114-34.899 19.713-47.498s29.68-19.689 47.499-19.713h6.516c17.835 0 34.939 7.078 47.559 19.68s19.722 29.697 19.746 47.531v137.589c20.958 2.377 40.212 12.685 53.81 28.809s20.512 36.84 19.321 57.899c-1.191 21.058-10.395 40.862-25.726 55.35s-35.622 22.56-56.714 22.56c-21.093 0-41.385-8.071-56.715-22.56-15.33-14.487-24.535-34.292-25.726-55.35-1.191-21.059 5.722-41.776 19.321-57.899s32.852-26.431 53.81-28.809v-137.589c-0.024-12.896-5.165-25.256-14.292-34.366s-21.498-14.228-34.394-14.228h-6.516c-12.888 0-25.248 5.12-34.361 14.234-9.112 9.112-14.232 21.472-14.232 34.36v110.405c0 17.826-7.081 34.922-19.686 47.526-12.604 12.605-29.7 19.686-47.526 19.686s-34.921-7.081-47.526-19.686c-12.604-12.604-19.685-29.7-19.685-47.526v-72.424c-0.026-12.896-5.165-25.256-14.293-34.367s-21.497-14.226-34.393-14.226h-7.168c-12.888 0-25.248 5.119-34.361 14.232s-14.232 21.474-14.232 34.361v71.68c7.191 2.002 13.534 6.293 18.069 12.222s7.016 13.174 7.066 20.638v52.596c26.956 4.971 52.425 16.018 74.473 32.304 6.395 4.879 10.636 12.059 11.822 20.014 0.835 6.054-0.068 12.221-2.606 17.78 25.874 27.939 40.841 64.25 42.171 102.307h312.133v-464.524h-471.134zM375.32 443.744c-4.173 0-8.174 1.658-11.125 4.608-2.95 2.95-4.607 6.952-4.607 11.124v60.789c0.022 2.259-0.778 4.448-2.252 6.161s-3.518 2.832-5.755 3.148c-26.622 3.912-51.874 14.301-73.541 30.254-1.302 0.944-2.4 2.137-3.232 3.513-0.831 1.375-1.379 2.903-1.609 4.493-0.483 3.274 0.318 6.61 2.235 9.309 2.037 2.344 4.882 3.836 7.968 4.181s6.19-0.483 8.695-2.32c23.966-17.604 52.927-27.098 82.665-27.098s58.698 9.494 82.665 27.098c2.614 1.89 5.858 2.693 9.051 2.242s6.089-2.122 8.077-4.662c1.91-2.7 2.679-6.045 2.141-9.309-0.235-1.59-0.784-3.116-1.615-4.49s-1.927-2.57-3.226-3.517c-21.717-15.989-47.039-26.38-73.728-30.254-2.22-0.336-4.244-1.464-5.697-3.174-1.454-1.712-2.242-3.89-2.216-6.134v-60.137c0.007-4.041-1.531-7.931-4.301-10.874s-6.56-4.714-10.594-4.952zM480.792 596.413c-5.179 3.037-11.136 4.48-17.13 4.148-5.994-0.33-11.756-2.421-16.569-6.010-20.769-15.253-45.864-23.478-71.632-23.478s-50.865 8.225-71.634 23.478c-4.808 3.591-10.565 5.692-16.556 6.039-5.992 0.347-11.953-1.073-17.143-4.084-22.021 24.341-34.804 55.637-36.119 88.436h283.090c-1.378-32.847-14.224-64.173-36.306-88.53zM736.606 472.975c-15.461 0.012-30.397 5.617-42.049 15.781s-19.234 24.199-21.346 39.515c-0.421 2.836-0.639 5.698-0.652 8.565 0 12.644 3.749 25.005 10.772 35.521s17.006 18.712 28.687 23.556c11.681 4.843 24.535 6.115 36.938 3.655s23.798-8.542 32.746-17.476c8.948-8.936 15.045-20.322 17.524-32.722 2.478-12.399 1.225-25.255-3.601-36.943s-13.008-21.682-23.513-28.721c-10.506-7.038-22.861-10.804-35.506-10.823v0.093zM517.098 751.689v-48.221h-283.461v48.221h283.461zM119.414 703.748c0.025 12.723 5.096 24.917 14.101 33.905s21.21 14.036 33.933 14.036h47.57v-48.221h-37.982c-2.469 0-4.836-0.981-6.582-2.727s-2.727-4.113-2.727-6.583v-473.833h-48.314v483.422zM954.625 130.959c0-4.937-1.961-9.673-5.453-13.164-3.493-3.491-8.227-5.453-13.166-5.453h-837.818c-4.938 0-9.674 1.961-13.165 5.453s-5.453 8.227-5.453 13.164v52.131c0 4.937 1.962 9.673 5.453 13.164 3.492 3.493 8.227 5.454 13.165 5.454h278.527v-16.571c0-9.876 3.924-19.348 10.907-26.33s16.455-10.907 26.33-10.907h206.29c9.876 0 19.346 3.924 26.33 10.907 6.983 6.983 10.906 16.455 10.906 26.33v16.571h278.528c4.938 0 9.673-1.961 13.166-5.454 3.491-3.491 5.453-8.227 5.453-13.164v-52.131zM736.606 572.861c-7.102 0-14.046-2.104-19.953-6.049s-10.513-9.551-13.235-16.111c-2.722-6.561-3.439-13.781-2.060-20.749 1.379-6.967 4.792-13.371 9.807-18.399s11.41-8.459 18.375-9.856 14.186-0.699 20.754 2.008c6.567 2.705 12.186 7.296 16.145 13.193 3.959 5.898 6.083 12.835 6.101 19.939 0 9.538-3.783 18.688-10.519 25.442s-15.876 10.559-25.415 10.584zM736.606 519.613c-3.428 0-6.779 1.018-9.629 2.926-2.849 1.907-5.069 4.615-6.376 7.785s-1.646 6.656-0.97 10.017c0.677 3.362 2.334 6.446 4.765 8.865 2.431 2.417 5.525 4.059 8.889 4.716 3.366 0.657 6.85 0.301 10.012-1.024s5.86-3.558 7.751-6.418c1.892-2.859 2.892-6.216 2.873-9.644-0.024-4.576-1.86-8.956-5.104-12.183-3.245-3.228-7.635-5.040-12.211-5.040z" />
<glyph unicode="&#xe925;" glyph-name="39" d="M711.553 291.616l-6.482 1.33c25.454 12.877 46.137 28.616 61.79 47.075 32.668 38.519 43.092 87.921 31 146.8l-1.601 7.915c-26.004 128.024-48.558 239.119-112.959 305.264l11.955 67.622c0.521 2.944 0.206 5.975-0.908 8.749s-2.984 5.181-5.398 6.946c-43.986 32.214-108.521 50.682-177.057 50.682-68.386 0-132.836-18.47-176.823-50.676-2.412-1.766-4.281-4.172-5.397-6.946-1.114-2.774-1.429-5.805-0.909-8.749l11.954-67.6c-64.629-66.158-87.188-177.262-113.18-305.298l-1.599-7.902c-12-58.908-1.495-108.304 31.2-146.812 15.667-18.452 36.358-34.189 61.8-47.064l-6.462-1.33c-78.74-16.106-127.656-66.036-127.656-130.304v-183.318c0-4.244 1.686-8.313 4.687-11.314 3-3 7.069-4.686 11.313-4.686h622.142c4.244 0 8.314 1.686 11.314 4.686s4.686 7.070 4.686 11.314v183.314c-0.001 64.236-48.822 114.166-127.41 130.302zM511.894 902c57.701 0 111.714-14.098 150.061-38.924l-16.685-94.366c-63.131 17.475-203.391 17.473-266.517 0l-16.686 94.366c38.333 24.83 92.265 38.924 149.827 38.924zM257.293 480.446l1.601 7.912c22.6 111.292 42.485 209.24 89.017 270.95l2.648-14.982c0.44-2.487 1.462-4.834 2.983-6.849 1.52-2.016 3.496-3.643 5.766-4.748s4.77-1.659 7.294-1.613c2.525 0.045 5.003 0.688 7.231 1.874 42.614 22.682 233.73 22.682 276.34 0 2.23-1.186 4.707-1.829 7.231-1.874s5.024 0.507 7.294 1.613 4.246 2.732 5.767 4.748c1.52 2.015 2.542 4.362 2.982 6.849l2.637 14.902c46.33-61.719 66.214-159.626 88.799-270.861l1.616-7.957c17.801-86.569-22-145.687-118.2-175.8l-52.899 10.869v34.586c24.428 14.045 44.915 34.033 59.554 58.112 14.64 24.077 22.958 51.463 24.186 79.616h0.756c15.138 0.124 29.609 6.24 40.252 17.007 10.641 10.768 16.585 25.311 16.533 40.449-0.054 15.138-6.099 29.64-16.816 40.332s-25.231 16.706-40.369 16.725h-4.086c-4.757 22.856-13.728 35.672-26.23 51.849-10.581 13.151-19.861 27.299-27.707 42.246-1.541 2.942-3.961 5.331-6.922 6.836-2.96 1.506-6.316 2.052-9.601 1.563-77.012-11.442-109.043-38.182-137.305-61.774-26.813-22.385-48-40.068-106.843-40.726h-16.28c-15.143-0.002-29.669-6.004-40.398-16.691s-16.786-25.189-16.848-40.332c-0.062-15.144 5.877-29.695 16.518-40.469 10.641-10.775 25.117-16.895 40.26-17.022h0.823c1.217-28.119 9.506-55.475 24.103-79.538s35.029-44.054 59.404-58.124v-34.658l-52.714-10.848c-96.15 30.12-135.999 89.24-118.376 175.828zM623.526 221.2l-33.926-13.076c-3.076-1.185-5.71-3.29-7.543-6.028s-2.777-5.976-2.701-9.27l0.663-28.665-52.118-17v5.038l85.183 101.374 10.442-32.374zM426.016 208.112l-33.766 13.088 12.6 39.368 91.045-108.367v-7.658l-60.321 19.625 0.662 28.654c0.077 3.291-0.864 6.526-2.693 9.261-1.829 2.737-4.457 4.843-7.526 6.032v-0.002zM511.894 359.686c-35.846 0.039-70.212 14.296-95.559 39.642-25.345 25.346-39.603 59.713-39.642 95.557v59.541c0 6.533 0.011 12.022 0.033 16.469 59.134 3.914 85.682 26.080 111.426 47.57 24.799 20.701 50.383 42.064 110.565 52.897 7.464-12.862 15.87-25.155 25.147-36.776 15.62-20.211 23.459-30.354 23.459-80.16v-59.542c-0.071-35.875-14.37-70.257-39.759-95.603s-59.796-39.585-95.67-39.593v-0.002zM460.383 302.427v33.414c33.481-10.863 69.537-10.871 103.023-0.023v-33.388c0-3.684 1.27-7.255 3.599-10.111 2.328-2.855 5.57-4.819 9.178-5.561l19.601-4.025-83.884-99.83-83.879 99.824 19.6 4.031c3.606 0.745 6.845 2.711 9.17 5.566s3.594 6.424 3.593 10.106v-0.002zM679.010 570.306h0.492c6.665-0.020 13.052-2.673 17.77-7.383 4.716-4.709 7.381-11.092 7.412-17.758s-2.573-13.073-7.247-17.826-11.036-7.465-17.702-7.547h-0.4v34.634c-0.010 5.676-0.117 10.946-0.325 15.879zM344.695 554.427v-34.627h-0.477c-6.669 0.084-13.034 2.803-17.707 7.563s-7.273 11.175-7.233 17.844c0.040 6.671 2.716 13.054 7.445 17.757 4.73 4.704 11.127 7.346 17.797 7.351h0.2c-0.013-4.176-0.026-9.378-0.026-15.888zM216.827 161.314c0 57.563 52.726 88.86 102.088 98.956l55.919 11.51-17.657-55.201c-1.243-3.884-0.957-8.098 0.802-11.778s4.858-6.549 8.663-8.021l37.342-14.46-0.679-29.322c-0.079-3.44 0.952-6.814 2.942-9.622s4.831-4.899 8.103-5.964l81.545-26.533v-116.88h-177.564c-2.305 16.627-0.87 33.558 4.2 49.56 0.656 2.014 0.906 4.137 0.734 6.249-0.172 2.11-0.761 4.167-1.732 6.049s-2.308 3.551-3.93 4.913-3.499 2.387-5.521 3.018c-2.021 0.63-4.148 0.853-6.257 0.656s-4.157-0.812-6.027-1.808c-1.869-0.995-3.522-2.352-4.863-3.991s-2.344-3.528-2.949-5.558c-6.092-19.063-8.116-39.194-5.943-59.088h-69.214v167.314zM806.962-6h-69.126c2.093 19.901 0.041 40.019-6.025 59.088-0.616 2.018-1.625 3.892-2.968 5.519s-2.995 2.971-4.86 3.956c-1.864 0.985-3.906 1.592-6.006 1.786s-4.218-0.030-6.232-0.658c-2.014-0.629-3.883-1.648-5.5-3.001-1.619-1.353-2.953-3.013-3.927-4.884s-1.569-3.917-1.751-6.017c-0.18-2.102 0.056-4.219 0.696-6.228 5.042-16.007 6.511-32.924 4.306-49.56h-177.675v119.498l73.351 23.93c3.269 1.067 6.107 3.159 8.094 5.965s3.017 6.177 2.938 9.615l-0.677 29.305 37.554 14.471c3.816 1.471 6.923 4.347 8.684 8.037s2.043 7.914 0.788 11.805l-18.388 56.973 64.874-13.328c49.236-10.11 101.849-41.413 101.849-98.955v-167.317zM468.468 838.77c0 4.244 1.685 8.313 4.686 11.314s7.070 4.686 11.314 4.686h11.426v11.66c0 2.101 0.413 4.182 1.218 6.123 0.803 1.941 1.982 3.705 3.468 5.191s3.249 2.664 5.191 3.468c1.941 0.804 4.022 1.218 6.123 1.218s4.181-0.414 6.122-1.218c1.942-0.804 3.706-1.983 5.191-3.468s2.665-3.249 3.468-5.191c0.805-1.941 1.219-4.022 1.219-6.123v-11.66h11.661c4.244 0 8.313-1.686 11.314-4.686 3-3.001 4.686-7.070 4.686-11.314s-1.686-8.313-4.686-11.313c-3.001-3.001-7.070-4.686-11.314-4.686h-11.661v-11.426c0-4.244-1.686-8.314-4.687-11.314-3-3.001-7.069-4.686-11.313-4.686s-8.314 1.685-11.314 4.686c-3.001 3-4.686 7.070-4.686 11.314v11.426h-11.426c-4.244 0-8.314 1.685-11.314 4.686s-4.686 7.070-4.686 11.313zM705.815 112.322c0-4.244-1.686-8.313-4.686-11.314s-7.070-4.686-11.314-4.686h-65.399c-4.244 0-8.314 1.686-11.314 4.686s-4.686 7.070-4.686 11.314 1.686 8.314 4.686 11.314c3 3 7.070 4.686 11.314 4.686h65.399c4.244 0 8.314-1.686 11.314-4.686s4.686-7.070 4.686-11.314z" />
<glyph unicode="&#xe926;" glyph-name="40" d="M214 580c0-165.422 134.578-300 300-300s300 134.578 300 300c0 165.422-134.578 300-300 300s-300-134.578-300-300zM514 840c143.367 0 260.001-116.633 260.001-260s-116.634-260.001-260.001-260.001c-143.367 0-260.001 116.634-260.001 260.001s116.634 260 260.001 260zM328.78 615.656l77.524-76.383-17.836-107.352c-1.242-7.476 1.843-15.008 7.976-19.461 6.124-4.453 14.242-5.054 20.969-1.57l96.586 50.156 96.578-50.156c6.672-3.461 14.789-2.922 20.969 1.57 6.133 4.453 9.218 11.984 7.976 19.461l-17.836 107.352 77.524 76.383c5.398 5.313 7.328 13.219 4.985 20.43-2.344 7.203-8.555 12.461-16.048 13.594l-107.586 16.195-48.68 97.352c-3.383 6.774-10.312 11.056-17.882 11.056-7.579 0-14.501-4.281-17.891-11.056l-48.68-97.352-107.586-16.195c-7.492-1.125-13.703-6.39-16.048-13.594-2.343-7.211-0.406-15.117 4.985-20.43zM463.655 627.867c6.438 0.969 12 5.008 14.914 10.829l35.43 70.867 35.429-70.867c2.915-5.821 8.477-9.86 14.914-10.829l78.306-11.789-56.43-55.586c-4.634-4.57-6.758-11.109-5.695-17.531l12.984-78.132-70.296 36.5c-2.883 1.501-6.048 2.25-9.211 2.25-3.165 0-6.328-0.75-9.22-2.25l-70.296-36.5 12.984 78.132c1.070 6.422-1.054 12.961-5.695 17.531l-56.421 55.586 78.304 11.789zM534 940c0-11.047-8.953-20-20-20s-20.001 8.953-20.001 20c0 11.047 8.954 20 20.001 20s20-8.953 20-20zM419.742 948.211c-168.242-42.945-285.742-194.36-285.742-368.211 0-107.977 45.399-209.72 125.094-281.774l-120.492-212.352c-3.875-6.836-3.391-15.305 1.234-21.648 4.625-6.352 12.532-9.407 20.226-7.806l136.837 28.415 48.094-135.524c2.609-7.375 9.289-12.539 17.085-13.234 7.797-0.696 15.275 3.234 19.141 10.039l132.781 233.438 132.774-233.438c3.578-6.289 10.234-10.11 17.375-10.11 0.586 0 1.18 0.023 1.765 0.071 7.797 0.695 14.477 5.867 17.095 13.234l48.085 135.524 136.836-28.415c7.689-1.593 15.603 1.462 20.228 7.806 4.632 6.343 5.109 14.811 1.234 21.648l-120.492 212.352c79.695 72.054 125.094 173.797 125.094 281.774 0 173.851-117.5 325.266-285.735 368.211-10.711 2.734-21.594-3.727-24.329-14.43s3.727-21.594 14.43-24.328c150.516-38.422 255.642-173.899 255.642-329.453 0-189.321-153.758-340.001-340.001-340.001-186.375 0-340.001 150.805-340.001 340.001 0 155.554 105.117 291.031 255.634 329.453 10.702 2.734 17.163 13.625 14.437 24.328-2.734 10.703-13.618 17.164-24.329 14.43zM368.071 3.889l-39.305 110.758c-3.344 9.422-13.125 14.93-22.914 12.899l-110.648-22.977 95.359 168.063c55.602-40.422 121.438-65.047 189.9-71.141l-112.391-197.602zM722.142 127.545c-9.782 2.031-19.571-3.477-22.914-12.899l-39.297-110.758-112.399 197.602c68.469 6.094 134.298 30.719 189.907 71.141l95.36-168.063-110.657 22.977z" />
<glyph unicode="&#xe927;" glyph-name="41" d="M929.756 124.79c57.389 63.132 91.825 132.003 91.825 246.788 0 200.873-143.481 378.789-344.355 470.617l-51.653-74.61c189.395-103.306 229.569-235.309 241.048-321.397-28.696 17.218-68.871 22.957-109.045 17.218-103.306-11.479-183.656-91.827-183.656-200.873 0-51.653 22.957-103.306 57.392-143.481 40.175-40.174 86.088-57.392 143.481-57.392 63.131 0 120.524 28.696 154.963 63.131zM355.828 124.79c57.393 63.132 91.828 132.003 91.828 246.788 0 200.873-143.481 378.789-344.354 470.617l-51.653-74.61c189.395-103.306 229.569-235.309 241.048-321.397-28.696 17.218-68.871 22.957-109.046 17.218-103.306-11.479-183.655-91.827-183.655-200.873 0-51.653 22.957-103.306 57.392-143.481s86.088-57.392 143.481-57.392c63.132 0 120.524 28.696 154.959 63.131z" />
<glyph unicode="&#xe928;" glyph-name="42" d="M952.087 596.111l-282.112 41-126.11 255.667c-3.445 7-9.111 12.667-16.112 16.111-17.555 8.667-38.889 1.444-47.667-16.111l-126.111-255.667-282.111-41c-7.778-1.111-14.889-4.778-20.333-10.333-6.582-6.765-10.209-15.867-10.084-25.305s3.992-18.441 10.751-25.029l204.111-198.997-48.222-281.003c-1.131-6.537-0.407-13.261 2.088-19.405 2.495-6.15 6.663-11.474 12.030-15.371s11.72-6.212 18.337-6.684c6.617-0.472 13.233 0.922 19.1 4.016l252.334 132.665 252.332-132.665c6.889-3.669 14.888-4.887 22.556-3.556 19.337 3.334 32.336 21.669 29.002 41l-48.225 281.003 204.112 198.997c5.558 5.444 9.222 12.556 10.337 20.333 2.998 19.445-10.559 37.445-30.003 40.334z" />
<glyph unicode="&#xe929;" glyph-name="43" d="M709.059 960c2.384 0 4.768 0 7.286 0 5.843-72.215-21.718-126.173-55.219-165.248-32.87-38.805-77.882-76.441-150.678-70.731-4.858 71.18 22.752 121.137 56.205 160.122 31.027 36.332 87.91 68.662 142.406 75.857zM929.44 208.355c0-0.72 0-1.35 0-2.022-20.461-61.965-49.642-115.069-85.254-164.352-32.512-44.739-72.349-104.947-143.485-104.947-61.469 0-102.298 39.523-165.293 40.602-66.64 1.082-103.286-33.050-164.216-41.635-6.97 0-13.939 0-20.774 0-44.741 6.474-80.848 41.907-107.153 73.83-77.565 94.339-137.504 216.195-148.656 372.138 0 15.286 0 30.531 0 45.818 4.722 111.606 58.95 202.346 131.030 246.322 38.041 23.382 90.336 43.302 148.566 34.399 24.956-3.867 50.451-12.411 72.8-20.864 21.178-8.139 47.664-22.573 72.755-21.808 16.995 0.495 33.904 9.353 51.034 15.603 50.182 18.121 99.376 38.895 164.214 29.138 77.926-11.781 133.232-46.404 167.408-99.823-65.92-41.955-118.035-105.174-109.133-213.136 7.914-98.070 64.931-155.446 136.157-189.261z" />
<glyph unicode="&#xe92a;" glyph-name="44" d="M223.499 943.623c-40.062 22.143-87.099 21.631-126.905-0.32l466.533-430.375 156.73 156.727-496.357 273.968zM49.95 899.273c-11.391-18.623-17.919-39.933-17.919-62.524v-777.3c0-21.888 5.952-42.749 16.703-60.989l469.157 469.158-467.941 431.654zM927.658 554.973l-149.494 82.493-167.99-167.926 205.875-189.878 111.674 61.629c40.189 22.272 64.253 62.205 64.253 106.874-0.064 44.669-24.064 84.605-64.317 106.81zM564.922 424.227l-470.437-470.438c20.415-11.648 42.813-17.792 65.34-17.792 21.759 0 43.645 5.504 63.676 16.576l533.539 294.448-192.118 177.206z" />
<glyph unicode="&#xe92b;" glyph-name="45" d="M512 949.336c-52.742 0-104.299-15.64-148.152-44.941s-78.032-70.949-98.216-119.676c-20.183-48.727-25.464-102.344-15.175-154.073s35.687-99.244 72.981-136.538c37.294-37.294 84.81-62.692 136.538-72.981s105.346-5.009 154.073 15.175c48.729 20.183 90.374 54.363 119.679 98.216 29.299 43.853 44.941 95.411 44.941 148.152 0 70.724-28.096 138.552-78.106 188.562s-117.839 78.105-188.563 78.105zM512 522.669c-31.645 0-62.579 9.384-88.892 26.964s-46.819 42.57-58.929 71.806c-12.11 29.236-15.279 61.407-9.105 92.444s21.412 59.546 43.788 81.923c22.376 22.377 50.886 37.615 81.923 43.789s63.208 3.005 92.444-9.105c29.236-12.11 54.225-32.618 71.807-58.93s26.963-57.246 26.963-88.891c0-42.435-16.858-83.132-46.863-113.137s-70.703-46.863-113.137-46.863zM992-64v53.338c0 99.014-39.334 193.971-109.344 263.987-70.016 70.012-164.973 109.345-263.989 109.345h-213.334c-99.014 0-193.972-39.333-263.987-109.345-70.013-70.016-109.347-164.973-109.347-263.987v-53.338h106.667v53.338c0 70.72 28.095 138.554 78.104 188.563s117.837 78.099 188.562 78.099h213.334c70.722 0 138.549-28.090 188.559-78.099s78.106-117.843 78.106-188.563v-53.338h106.669z" />
<glyph unicode="&#xe92c;" glyph-name="46" d="M924.444 803.556h-853.333c-18.86 0-36.947-7.492-50.283-20.828s-20.828-31.423-20.828-50.283v-568.889c0-18.859 7.492-36.949 20.828-50.284s31.423-20.827 50.283-20.827h853.333c18.859 0 36.949 7.492 50.284 20.827s20.827 31.425 20.827 50.284v568.889c0 18.86-7.492 36.947-20.827 50.283s-31.425 20.828-50.284 20.828zM846.222 732.444l-348.444-241.067-348.444 241.067h696.889zM71.111 163.556v536.533l406.4-281.244c5.952-4.129 13.023-6.341 20.267-6.341s14.315 2.212 20.267 6.341l406.4 281.244v-536.533h-853.333z" />
<glyph unicode="&#xe92d;" glyph-name="47" d="M960 192v64h-67.229c-4.13 20.029-12.083 39.078-23.429 56.096l47.684 47.68-45.247 45.248-47.684-47.68c-17.019 11.344-36.065 19.297-56.095 23.424v67.232h-64v-67.232c-20.029-4.127-39.078-12.080-56.096-23.424l-47.68 47.68-45.248-45.248 47.68-47.68c-11.344-17.018-19.297-36.067-23.424-56.096h-67.232v-64h67.232c4.127-20.029 12.080-39.076 23.424-56.095l-47.68-47.684 45.248-45.247 47.68 47.684c17.018-11.346 36.067-19.299 56.096-23.429v-67.229h64v67.229c20.029 4.13 39.076 12.083 56.095 23.429l47.684-47.684 45.247 45.247-47.684 47.684c11.346 17.019 19.299 36.065 23.429 56.095h67.229zM735.997 128c-18.985 0-37.547 5.632-53.331 16.179-15.787 10.547-28.092 25.539-35.358 43.083s-9.167 36.844-5.463 55.467c3.704 18.623 12.847 35.727 26.273 49.153s30.53 22.569 49.153 26.273c18.623 3.704 37.922 1.803 55.467-5.463s32.536-19.571 43.083-35.358c10.547-15.785 16.179-34.346 16.179-53.331-0.027-25.457-10.144-49.862-28.146-67.857-17.995-18.002-42.4-28.119-67.857-28.146zM448 106.653l-103.487 55.2c-46.101 24.521-84.655 61.14-111.523 105.909-26.869 44.775-41.039 96.020-40.989 148.238v416h640v-320h64v320c-0.014 16.968-6.765 33.238-18.767 45.236-11.994 11.999-28.262 18.747-45.233 18.764h-640c-16.968-0.017-33.237-6.765-45.236-18.764s-18.747-28.268-18.764-45.236v-416c-0.071-63.819 17.239-126.453 50.073-181.176 32.834-54.729 79.952-99.478 136.295-129.447l133.632-71.264v72.54z" />
<glyph unicode="&#xe92e;" glyph-name="48" d="M691.997 839.393l-332.926-332.924c-139.311-139.66-244.808-309.356-308.412-496.083-3.033-8.828-3.516-18.337-1.394-27.429 2.122-9.099 6.764-17.408 13.394-23.984l0.174-0.176c4.613-4.645 10.1-8.338 16.145-10.862 6.045-2.516 12.528-3.818 19.077-3.825 5.511 0.007 10.984 0.914 16.2 2.692 186.728 63.605 356.421 169.099 496.080 308.413l332.916 332.922c33.317 33.318 52.034 78.507 52.034 125.627s-18.717 92.308-52.034 125.627c-16.501 16.497-36.081 29.584-57.637 38.513s-44.661 13.524-67.994 13.524c-47.119 0-92.306-18.717-125.624-52.036zM565.070 300.471c-125.834-125.506-277.392-222.223-444.224-283.48 61.258 166.832 157.975 318.389 283.478 444.224l198.325 198.322 160.743-160.745-198.322-198.322zM897.997 633.393l-89.351-89.346-160.743 160.744 89.348 89.348c10.547 10.579 23.084 18.976 36.879 24.708s28.584 8.689 43.527 8.7c14.943 0.010 29.74-2.924 43.542-8.637 13.809-5.712 26.346-14.091 36.915-24.656 10.562-10.564 18.944-23.108 24.656-36.913s8.645-28.602 8.631-43.542c-0.007-14.941-2.962-29.733-8.697-43.53s-14.131-26.329-24.708-36.877z" />
<glyph unicode="&#xe92f;" glyph-name="49" d="M1011.9 694.444c0.324 14.778-3.959 29.289-12.262 41.517s-20.215 21.565-34.074 26.713c-13.85 5.148-28.962 5.851-43.238 2.011s-26.991-12.031-36.395-23.435l-372.776-435.139-372.646 435.139c-5.798 7.889-13.159 14.496-21.629 19.407s-17.865 8.020-27.592 9.133c-9.727 1.113-19.577 0.205-28.937-2.666s-18.029-7.644-25.459-14.019c-7.43-6.376-13.457-14.217-17.717-23.032s-6.652-18.415-7.029-28.199c-0.377-9.783 1.264-19.539 4.831-28.656s8.979-17.4 15.896-24.329l426.255-498.194c6.676-7.824 14.963-14.106 24.302-18.414s19.505-6.538 29.791-6.538c10.285 0 20.45 2.231 29.79 6.538s17.634 10.59 24.311 18.414l426.668 498.194c11.179 12.585 17.519 28.727 17.911 45.555z" />
<glyph unicode="&#xe930;" glyph-name="50" d="M354.834 313.144c-1.522 0-2.756-1.233-2.756-2.756s1.231-2.756 2.756-2.756c1.522 0 2.756 1.233 2.756 2.756 0 1.525-1.236 2.756-2.756 2.756z" />
<glyph unicode="&#xe931;" glyph-name="51" d="M985.006 676.382l-415.523 178.085c-36.532 15.655-78.455 15.643-115.032-0.031l-415.431-178.044c-24.067-10.312-39.020-32.984-39.020-59.166 0-26.168 14.942-48.827 38.995-59.136l49.107-21.047c-0.051-0.508-0.077-1.020-0.077-1.54v-232.387c-18.982-6.41-32.692-24.375-32.692-45.494 0-12.243 4.613-23.425 12.184-31.92-8.373-8.204-13.933-19.333-15.081-31.941l-11.765-129.425c-0.803-8.839 2.17-17.666 8.154-24.224 5.985-6.554 14.509-10.314 23.385-10.314h62.276c8.876 0 17.4 3.76 23.385 10.314 5.987 6.558 8.958 15.385 8.154 24.224l-11.765 129.425c-1.146 12.603-6.708 23.732-15.081 31.941 7.57 8.491 12.184 19.673 12.184 31.92 0 21.115-13.71 39.080-32.692 45.494v220.824l83.85-35.934c-0.051-0.508-0.078-1.020-0.078-1.54v-117.002c0-48.833 33.436-94.003 94.151-127.201 57.787-31.597 134.288-49 215.401-49s157.614 17.404 215.4 49c60.715 33.198 94.151 78.369 94.151 127.201v117.002c0 0.52-0.025 1.032-0.078 1.536l163.508 70.076c24.068 10.315 39.018 32.988 39.018 59.168 0.004 26.168-14.938 48.828-38.99 59.136zM135.24 60.781c-0.302-0.332-0.631-0.332-0.754-0.332h-62.276c-0.125 0-0.452 0-0.754 0.332-0.304 0.336-0.274 0.659-0.264 0.782l11.765 129.421c0.966 10.617 9.732 18.62 20.392 18.62 10.657 0 19.423-8.004 20.389-18.62l11.765-129.421c0.012-0.123 0.041-0.446-0.264-0.782zM103.349 240.255c-9.577 0-17.368 7.791-17.368 17.367s7.791 17.367 17.368 17.367c9.576 0 17.367-7.791 17.367-17.367s-7.791-17.367-17.367-17.367zM790.901 434.848c0-39.629-32.612-78.316-89.481-106.148-7.602-3.719-10.748-12.898-7.025-20.5 2.658-5.435 8.106-8.593 13.775-8.593 2.261 0 4.555 0.504 6.726 1.569 31.543 15.434 56.812 34.243 74.83 55.153-5.747-32.317-32.58-62.874-77.029-87.179-53.354-29.176-124.629-45.24-200.696-45.24s-147.34 16.065-200.697 45.24c-44.288 24.216-71.095 54.641-76.971 86.827 15.49-17.854 36.39-34.185 62.266-48.333 57.787-31.597 134.286-49 215.399-49 22.696 0 45.326 1.38 67.273 4.104 8.397 1.040 14.365 8.692 13.32 17.093-1.040 8.401-8.684 14.369-17.093 13.324-20.697-2.568-42.062-3.871-63.5-3.871-76.063 0-147.338 16.065-200.695 45.24-50.432 27.574-78.205 63.201-78.205 100.315v40.055l221.422-94.9c18.256-7.823 37.855-11.735 57.463-11.735 19.632 0 39.272 3.924 57.569 11.764l221.352 94.867v-40.051zM972.906 586.248l-415.433-178.041c-28.901-12.386-62.026-12.399-90.882-0.033l-317.5 136.073 290.913 50.596c13.087-15.486 39.752-25.626 71.991-25.626 46.014 0 80.712 20.643 80.712 48.016s-34.697 48.016-80.712 48.016c-41.787 0-74.236-17.028-79.843-40.661l-331.429-57.64c-0.973-0.17-1.903-0.433-2.793-0.77l-46.859 20.085c-12.789 5.476-20.422 17.053-20.422 30.961 0 13.923 7.644 25.512 20.445 30.998l415.433 178.044c14.463 6.197 29.983 9.297 45.494 9.297 15.491 0 30.974-3.089 45.388-9.266l415.523-178.085c12.788-5.48 20.419-17.057 20.419-30.965 0-13.927-7.643-25.514-20.443-31zM461.939 617.232c0 4.465 17.211 17.368 50.057 17.368 32.85 0 50.061-12.903 50.061-17.368s-17.211-17.367-50.061-17.367c-32.846 0-50.057 12.905-50.057 17.367zM626.393 271.258c1.143 0 2.302 0.131 3.465 0.397 11.563 2.671 22.958 5.775 33.862 9.224 8.069 2.552 12.542 11.162 9.99 19.231s-11.162 12.546-19.235 9.994c-10.134-3.207-20.738-6.095-31.515-8.585-8.249-1.905-13.39-10.134-11.485-18.379 1.638-7.090 7.946-11.882 14.918-11.882z" />
<glyph unicode="&#xe932;" glyph-name="52" d="M938.668 891.73h-853.335c-47.105-0.057-85.277-38.228-85.333-85.333v-614.401c0.056-47.104 38.228-85.275 85.333-85.332h511.999v-85.332c0.004-6.902 4.162-13.124 10.539-15.766 6.373-2.642 13.713-1.184 18.596 3.699l56.201 56.197 56.197-56.197c4.882-4.882 12.222-6.341 18.6-3.699 6.373 2.642 10.535 8.864 10.535 15.766v85.332h170.668c47.104 0.057 85.275 38.228 85.332 85.332v614.401c-0.057 47.105-38.228 85.277-85.332 85.333zM551.424 557.821c-2.638 1.217-4.534 3.623-5.1 6.472-0.569 2.849 0.262 5.798 2.232 7.932 15.27 16.597 15.27 42.129 0 58.727-1.978 2.136-2.81 5.092-2.241 7.947 0.573 2.855 2.478 5.263 5.124 6.475 20.443 9.513 30.204 33.094 22.458 54.272-1.008 2.727-0.647 5.771 0.967 8.189s4.289 3.916 7.193 4.031c22.54 0.947 40.595 19.002 41.542 41.54 0.111 2.909 1.614 5.587 4.035 7.202 2.425 1.615 5.472 1.97 8.2 0.956 21.185-7.697 44.737 2.057 54.272 22.477 1.208 2.643 3.613 4.545 6.463 5.113 2.847 0.568 5.796-0.268 7.926-2.246 16.601-15.274 42.14-15.274 58.741 0 2.134 1.977 5.087 2.81 7.942 2.239 2.851-0.571 5.255-2.477 6.463-5.123 9.519-20.429 33.083-30.183 54.256-22.46 2.728 1.014 5.779 0.659 8.2-0.956s3.924-4.293 4.035-7.202c0.958-22.569 19.059-40.637 41.628-41.557 2.904-0.109 5.579-1.604 7.193-4.019s1.974-5.459 0.967-8.183c-7.75-21.183 2.019-44.771 22.475-54.272 2.638-1.217 4.534-3.623 5.104-6.472 0.565-2.849-0.266-5.798-2.236-7.932-15.27-16.597-15.27-42.129 0-58.726 1.978-2.137 2.81-5.092 2.241-7.947-0.573-2.855-2.478-5.263-5.124-6.475-20.443-9.514-30.204-33.094-22.458-54.271 1.008-2.728 0.647-5.771-0.967-8.188-1.614-2.421-4.289-3.92-7.193-4.035-22.602-0.905-40.718-19.022-41.628-41.624-0.111-2.908-1.614-5.587-4.035-7.201-2.421-1.618-5.472-1.974-8.2-0.958-21.18 7.705-44.741-2.052-54.272-22.475-1.163-2.671-3.572-4.588-6.435-5.12-2.855-0.598-5.825 0.238-7.954 2.236-16.605 15.262-42.136 15.262-58.741 0-2.13-1.999-5.095-2.83-7.954-2.236-2.863 0.532-5.28 2.449-6.451 5.12-9.511 20.435-33.079 30.192-54.256 22.458-2.728-1.016-5.775-0.659-8.2 0.954-2.421 1.618-3.924 4.293-4.035 7.205-0.905 22.606-19.018 40.735-41.628 41.66-2.904 0.106-5.579 1.602-7.193 4.018s-1.974 5.456-0.963 8.184c7.758 21.16-1.97 44.741-22.393 54.271zM738.886 238.215l-5.018-5.018v160.424c2.281 0.008 4.485-0.852 6.16-2.404 7.909-7.414 18.342-11.538 29.184-11.538 2.9 0.004 5.792 0.291 8.634 0.852 13.582 2.654 25.031 11.723 30.72 24.338 1.999 4.305 6.967 6.353 11.42 4.71 5.194-1.839 10.691-2.666 16.196-2.441v-173.941l-39.133 39.133c-6.664 6.66-17.469 6.66-24.134 0l-34.030-34.116zM733.868 62.53l-39.133 39.133c-6.668 6.664-17.469 6.664-24.134 0l-39.133-39.133v344.646c5.505-0.229 11.002 0.598 16.196 2.437 4.44 1.651 9.409-0.393 11.399-4.69 5.706-12.648 17.199-21.733 30.822-24.355 3.244-0.643 6.545-0.922 9.847-0.836v-187.736c0.004-6.902 4.162-13.124 10.539-15.761 6.373-2.642 13.713-1.184 18.596 3.695l5.001 5.001v-122.401zM989.868 191.996c0-28.275-22.925-51.2-51.2-51.2h-170.668v78.27l17.068 17.064 56.197-56.201c4.882-4.878 12.222-6.337 18.6-3.695 6.373 2.638 10.535 8.86 10.535 15.761v233.693c4.764 6.689 7.483 14.615 7.832 22.819 0.209 4.735 4.006 8.524 8.741 8.72 13.836 0.537 26.579 7.668 34.267 19.182 7.692 11.514 9.4 26.014 4.592 39.002-1.626 4.44 0.422 9.388 4.71 11.383 12.591 5.784 21.643 17.248 24.343 30.836 2.703 13.586-1.27 27.645-10.686 37.805-3.207 3.488-3.207 8.851 0 12.339 9.417 10.157 13.39 24.213 10.686 37.797-2.699 13.584-11.756 25.049-24.343 30.828-4.305 1.98-6.361 6.937-4.727 11.383 4.809 12.986 3.101 27.487-4.592 39.002s-20.431 18.645-34.267 19.179c-4.735 0.199-8.532 3.987-8.741 8.721-0.516 13.841-7.639 26.594-19.153 34.293s-26.022 9.411-39.010 4.601c-4.44-1.678-9.425 0.374-11.399 4.694-5.784 12.588-17.252 21.64-30.839 24.343s-27.644-1.273-37.802-10.689c-3.482-3.206-8.843-3.206-12.325 0-10.154 9.417-24.211 13.392-37.798 10.69-13.582-2.703-25.047-11.756-30.826-24.343-1.978-4.322-6.963-6.379-11.416-4.71-12.988 4.809-27.496 3.097-39.010-4.602s-18.637-20.453-19.153-34.293c-0.209-4.734-4.006-8.522-8.741-8.721-13.836-0.534-26.579-7.665-34.267-19.179-7.692-11.514-9.4-26.016-4.592-39.001 1.63-4.442-0.418-9.392-4.71-11.384-12.587-5.783-21.639-17.25-24.343-30.837s1.27-27.645 10.686-37.805c3.211-3.488 3.211-8.851 0-12.339-9.417-10.157-13.39-24.213-10.686-37.797 2.703-13.586 11.756-25.050 24.343-30.826 4.305-1.982 6.361-6.939 4.727-11.387-4.805-12.984-3.101-27.484 4.592-38.998s20.435-18.649 34.267-19.182c4.735-0.197 8.532-3.985 8.741-8.72 0.352-8.196 3.072-16.118 7.832-22.802v-284.893h-511.999c-28.277 0-51.2 22.925-51.2 51.2v614.401c0 28.277 22.923 51.2 51.2 51.2h853.335c28.275 0 51.2-22.923 51.2-51.2v-614.401zM187.733 277.332c-28.277 0-51.2 22.925-51.2 51.2v341.335c0 28.277 22.923 51.2 51.2 51.2h307.199c9.429 0 17.068 7.641 17.068 17.066s-7.639 17.067-17.068 17.067h-307.199c-47.105-0.057-85.277-38.228-85.333-85.333v-341.335c0.057-47.104 38.228-85.275 85.333-85.332h324.267c9.425 0 17.068 7.639 17.068 17.068 0 9.425-7.643 17.064-17.068 17.064h-324.267zM204.786 482.128h238.933c9.425 0 17.068 7.639 17.068 17.064 0 9.429-7.643 17.068-17.068 17.068h-238.933c-9.425 0-17.066-7.639-17.066-17.068 0-9.425 7.641-17.064 17.066-17.064zM204.786 550.396h238.933c9.425 0 17.068 7.642 17.068 17.068s-7.643 17.066-17.068 17.066h-238.933c-9.425 0-17.066-7.641-17.066-17.066s7.641-17.068 17.066-17.068zM204.786 618.667h238.933c9.425 0 17.068 7.641 17.068 17.066s-7.643 17.067-17.068 17.067h-238.933c-9.425 0-17.066-7.641-17.066-17.067s7.641-17.066 17.066-17.066zM189.146 321.704c2.716-6.222 8.861-10.244 15.65-10.24 2.349-0.008 4.675 0.475 6.826 1.417 15.8 5.87 30.321 14.729 42.769 26.096 4.621 4.612 8.661 9.769 12.032 15.36 6.517-7.328 14.177-13.55 22.682-18.432 11.862-7.754 26.625-9.642 40.056-5.12 5.148 1.999 9.805 5.083 13.653 9.044 7.723-4.825 16.231-8.262 25.139-10.154l12.902-3.056c26.336-7.713 53.701-11.338 81.136-10.752 6.083 0.438 11.469 4.092 14.127 9.576 2.662 5.489 2.195 11.977-1.229 17.023-3.42 5.050-9.273 7.889-15.356 7.451-23.941-0.315-47.788 3.023-70.725 9.896l-13.193 3.125c-15.923 3.67-20.019 10.084-21.709 14.61-2.974 7.938-11.327 12.493-19.612 10.686-8.285-1.802-13.99-9.413-13.394-17.875 0.191-3.060-1.258-5.988-3.806-7.696-3.987-0.508-8.018 0.532-11.264 2.904-13.802 8.589-24.181 21.721-29.354 37.134-2.936 7.938-11.245 12.526-19.526 10.781-8.28-1.749-14.032-9.298-13.516-17.744 0.288-12.206-4.495-23.99-13.21-32.547-9.477-8.286-20.416-14.733-32.256-19.010-4.152-1.81-7.415-5.194-9.070-9.413-1.655-4.215-1.566-8.913 0.246-13.066zM733.852 465.064c75.407 0 136.536 61.129 136.536 136.533s-61.129 136.533-136.536 136.533c-75.403 0-136.532-61.128-136.532-136.533 0.086-75.371 61.161-136.447 136.532-136.533zM733.852 703.997c56.558 0 102.4-45.846 102.4-102.4s-45.842-102.401-102.4-102.401c-56.553 0-102.4 45.847-102.4 102.401 0.057 56.531 45.871 102.343 102.4 102.4z" />
<glyph unicode="&#xe933;" glyph-name="53" d="M184.921 263.082c0-180.355 146.73-327.082 327.083-327.082 180.351 0 327.082 146.727 327.082 327.082s-146.731 327.082-327.082 327.082c-180.355 0-327.083-146.727-327.083-327.082zM319.045 40.002c15.35 38.597 41.966 71.684 76.381 94.945s75.036 35.623 116.578 35.471c41.464-0.168 81.945-12.661 116.298-35.881 34.353-23.224 61.026-56.132 76.64-94.548-53.559-46.432-122.065-71.995-192.95-71.991-70.885 0-139.391 25.567-192.947 72.004zM417.243 305.496c0 18.743 5.558 37.069 15.97 52.654s25.211 27.73 42.529 34.906c17.318 7.172 36.372 9.048 54.755 5.394 18.383-3.658 35.271-12.681 48.521-25.936 13.255-13.255 22.282-30.142 25.936-48.525 3.658-18.383 1.782-37.437-5.394-54.755-7.172-17.314-19.321-32.117-34.906-42.529s-33.907-15.97-52.65-15.966c-25.125 0.029-49.213 10.019-66.978 27.787-17.764 17.764-27.759 41.853-27.787 66.974l0.004-0.004zM512.004 558.164c162.71 0 295.084-132.373 295.084-295.082 0.057-73.794-27.644-144.908-77.603-199.221-14.881 31.904-36.594 60.146-63.603 82.727s-58.655 38.949-92.688 47.94c24.625 13.574 44.044 34.951 55.19 60.768 11.149 25.817 13.394 54.608 6.386 81.842s-22.872 51.364-45.097 68.592c-22.225 17.232-49.545 26.583-77.668 26.583-28.119 0-55.443-9.351-77.664-26.583-22.225-17.228-38.091-41.357-45.099-68.592s-4.761-56.025 6.386-81.842c11.148-25.817 30.565-47.194 55.19-60.768-34.038-8.991-65.681-25.358-92.687-47.944-27.007-22.581-48.715-50.831-63.586-82.743-49.968 54.317-77.676 125.436-77.62 199.242-0.004 162.718 132.37 295.082 295.079 295.082zM667.427 847.080c-1.044 3.213-3.080 6.013-5.812 7.999-2.736 1.986-6.025 3.055-9.404 3.055h-0.033l-95.588-0.182-29.36 90.964c-1.040 3.22-3.072 6.028-5.808 8.019s-6.033 3.064-9.417 3.064c-3.383 0-6.681-1.073-9.417-3.064s-4.772-4.799-5.812-8.019l-29.36-90.964-95.612 0.182c-3.381 0-6.675-1.072-9.41-3.061s-4.768-4.793-5.81-8.010c-1.042-3.217-1.037-6.681 0.012-9.895s3.090-6.013 5.83-7.996l77.436-56.034-29.708-90.85c-1.054-3.217-1.059-6.683-0.016-9.903s3.080-6.025 5.816-8.015c2.74-1.989 6.038-3.059 9.421-3.056s6.681 1.079 9.413 3.073l77.218 56.332 77.222-56.332c2.732-1.994 6.029-3.070 9.413-3.073s6.681 1.067 9.421 3.056c2.736 1.989 4.772 4.795 5.816 8.015 1.040 3.219 1.036 6.686-0.016 9.903l-29.712 90.85 77.439 56.034c2.744 1.984 4.784 4.786 5.833 8.004 1.053 3.218 1.053 6.685 0.008 9.904zM555.934 792.22c-2.744-1.987-4.788-4.795-5.837-8.018s-1.044-6.696 0.008-9.918l17.932-54.832-46.6 34c-2.736 1.998-6.038 3.074-9.429 3.074-3.387 0-6.693-1.076-9.429-3.074l-46.6-34 17.932 54.832c1.053 3.222 1.057 6.694 0.008 9.918-1.044 3.224-3.088 6.031-5.833 8.018l-46.752 33.82 57.721-0.112c3.383 0 6.681 1.074 9.417 3.065s4.768 4.8 5.808 8.021l17.723 54.902 17.719-54.902c1.040-3.221 3.076-6.029 5.812-8.021s6.029-3.065 9.417-3.065h0.029l57.688 0.112-46.735-33.82zM104.933 647.56l-2.944-95.54c-0.104-3.381 0.866-6.711 2.773-9.505 1.907-2.798 4.651-4.919 7.837-6.054 3.187-1.139 6.653-1.237 9.899-0.283s6.106 2.916 8.169 5.599l58.248 75.784 89.952-32.324c3.184-1.143 6.649-1.246 9.896-0.297s6.11 2.904 8.176 5.583c2.066 2.678 3.231 5.943 3.326 9.325s-0.885 6.707-2.798 9.497l-54.076 78.818 58.54 75.562c2.073 2.675 3.244 5.939 3.345 9.321s-0.873 6.71-2.782 9.504c-1.909 2.794-4.655 4.911-7.843 6.047s-6.654 1.23-9.899 0.272l-91.674-27.070-53.776 79.020c-1.904 2.797-4.646 4.918-7.832 6.059s-6.65 1.242-9.897 0.29c-3.247-0.952-6.108-2.909-8.173-5.59s-3.226-5.947-3.319-9.329l-2.578-95.55-91.776-26.722c-3.249-0.946-6.115-2.898-8.185-5.575s-3.238-5.942-3.336-9.325c-0.098-3.383 0.879-6.709 2.791-9.501s4.66-4.907 7.849-6.039l90.086-31.978zM127.661 709.24c3.254 0.947 6.124 2.904 8.194 5.587s3.236 5.955 3.328 9.343l1.556 57.668 32.456-47.694c1.907-2.802 4.654-4.927 7.846-6.067s6.664-1.237 9.914-0.277l55.328 16.34-35.332-45.6c-2.076-2.679-3.248-5.949-3.346-9.337s0.882-6.72 2.8-9.515l32.64-47.57-54.292 19.51c-3.19 1.146-6.662 1.25-9.914 0.296s-6.118-2.916-8.184-5.604l-35.154-45.74 1.776 57.664c0.104 3.388-0.87 6.721-2.782 9.52s-4.664 4.917-7.858 6.051l-54.374 19.298 55.398 16.128zM1008.288 709.978l-91.783 26.722-2.58 95.55c-0.090 3.382-1.253 6.649-3.318 9.329s-4.927 4.637-8.172 5.59c-3.248 0.952-6.713 0.851-9.9-0.29-3.183-1.141-5.927-3.262-7.832-6.059l-53.772-79.020-91.673 27.070c-3.244 0.958-6.709 0.863-9.9-0.272-3.187-1.135-5.931-3.252-7.844-6.047-1.909-2.794-2.879-6.122-2.781-9.504 0.102-3.382 1.274-6.646 3.346-9.321l58.54-75.562-54.075-78.818c-1.913-2.79-2.896-6.115-2.798-9.497 0.094-3.382 1.257-6.647 3.326-9.325 2.064-2.679 4.927-4.633 8.176-5.583 3.244-0.949 6.709-0.846 9.896 0.297l89.952 32.324 58.245-75.784c2.064-2.683 4.923-4.645 8.172-5.599 3.244-0.954 6.709-0.856 9.896 0.283 3.187 1.135 5.931 3.256 7.84 6.054 1.905 2.793 2.875 6.124 2.773 9.505l-2.945 95.54 90.079 31.978c3.187 1.132 5.935 3.246 7.848 6.039s2.888 6.119 2.789 9.501c-0.094 3.383-1.266 6.647-3.334 9.325s-4.936 4.629-8.184 5.575h0.012zM897.376 673.8c-3.195-1.134-5.943-3.253-7.856-6.051s-2.888-6.131-2.781-9.519l1.774-57.664-35.152 45.74c-2.068 2.688-4.932 4.65-8.184 5.604s-6.726 0.85-9.916-0.296l-54.292-19.51 32.641 47.57c1.917 2.795 2.9 6.127 2.802 9.515s-1.27 6.658-3.346 9.337l-35.332 45.6 55.329-16.34c3.248-0.96 6.722-0.863 9.912 0.277s5.939 3.265 7.844 6.067l32.457 47.694 1.556-57.668c0.094-3.388 1.257-6.66 3.33-9.343 2.068-2.683 4.94-4.64 8.192-5.587l55.39-16.128-54.366-19.298z" />
<glyph unicode="&#xe936;" glyph-name="56" d="M778.913-61.055c-1.060 0-2.055 0.133-3.115 0.332-8.617 1.723-14.185 10.075-12.461 18.691l92.399 461.198c19.222 96.111-23.994 195.071-107.577 246.308l-428.322 262.083c-7.49 4.574-9.876 14.383-5.236 21.873s14.384 9.876 21.874 5.236l428.254-262.084c46.796-28.634 83.12-70.326 105.059-120.634 21.939-50.243 27.905-105.258 17.101-159.080l-92.399-461.198c-1.458-7.49-8.152-12.727-15.576-12.727zM426.892-13.462c-1.657 0-3.38 0.265-5.104 0.861-8.351 2.785-12.793 11.866-10.008 20.151 0.531 1.591 54.419 163.122 38.113 246.771-7.821 39.837-1.79 85.903 17.897 137.008 7.688 20.017 16.041 36.787 22.205 48.187-54.352 23.133-105.721 48.652-152.981 76.094-41.758 24.193-80.401 49.911-114.869 76.424-59.191 45.404-85.572 77.419-86.632 78.744-5.568 6.827-4.507 16.835 2.254 22.403 6.827 5.568 16.836 4.507 22.337-2.254 0.265-0.332 25.85-31.219 82.589-74.634 52.43-40.101 142.84-99.491 276.136-154.373 4.374-1.79 7.688-5.435 9.146-9.943 1.393-4.507 0.796-9.411-1.79-13.389-0.596-0.929-61.047-96.774-45.072-178.169 17.963-91.934-36.787-256.118-39.173-263.077-2.254-6.629-8.419-10.804-15.047-10.804z" />
</font>
</defs>
</svg>
