<svg width="25" height="25" viewBox="0 0 25 25" fill="none" xmlns="http://www.w3.org/2000/svg">
<mask id="mask0_0_203" style="mask-type:luminance" maskUnits="userSpaceOnUse" x="0" y="0" width="25" height="25">
<path d="M0 1.90735e-06H25V25H0V1.90735e-06Z" fill="white"/>
</mask>
<g mask="url(#mask0_0_203)">
<path d="M20.0151 21.5996C20.0151 23.208 18.7114 24.5117 17.103 24.5117H13.9487C12.8457 24.5117 11.8374 23.8887 11.3442 22.9019L10.6929 21.5996L9.23682 24.5117L7.78071 21.5996L6.32471 24.5117L4.86865 21.5996L3.41255 24.5117L1.95654 21.5996L0.500488 24.5117" stroke="white" stroke-miterlimit="10" stroke-linecap="round" stroke-linejoin="round"/>
<path d="M13.0005 12.9883C13.0005 13.2579 12.7818 13.4766 12.5122 13.4766C12.2426 13.4766 12.0239 13.2579 12.0239 12.9883C12.0239 12.7187 12.2426 12.5 12.5122 12.5C12.7818 12.5 13.0005 12.7187 13.0005 12.9883Z" fill="white"/>
<path d="M10.9835 11.4116C10.389 10.719 9.85524 10.0127 9.41794 9.32828C9.05763 8.7648 9.16652 8.01822 9.63967 7.54503L11.2832 5.90152C11.6367 5.548 11.6367 4.97476 11.2832 4.62125L7.41554 0.75357C7.06198 0.400054 6.48874 0.400054 6.13473 0.75357L5.15622 1.73257C3.56789 3.32095 3.13815 5.74429 4.13527 7.75748C5.90969 11.339 10.146 17.4147 17.1797 20.8634C19.1982 21.8532 21.6679 21.4333 23.2578 19.8439L24.2588 18.8429C24.6123 18.4889 24.6123 17.9157 24.2588 17.5622L20.357 13.695C20.0029 13.341 19.4297 13.341 19.0761 13.695L17.4326 15.338C16.9599 15.8112 16.2133 15.9201 15.6494 15.5597C15.1521 15.242 14.6431 14.8733 14.1361 14.4672" stroke="white" stroke-miterlimit="10" stroke-linecap="round" stroke-linejoin="round"/>
</g>
</svg>
