<svg width="60" height="60" viewBox="0 0 60 60" fill="none" xmlns="http://www.w3.org/2000/svg">
<g clip-path="url(#clip0_0_128)">
<path d="M25.6039 32.7133C25.6039 32.2094 25.195 31.8004 24.6912 31.8004C24.1874 31.8004 23.7785 32.2094 23.7785 32.7133V43.2255C23.7785 47.6829 21.1321 51.6987 17.0397 53.4591L6.74779 57.8869C5.70468 58.3344 4.55488 58.2514 3.58881 57.6557C2.62274 57.06 2.03006 56.0701 1.9619 54.938C1.30402 44.0049 3.03761 34.9301 7.11526 27.9654C10.6891 21.8661 15.4335 18.5527 18.7851 16.8486C19.8579 16.3033 21.1114 16.3537 22.1367 16.982C23.1621 17.6103 23.7755 18.7068 23.7755 19.9101V24.0119C20.3883 26.5547 16.0351 31.0714 15.7476 37.633C15.7269 38.1368 16.1151 38.5636 16.6189 38.5843C16.6337 38.5843 16.6456 38.5843 16.6604 38.5843C17.1464 38.5843 17.5494 38.202 17.5701 37.713C17.902 30.1171 24.4897 25.4907 27.3049 23.8548C28.514 23.1524 29.2667 21.8424 29.2667 20.4406V0.912818C29.2667 0.40899 28.8577 0 28.354 0C27.8502 0 27.4412 0.40899 27.4412 0.912818V20.4436C27.4412 21.1963 27.0382 21.9017 26.3863 22.2781C26.1462 22.4174 25.8825 22.5774 25.598 22.7552V19.9101C25.598 18.0667 24.6586 16.3892 23.088 15.426C21.5174 14.4628 19.5971 14.3858 17.9554 15.2215C14.3904 17.0353 9.33781 20.5621 5.54169 27.0437C1.27439 34.3255 -0.542175 43.7471 0.139407 55.0477C0.243126 56.7814 1.15289 58.2988 2.63163 59.2117C3.48212 59.7362 4.42745 60.003 5.38167 60.003C6.08399 60.003 6.79224 59.8577 7.47086 59.5673L17.7628 55.1395C22.5279 53.0916 25.6039 48.4149 25.6039 43.2285V32.7133Z" fill="#064ACB"/>
<path d="M54.4614 27.0437C50.6653 20.5621 45.6127 17.0353 42.0418 15.2215C40.4 14.3858 38.4798 14.4628 36.9092 15.426C35.3385 16.3892 34.3991 18.0667 34.3991 19.9101V22.4856C34.2776 22.4115 34.1591 22.3403 34.0465 22.2781C33.3975 21.9017 32.9915 21.1963 32.9915 20.4436V0.912818C32.9915 0.40899 32.5826 0 32.0788 0C31.575 0 31.1661 0.40899 31.1661 0.912818V20.4436C31.1661 21.8454 31.9188 23.1524 33.1278 23.8577C35.9431 25.4937 42.5307 30.12 42.8626 37.716C42.8834 38.205 43.2894 38.5873 43.7724 38.5873C43.7872 38.5873 43.7991 38.5873 43.8139 38.5873C44.3177 38.5666 44.7088 38.1398 44.6851 37.636C44.3858 30.7898 39.6562 26.1665 36.2187 23.6947V19.9101C36.2187 18.7068 36.8321 17.6103 37.8574 16.982C38.8828 16.3537 40.1363 16.3033 41.209 16.8486C44.5607 18.5527 49.308 21.8661 52.8789 27.9684C56.9566 34.9331 58.6931 44.0079 58.0323 54.941C57.9641 56.0731 57.3714 57.063 56.4054 57.6587C55.4393 58.2544 54.2895 58.3374 53.2464 57.8899L42.9545 53.4621C38.862 51.7017 36.2157 47.6829 36.2157 43.2285V32.7162C36.2157 32.2124 35.8068 31.8034 35.303 31.8034C34.7992 31.8034 34.3903 32.2124 34.3903 32.7162V43.2285C34.3903 48.4149 37.4692 53.0916 42.2314 55.1395L52.5233 59.5673C53.2019 59.8577 53.9072 60.003 54.6125 60.003C55.5667 60.003 56.5121 59.7362 57.3626 59.2117C58.8413 58.2988 59.7511 56.7844 59.8548 55.0477C60.5423 43.7471 58.7257 34.3255 54.4614 27.0437Z" fill="#064ACB"/>
<path d="M39.754 39.5535C39.7481 40.0573 40.1541 40.4693 40.6579 40.4752C40.6608 40.4752 40.6638 40.4752 40.6668 40.4752C41.1676 40.4752 41.5736 40.0722 41.5795 39.5713C41.6565 31.8094 36.758 27.7047 33.8302 25.9501C32.7426 25.2981 31.495 24.9543 30.2178 24.9543C28.9435 24.9543 27.693 25.2981 26.6054 25.9501C23.6776 27.7047 18.7791 31.8094 18.8561 39.5713C18.862 40.0722 19.268 40.4752 19.7688 40.4752C19.7718 40.4752 19.7748 40.4752 19.7777 40.4752C20.2815 40.4693 20.6875 40.0573 20.6816 39.5535C20.6134 32.7014 24.9518 29.0709 27.5448 27.5179C28.3479 27.0349 29.2725 26.7829 30.2178 26.7829C31.1631 26.7829 32.0877 27.0378 32.8908 27.5179C35.4838 29.0709 39.8222 32.7014 39.754 39.5535Z" fill="#064ACB"/>
<path d="M8.51676 49.7634C9.23983 49.7634 9.82362 49.1795 9.82362 48.4564C9.82362 47.7333 9.23983 47.1494 8.51676 47.1494C7.79369 47.1494 7.2099 47.7333 7.2099 48.4564C7.2099 49.1795 7.79665 49.7634 8.51676 49.7634Z" fill="#F3A952"/>
<path d="M14.0465 48.4564C14.0465 49.1795 14.6303 49.7634 15.3534 49.7634C16.0764 49.7634 16.6602 49.1795 16.6602 48.4564C16.6602 47.7333 16.0764 47.1494 15.3534 47.1494C14.6303 47.1494 14.0465 47.7333 14.0465 48.4564Z" fill="#F3A952"/>
<path d="M11.495 38.8569C10.772 38.8569 10.1882 39.4408 10.1882 40.1639C10.1882 40.8871 10.772 41.4709 11.495 41.4709C12.2181 41.4709 12.8019 40.8871 12.8019 40.1639C12.8019 39.4437 12.2151 38.8569 11.495 38.8569Z" fill="#F3A952"/>
<path d="M5.90305 40.8811C5.17998 40.8811 4.59619 41.465 4.59619 42.1881C4.59619 42.9112 5.17998 43.4951 5.90305 43.4951C6.62612 43.4951 7.20991 42.9112 7.20991 42.1881C7.20991 41.465 6.62612 40.8811 5.90305 40.8811Z" fill="#F3A952"/>
<path d="M11.495 30.0518C10.772 30.0518 10.1882 30.6356 10.1882 31.3587C10.1882 32.0819 10.772 32.6657 11.495 32.6657C12.2181 32.6657 12.8019 32.0819 12.8019 31.3587C12.8019 30.6356 12.2151 30.0518 11.495 30.0518Z" fill="#F3A952"/>
<path d="M17.9671 24.5602C17.9671 23.837 17.3833 23.2532 16.6602 23.2532C15.9371 23.2532 15.3533 23.837 15.3533 24.5602C15.3533 25.2833 15.9371 25.8672 16.6602 25.8672C17.3833 25.8672 17.9671 25.2803 17.9671 24.5602Z" fill="#F3A952"/>
<path d="M42.4685 47.1495C42.4685 47.8727 43.0523 48.4565 43.7754 48.4565C44.4984 48.4565 45.0822 47.8727 45.0822 47.1495C45.0822 46.4264 44.4984 45.8425 43.7754 45.8425C43.0553 45.8425 42.4685 46.4264 42.4685 47.1495Z" fill="#F3A952"/>
<path d="M50.2622 51.8023C50.2622 52.5255 50.846 53.1093 51.5691 53.1093C52.2922 53.1093 52.876 52.5255 52.876 51.8023C52.876 51.0792 52.2922 50.4954 51.5691 50.4954C50.846 50.4954 50.2622 51.0792 50.2622 51.8023Z" fill="#F3A952"/>
<path d="M51.0179 40.8811C50.2948 40.8811 49.711 41.465 49.711 42.1881C49.711 42.9112 50.2948 43.4951 51.0179 43.4951C51.741 43.4951 52.3248 42.9112 52.3248 42.1881C52.3277 41.465 51.741 40.8811 51.0179 40.8811Z" fill="#F3A952"/>
<path d="M50.2622 30.0518C49.5392 30.0518 48.9554 30.6356 48.9554 31.3587C48.9554 32.0819 49.5392 32.6657 50.2622 32.6657C50.9853 32.6657 51.5691 32.0819 51.5691 31.3587C51.5691 30.6356 50.9824 30.0518 50.2622 30.0518Z" fill="#F3A952"/>
<path d="M46.392 24.5602C46.392 23.837 45.8083 23.2532 45.0852 23.2532C44.3621 23.2532 43.7783 23.837 43.7783 24.5602C43.7783 25.2833 44.3621 25.8672 45.0852 25.8672C45.8083 25.8672 46.392 25.2803 46.392 24.5602Z" fill="#F3A952"/>
<path d="M52.8759 13.8642C53.599 13.8642 54.1828 13.2804 54.1828 12.5572C54.1828 11.8341 53.599 11.2502 52.8759 11.2502C52.1529 11.2502 51.5691 11.8341 51.5691 12.5572C51.5691 13.2774 52.1529 13.8642 52.8759 13.8642Z" fill="#F3A952"/>
<path d="M44.4332 9.67648C45.1563 9.67648 45.7401 9.09263 45.7401 8.36949C45.7401 7.64635 45.1563 7.0625 44.4332 7.0625C43.7102 7.0625 43.1264 7.64635 43.1264 8.36949C43.1264 9.08967 43.7131 9.67648 44.4332 9.67648Z" fill="#F3A952"/>
<path d="M54.1828 5.06198C54.9059 5.06198 55.4897 4.47813 55.4897 3.75499C55.4897 3.03185 54.9059 2.448 54.1828 2.448C53.4597 2.448 52.8759 3.03185 52.8759 3.75499C52.8759 4.47813 53.4597 5.06198 54.1828 5.06198Z" fill="#F3A952"/>
<path d="M56.7965 21.9077C57.5196 21.9077 58.1034 21.3238 58.1034 20.6007C58.1034 19.8776 57.5196 19.2937 56.7965 19.2937C56.0735 19.2937 55.4897 19.8776 55.4897 20.6007C55.4897 21.3238 56.0735 21.9077 56.7965 21.9077Z" fill="#F3A952"/>
<path d="M17.9671 9.03634C18.6901 9.03634 19.2739 8.44953 19.2739 7.72935C19.2739 7.00917 18.6901 6.42236 17.9671 6.42236C17.244 6.42236 16.6602 7.00917 16.6602 7.72935C16.6602 8.44953 17.247 9.03634 17.9671 9.03634Z" fill="#F3A952"/>
<path d="M8.88127 5.06198C9.60434 5.06198 10.1881 4.47813 10.1881 3.75499C10.1881 3.03185 9.60434 2.448 8.88127 2.448C8.1582 2.448 7.57441 3.03185 7.57441 3.75499C7.57145 4.47813 8.1582 5.06198 8.88127 5.06198Z" fill="#F3A952"/>
<path d="M8.88126 15.1711C9.60302 15.1711 10.1881 14.5859 10.1881 13.8641C10.1881 13.1423 9.60302 12.5571 8.88126 12.5571C8.1595 12.5571 7.5744 13.1423 7.5744 13.8641C7.5744 14.5859 8.1595 15.1711 8.88126 15.1711Z" fill="#F3A952"/>
<path d="M36.6187 55.4951C35.8956 55.4951 35.3119 56.079 35.3119 56.8021C35.3119 57.5252 35.8986 58.1091 36.6187 58.1091C37.3418 58.1091 37.9256 57.5252 37.9256 56.8021C37.9256 56.0819 37.3388 55.4951 36.6187 55.4951Z" fill="#F3A952"/>
<path d="M25.4111 55.4951C24.6881 55.4951 24.1043 56.079 24.1043 56.8021C24.1043 57.5252 24.6881 58.1091 25.4111 58.1091C26.1342 58.1091 26.718 57.5252 26.718 56.8021C26.718 56.0819 26.1342 55.4951 25.4111 55.4951Z" fill="#F3A952"/>
<path d="M31.2224 49.7634C30.4993 49.7634 29.9155 50.3473 29.9155 51.0704C29.9155 51.7936 30.4993 52.3774 31.2224 52.3774C31.9455 52.3774 32.5292 51.7936 32.5292 51.0704C32.5292 50.3502 31.9425 49.7634 31.2224 49.7634Z" fill="#F3A952"/>
<path d="M2.88633 7.72921C3.6094 7.72921 4.19319 7.14537 4.19319 6.42222C4.19319 5.69908 3.6094 5.11523 2.88633 5.11523C2.16326 5.11523 1.57947 5.69908 1.57947 6.42222C1.57947 7.1424 2.16622 7.72921 2.88633 7.72921Z" fill="#F3A952"/>
<path d="M1.57944 23.2146C2.30251 23.2146 2.8863 22.6307 2.8863 21.9076C2.8863 21.1844 2.30251 20.6006 1.57944 20.6006C0.856373 20.6006 0.272583 21.1844 0.272583 21.9076C0.272583 22.6307 0.859337 23.2146 1.57944 23.2146Z" fill="#F3A952"/>
</g>
<defs>
<clipPath id="clip0_0_128">
<rect width="60" height="60" fill="white"/>
</clipPath>
</defs>
</svg>
