<svg width="100" height="100" viewBox="0 0 100 100" fill="none" xmlns="http://www.w3.org/2000/svg">
<path d="M43.0797 1.97431C20.4019 1.97431 1.95269 20.4235 1.95269 43.1011" stroke="white" stroke-opacity="0.2" stroke-width="2" stroke-miterlimit="10" stroke-linecap="round" stroke-linejoin="round"/>
<path d="M43.0797 13.7241C26.8822 13.7241 13.7027 26.9038 13.7027 43.1011" stroke="white" stroke-opacity="0.2" stroke-width="2" stroke-miterlimit="10" stroke-linecap="round" stroke-linejoin="round"/>
<path d="M43.0797 25.4763C33.3607 25.4763 25.4547 33.3823 25.4547 43.1011" stroke="white" stroke-opacity="0.2" stroke-width="2" stroke-miterlimit="10" stroke-linecap="round" stroke-linejoin="round"/>
<path d="M43.0797 37.2261C39.8355 37.2261 37.2047 39.8571 37.2047 43.1011" stroke="white" stroke-opacity="0.2" stroke-width="2" stroke-miterlimit="10" stroke-linecap="round" stroke-linejoin="round"/>
<path d="M63.3945 63.4385C63.3945 64.5172 64.2689 65.3916 65.3476 65.3916C66.4261 65.3916 67.3007 64.5172 67.3007 63.4385C67.3007 62.36 66.4261 61.4854 65.3476 61.4854C64.2689 61.4854 63.3945 62.36 63.3945 63.4385Z" fill="white" fill-opacity="0.2"/>
<path d="M65.3476 64.3916C64.8212 64.3916 64.3945 63.9649 64.3945 63.4385C64.3945 62.9122 64.8212 62.4854 65.3476 62.4854C65.8738 62.4854 66.3007 62.9122 66.3007 63.4385C66.3007 63.9648 65.8739 64.3916 65.3476 64.3916Z" stroke="white" stroke-opacity="0.2" stroke-width="2"/>
<path d="M71.0552 56.7591C72.2942 55.1316 73.4685 53.4509 74.5743 51.7204C76.0273 49.4452 75.5878 46.4316 73.6798 44.5234L67.0487 37.8923C65.6212 36.4667 65.6212 34.1523 67.0487 32.7263L82.6544 17.121C84.0802 15.6931 86.3944 15.6931 87.8202 17.121L91.7696 21.0701C98.1796 27.4785 99.912 37.2595 95.8886 45.3806C88.7304 59.8318 73.9999 81.9841 45.621 95.9001C37.4745 99.8925 27.6484 98.1991 21.2343 91.7851L17.1952 87.7458C15.7677 86.3202 15.7677 84.0058 17.1952 82.5779L32.8009 66.9745C34.2267 65.5466 36.5409 65.5466 37.9667 66.9745L44.5976 73.6054C46.506 75.5134 49.5194 75.9529 51.795 74.4999C54.2566 72.9267 56.6189 71.2144 58.8708 69.373" stroke="white" stroke-opacity="0.2" stroke-width="2" stroke-miterlimit="10" stroke-linecap="round" stroke-linejoin="round"/>
</svg>
