<svg width="60" height="60" viewBox="0 0 60 60" fill="none" xmlns="http://www.w3.org/2000/svg">
<g clip-path="url(#clip0_0_165)">
<path d="M55.0889 41.4745H52.5806H51.738V40.4048H55.4641C55.971 40.4048 56.3825 39.9933 56.3825 39.4864V34.7958C56.3825 34.2889 55.971 33.8774 55.4641 33.8774H38.6899C38.183 33.8774 37.7716 34.2889 37.7716 34.7958V39.4864C37.7716 39.9933 38.183 40.4048 38.6899 40.4048H42.1725V41.4745H41.8664H39.0652C37.8571 41.4745 36.8729 42.4587 36.8729 43.6668V56.7247C36.8729 57.9327 37.8571 58.9169 39.0652 58.9169H55.0922C56.3002 58.9169 57.2844 57.9327 57.2844 56.7247V43.6668C57.2811 42.4587 56.2969 41.4745 55.0889 41.4745ZM55.4444 53.0348H45.892V48.4528H55.4444V53.0348ZM39.605 35.7142H54.5458V38.5713H39.605V35.7142ZM55.0889 57.0802H39.0619C38.8644 57.0802 38.7064 56.9189 38.7064 56.7247V43.6668C38.7064 43.4693 38.8677 43.3113 39.0619 43.3113H41.8631H43.0876H45.8591C46.366 43.3113 46.7775 42.8998 46.7775 42.3929C46.7775 41.886 46.366 41.4745 45.8591 41.4745H44.0059V40.4048H49.9013V41.4745H49.4964C48.9895 41.4745 48.578 41.886 48.578 42.3929C48.578 42.8998 48.9895 43.3113 49.4964 43.3113H50.8196H52.5806H55.0889C55.2864 43.3113 55.4444 43.4726 55.4444 43.6668V46.6194H44.9737C44.4668 46.6194 44.0553 47.0308 44.0553 47.5377V53.9532C44.0553 54.4601 44.4668 54.8715 44.9737 54.8715H55.4444V56.7247C55.4444 56.9189 55.2864 57.0802 55.0889 57.0802Z" fill="#F3A952"/>
<path d="M59.628 0.269824C59.2693 -0.0889648 58.6899 -0.0889648 58.3311 0.269824L42.7354 15.8656L41.4779 14.6082C41.3068 14.437 41.0731 14.3383 40.8295 14.3383C40.5859 14.3383 40.3522 14.4337 40.181 14.6082L37.4654 17.3238L36.2015 16.0598C35.8427 15.701 35.2633 15.701 34.9045 16.0598L6.47136 44.493C6.11257 44.8518 6.11257 45.4311 6.47136 45.7899L8.84793 48.1665L6.74457 50.2698L3.51876 47.044C3.15997 46.6852 2.58065 46.6852 2.22186 47.044L0.273206 48.9927C0.0954575 49.1671 0 49.4008 0 49.6444C0 49.888 0.0954575 50.1217 0.269914 50.2929L9.71034 59.7333C9.8815 59.9045 10.1152 60.0032 10.3588 60.0032C10.6024 60.0032 10.8361 59.9077 11.0072 59.7333L12.9559 57.7846C13.3147 57.4258 13.3147 56.8465 12.9559 56.4877L9.73009 53.2619L11.8334 51.1586L14.21 53.5351C14.3812 53.7063 14.6149 53.805 14.8585 53.805C15.102 53.805 15.3357 53.7096 15.5069 53.5351L43.9401 25.102C44.1113 24.9308 44.21 24.6971 44.21 24.4535C44.21 24.2099 44.1146 23.9762 43.9401 23.805L42.6761 22.5411L45.3917 19.8255C45.5629 19.6543 45.6616 19.4206 45.6616 19.177C45.6616 18.9334 45.5662 18.6997 45.3917 18.5285L44.0323 17.1691L59.628 1.57331C59.9868 1.20794 59.9868 0.625321 59.628 0.269824ZM10.3588 57.7879L2.21527 49.6444L2.86702 48.9927L11.0105 57.1362L10.3588 57.7879ZM8.43318 51.965L8.03818 51.57L10.1415 49.4667L10.5365 49.8617L8.43318 51.965ZM38.9072 27.5378L36.7248 25.3554C36.366 24.9966 35.7867 24.9966 35.4279 25.3554C35.0691 25.7142 35.0691 26.2935 35.4279 26.6523L37.6103 28.8347L34.8157 31.6293L33.9993 30.8129C33.6406 30.4542 33.0612 30.4542 32.7024 30.8129C32.3436 31.1717 32.3436 31.7511 32.7024 32.1099L33.5188 32.9262L30.7242 35.7208L28.5418 33.5384C28.183 33.1796 27.6037 33.1796 27.2449 33.5384C26.8861 33.8972 26.8861 34.4765 27.2449 34.8353L29.4273 37.0177L26.6327 39.8123L25.8163 38.996C25.4575 38.6372 24.8782 38.6372 24.5194 38.996C24.1606 39.3547 24.1606 39.9341 24.5194 40.2929L25.3357 41.1092L22.5411 43.9038L20.3588 41.7214C20 41.3626 19.4207 41.3626 19.0619 41.7214C18.7031 42.0802 18.7031 42.6596 19.0619 43.0183L21.2442 45.2007L18.4496 47.9953L17.6333 47.179C17.2745 46.8202 16.6952 46.8202 16.3364 47.179C15.9776 47.5378 15.9776 48.1171 16.3364 48.4759L17.1527 49.2922L14.865 51.5799L8.42001 45.1349L35.5497 18.0052L36.8137 19.2692L40.7275 23.1829L41.9914 24.4469L38.9072 27.5378ZM41.3792 21.2376L38.7623 18.6207L40.8295 16.5536L42.0869 17.811L43.4464 19.1704L41.3792 21.2376Z" fill="#064ACB"/>
<path d="M34.977 20.5989L34.2001 21.3758C33.8413 21.7345 33.8413 22.3139 34.2001 22.6727C34.3779 22.8504 34.6149 22.9426 34.8486 22.9426C35.0823 22.9426 35.3193 22.8537 35.497 22.6727L36.2739 21.8958C36.6327 21.537 36.6327 20.9577 36.2739 20.5989C35.9184 20.2401 35.3358 20.2401 34.977 20.5989Z" fill="#F3A952"/>
<path d="M31.8598 23.7195L13.8381 41.7413C13.4793 42.1 13.4793 42.6794 13.8381 43.0382C14.0158 43.2159 14.2528 43.3081 14.4865 43.3081C14.7202 43.3081 14.9572 43.2192 15.135 43.0382L33.1567 25.0164C33.5155 24.6576 33.5155 24.0783 33.1567 23.7195C32.7979 23.3607 32.2153 23.3607 31.8598 23.7195Z" fill="#F3A952"/>
</g>
<defs>
<clipPath id="clip0_0_165">
<rect width="59.898" height="60" fill="white"/>
</clipPath>
</defs>
</svg>
