<svg width="88" height="88" viewBox="0 0 88 88" fill="none" xmlns="http://www.w3.org/2000/svg">
<g clip-path="url(#clip0_0_767)">
<mask id="mask0_0_767" style="mask-type:luminance" maskUnits="userSpaceOnUse" x="0" y="0" width="88" height="88">
<path d="M0 7.62939e-06H88V88H0V7.62939e-06Z" fill="white"/>
</mask>
<g mask="url(#mask0_0_767)">
<path d="M18.6122 61.4285L21.6227 66.643C22.4725 68.1148 24.3547 68.619 25.8265 67.7693L36.966 61.3379C38.4378 60.4881 38.9421 58.6061 38.0923 57.1342L36.9647 55.181L26.4043 56.9296L18.6122 61.4285Z" fill="#E1E3E9"/>
<path d="M35.5129 62.1768L44.6166 77.9448L46.8989 79.4724C47.9094 80.1488 47.8597 81.6504 46.8066 82.2585L40.2204 86.0611C39.4351 86.5143 38.4312 86.2453 37.9778 85.4601L27.2796 66.9304L35.5129 62.1768Z" fill="#BDBDBD"/>
<path d="M18.0239 61.7681L26.4043 56.9297L15.5351 38.1038L7.15469 42.9421C1.95616 45.9436 0.175016 52.591 3.1763 57.7897C6.17758 62.9884 12.8252 64.7696 18.0239 61.7681Z" fill="white"/>
<path d="M66.8097 48.5055L26.4043 56.9297L15.5351 38.1038L43.0334 7.32388L66.8097 48.5055Z" fill="#E1E3E9"/>
<path d="M71.9135 49.873C73.7005 48.8412 74.3129 46.5561 73.2811 44.7692L49.5048 3.58757C48.473 1.80042 46.188 1.1882 44.401 2.21996C42.614 3.25173 42.0018 5.5368 43.0334 7.32379L66.8097 48.5054C67.8415 50.2925 70.1265 50.9048 71.9135 49.873Z" fill="#064ACB"/>
<path d="M18.0239 61.7681L26.4043 56.9297L15.5351 38.1038L7.15469 42.9421C1.95616 45.9436 0.175016 52.591 3.1763 57.7897C6.17758 62.9884 12.8252 64.7696 18.0239 61.7681Z" stroke="#111111" stroke-miterlimit="10" stroke-linecap="round" stroke-linejoin="round"/>
<path d="M34.4685 16.9109L43.0334 7.32388L66.8097 48.5055L26.4043 56.9297L15.5351 38.1038L24.1637 28.4454" stroke="#111111" stroke-miterlimit="10" stroke-linecap="round" stroke-linejoin="round"/>
<path d="M71.9135 49.873C73.7005 48.8412 74.3129 46.5561 73.2811 44.7692L49.5048 3.58757C48.473 1.80042 46.188 1.1882 44.401 2.21996C42.614 3.25173 42.0018 5.5368 43.0334 7.32379L66.8097 48.5054C67.8415 50.2925 70.1265 50.9048 71.9135 49.873Z" fill="white" stroke="#111111" stroke-miterlimit="10" stroke-linecap="round" stroke-linejoin="round"/>
<path d="M18.6122 61.4285L21.6227 66.643C22.4725 68.1148 24.3547 68.619 25.8265 67.7693L36.966 61.3379C38.4378 60.4881 38.9421 58.6061 38.0923 57.1342L36.9647 55.181" stroke="#111111" stroke-miterlimit="10" stroke-linecap="round" stroke-linejoin="round"/>
<path d="M35.5129 62.1768L44.6166 77.9448L46.8989 79.4724C47.9094 80.1488 47.8597 81.6504 46.8066 82.2585L40.2204 86.0611C39.4351 86.5143 38.4312 86.2453 37.9778 85.4601L27.2796 66.9304" stroke="#111111" stroke-miterlimit="10" stroke-linecap="round" stroke-linejoin="round"/>
<path d="M69.8355 19.3041L80.9398 12.893" stroke="white" stroke-miterlimit="10" stroke-linecap="round" stroke-linejoin="round"/>
<path d="M65.7361 12.9195L71.0268 3.75564" stroke="white" stroke-miterlimit="10" stroke-linecap="round" stroke-linejoin="round"/>
<path d="M74.4219 26.0464H82.7896" stroke="white" stroke-miterlimit="10" stroke-linecap="round" stroke-linejoin="round"/>
</g>
<g opacity="0.1">
<mask id="mask1_0_767" style="mask-type:luminance" maskUnits="userSpaceOnUse" x="-15" y="0" width="88" height="88">
<path d="M-15 7.62939e-06H73V88H-15V7.62939e-06Z" fill="white"/>
</mask>
<g mask="url(#mask1_0_767)">
<path d="M3.61218 61.4285L6.62275 66.643C7.4725 68.1148 9.3547 68.619 10.8265 67.7693L21.966 61.3379C23.4378 60.4881 23.9421 58.6061 23.0923 57.1342L21.9647 55.181L11.4043 56.9296L3.61218 61.4285Z" fill="#E1E3E9"/>
<path d="M20.5129 62.1768L29.6166 77.9448L31.8989 79.4724C32.9094 80.1488 32.8597 81.6504 31.8066 82.2585L25.2204 86.0611C24.4351 86.5143 23.4312 86.2453 22.9778 85.4601L12.2796 66.9304L20.5129 62.1768Z" fill="#BDBDBD"/>
<path d="M3.02389 61.7681L11.4043 56.9297L0.535141 38.1038L-7.84531 42.9421C-13.0438 45.9436 -14.825 52.591 -11.8237 57.7897C-8.82242 62.9884 -2.17481 64.7696 3.02389 61.7681Z" fill="white"/>
<path d="M51.8097 48.5055L11.4043 56.9297L0.535095 38.1038L28.0334 7.32388L51.8097 48.5055Z" fill="#E1E3E9"/>
<path d="M56.9135 49.873C58.7005 48.8412 59.3129 46.5561 58.2811 44.7692L34.5048 3.58757C33.473 1.80042 31.188 1.1882 29.401 2.21996C27.614 3.25173 27.0018 5.5368 28.0334 7.32379L51.8097 48.5054C52.8415 50.2925 55.1265 50.9048 56.9135 49.873Z" fill="#064ACB"/>
<path d="M3.02389 61.7681L11.4043 56.9297L0.535141 38.1038L-7.84531 42.9421C-13.0438 45.9436 -14.825 52.591 -11.8237 57.7897C-8.82242 62.9884 -2.17481 64.7696 3.02389 61.7681Z" stroke="#111111" stroke-miterlimit="10" stroke-linecap="round" stroke-linejoin="round"/>
<path d="M19.4685 16.9109L28.0334 7.32388L51.8097 48.5055L11.4043 56.9297L0.535095 38.1038L9.16373 28.4454" stroke="#111111" stroke-miterlimit="10" stroke-linecap="round" stroke-linejoin="round"/>
<path d="M56.9135 49.873C58.7005 48.8412 59.3129 46.5561 58.2811 44.7692L34.5048 3.58757C33.473 1.80042 31.188 1.1882 29.401 2.21996C27.614 3.25173 27.0018 5.5368 28.0334 7.32379L51.8097 48.5054C52.8415 50.2925 55.1265 50.9048 56.9135 49.873Z" fill="white" stroke="#111111" stroke-miterlimit="10" stroke-linecap="round" stroke-linejoin="round"/>
<path d="M3.61218 61.4285L6.62275 66.643C7.4725 68.1148 9.3547 68.619 10.8265 67.7693L21.966 61.3379C23.4378 60.4881 23.9421 58.6061 23.0923 57.1342L21.9647 55.181" stroke="#111111" stroke-miterlimit="10" stroke-linecap="round" stroke-linejoin="round"/>
<path d="M20.5129 62.1768L29.6166 77.9448L31.8989 79.4724C32.9094 80.1488 32.8597 81.6504 31.8066 82.2585L25.2204 86.0611C24.4351 86.5143 23.4312 86.2453 22.9778 85.4601L12.2796 66.9304" stroke="#111111" stroke-miterlimit="10" stroke-linecap="round" stroke-linejoin="round"/>
<path d="M54.8355 19.3041L65.9398 12.893" stroke="white" stroke-miterlimit="10" stroke-linecap="round" stroke-linejoin="round"/>
<path d="M50.7361 12.9195L56.0268 3.75564" stroke="white" stroke-miterlimit="10" stroke-linecap="round" stroke-linejoin="round"/>
<path d="M59.4219 26.0464H67.7896" stroke="white" stroke-miterlimit="10" stroke-linecap="round" stroke-linejoin="round"/>
</g>
</g>
</g>
<defs>
<clipPath id="clip0_0_767">
<rect width="88" height="88" fill="white"/>
</clipPath>
</defs>
</svg>
