<svg width="51" height="79" viewBox="0 0 51 79" fill="none" xmlns="http://www.w3.org/2000/svg">
<path d="M21.7031 14.6811C18.7798 16.8279 16.2927 19.5126 14.3752 22.5912C13.5529 22.0302 12.573 21.7464 11.5781 21.7812C12.3528 19.3216 12.7788 16.7655 12.8438 14.1875C12.7009 11.6923 11.9445 9.27081 10.6416 7.13797C10.4251 6.75593 10.3117 6.32413 10.3125 5.885V1.53125C10.3125 1.19559 10.4458 0.873669 10.6832 0.636318C10.9205 0.398967 11.2425 0.265625 11.5781 0.265625H16.6406C16.9763 0.265625 17.2982 0.398967 17.5356 0.636318C17.7729 0.873669 17.9063 1.19559 17.9063 1.53125V4.0625H20.4375L26.0569 0.683281C26.5223 0.413115 27.0502 0.269148 27.5883 0.265625C28.3765 0.26763 29.1318 0.581628 29.6892 1.13897C30.2465 1.69631 30.5605 2.45165 30.5625 3.23984V4.88516C30.563 5.27588 30.4864 5.66286 30.3371 6.02393C30.1878 6.38501 29.9688 6.71308 29.6925 6.98936C29.4162 7.26564 29.0881 7.4847 28.7271 7.63399C28.366 7.78329 27.979 7.85987 27.5883 7.85938H26.7656L21.7031 11.6562V14.6811Z" fill="#F8A88D"/>
<path d="M21.703 14.6811C24.2711 12.7787 27.367 11.7216 30.5623 11.6562C31.4356 11.6562 32.2836 11.6816 33.0809 11.7448C34.3611 11.8237 35.6341 11.9929 36.8905 12.2511C37.3714 12.3397 37.827 12.4536 38.27 12.5802C39.7262 12.9486 41.1206 13.5285 42.4086 14.3014C44.6361 15.6936 45.7498 17.4655 45.7498 19.25C45.7498 23.0469 43.2186 23.0469 43.2186 23.0469H38.1561C38.1561 23.0469 38.1561 20.5156 30.5623 20.5156C22.9686 20.5156 21.703 30.6406 21.703 30.6406H16.6405C16.6405 30.6406 17.4758 24.7808 14.375 22.5912C16.2925 19.5126 18.7796 16.8279 21.703 14.6811Z" fill="#F9C3B9"/>
<path d="M48.2817 23.0469C48.9524 23.0489 49.5951 23.3162 50.0693 23.7905C50.5436 24.2647 50.8109 24.9074 50.8129 25.5781V28.1094C50.8109 28.7801 50.5436 29.4228 50.0693 29.897C49.5951 30.3713 48.9524 30.6386 48.2817 30.6406C47.4017 29.5768 46.9504 28.2228 47.016 26.8438C46.9504 25.4647 47.4017 24.1107 48.2817 23.0469Z" fill="#F3A952"/>
<path d="M49.3448 23.2911C49.013 23.1318 48.6498 23.0483 48.2817 23.0469C47.4017 24.1107 46.9504 25.4647 47.016 26.8438C46.9504 28.2228 47.4017 29.5768 48.2817 30.6406C48.6498 30.6392 49.013 30.5557 49.3448 30.3964C48.6176 29.3573 48.2448 28.1115 48.2817 26.8438C48.2448 25.576 48.6176 24.3302 49.3448 23.2911Z" fill="#064ACB"/>
<path d="M48.2812 23.0469C47.4013 24.1107 46.95 25.4647 47.0156 26.8438C46.95 28.2228 47.4013 29.5768 48.2812 30.6406H41.9531L41.738 30.9064C40.3535 29.84 38.6365 29.2975 36.8906 29.375C29.2969 29.375 29.2969 35.7031 29.2969 35.7031C29.2969 35.7031 21.7031 35.7031 21.7031 31.9062V30.6406C21.7031 30.6406 22.9688 20.5156 30.5625 20.5156C38.1562 20.5156 38.1562 23.0469 38.1562 23.0469H48.2812Z" fill="#F7B39C"/>
<path d="M36.8916 4.69531V12.2511C35.6352 11.9929 34.3622 11.8237 33.082 11.7448L33.0947 11.6563V4.69531C33.0947 4.19182 33.2947 3.70894 33.6507 3.35291C34.0067 2.99689 34.4896 2.79688 34.9931 2.79688C35.4966 2.79688 35.9795 2.99689 36.3355 3.35291C36.6915 3.70894 36.8916 4.19182 36.8916 4.69531Z" fill="#F3A952"/>
<path d="M44.4837 7.5302V8.69457C44.4859 8.97596 44.4344 9.25518 44.3319 9.51723L42.4081 14.3013C41.1201 13.5284 39.7258 12.9485 38.2695 12.58L40.1806 6.83411C40.3467 6.33721 40.684 5.91554 41.1323 5.64442C41.5806 5.37329 42.1107 5.27037 42.6279 5.35403C43.1451 5.43769 43.6157 5.70249 43.9557 6.10113C44.2956 6.49977 44.4828 7.00629 44.4837 7.5302Z" fill="#064ACB"/>
<path d="M5.26266 41.2212C3.62547 41.7622 1.91176 42.0357 0.1875 42.0312V38.2343C0.1875 38.2343 2.71875 34.4374 2.71875 31.9062C2.71875 29.3749 5.25 21.7812 11.5781 21.7812C12.5729 21.7464 13.5529 22.0301 14.3752 22.5912C17.4759 24.7807 16.6406 30.6406 16.6406 30.6406C15.1529 33.6731 13.0136 36.3396 10.3758 38.4495C8.84258 39.6592 7.11309 40.5967 5.26266 41.2212Z" fill="#F3A952"/>
<path d="M44.2439 56.8138C43.5254 58.6075 42.7013 60.3571 41.7759 62.0534C40.89 60.9017 36.8906 55.5355 36.8906 52.1562C36.8906 52.1562 42.5606 54.4217 44.2439 56.8138Z" fill="#F3A952"/>
<path d="M22.9683 71.1406C23.0037 72.5898 23.5092 73.9882 24.4087 75.125C25.3081 76.2619 26.5527 77.0756 27.9548 77.4434C26.4166 78.2582 24.7086 78.7003 22.9683 78.7344C21.5859 78.7372 20.226 78.3841 19.0195 77.7092L19.1714 77.4688C22.9683 76.2031 22.9683 71.1406 22.9683 71.1406Z" fill="#F3A952"/>
<path d="M31.8281 44.5625C31.8281 44.5625 36.8906 48.3594 36.8906 52.1562C36.8906 55.5355 40.89 60.9017 41.7759 62.0534C40.8284 63.8246 39.7804 65.5402 38.6372 67.1919C37.6957 68.5572 36.6817 69.8711 35.5997 71.128C35.1947 70.7736 29.1703 65.6225 28.1705 60.9903C28.0811 60.5828 28.0345 60.1671 28.0312 59.75C28.0312 55.1431 31.1827 49.4731 31.7395 44.6764C31.8028 44.6005 31.8281 44.5625 31.8281 44.5625Z" fill="#F3A952"/>
<path d="M28.1705 60.9902C29.1703 65.6224 35.1947 70.7735 35.5997 71.1279C33.4873 73.7109 30.8905 75.8563 27.9553 77.4434C26.5532 77.0755 25.3086 76.2618 24.4091 75.125C23.5097 73.9881 23.0042 72.5897 22.9688 71.1405C22.9688 66.078 28.0313 61.0155 28.0313 61.0155L28.1705 60.9902Z" fill="#F3A952"/>
<path d="M44.4844 42.0312C44.4844 42.0312 45.75 44.5625 45.75 50.8906C45.5843 52.9356 45.0751 54.938 44.2439 56.8137C42.5606 54.4217 36.8906 52.1562 36.8906 52.1562C36.8906 48.3593 31.8281 44.5625 31.8281 44.5625C31.8281 44.5625 31.8028 44.6004 31.7395 44.6764C31.8001 44.2191 31.8297 43.7582 31.8281 43.2968C31.9595 40.5387 31.0568 37.8308 29.2969 35.7031C29.2969 35.7031 29.2969 29.375 36.8906 29.375C38.6365 29.2975 40.3535 29.8399 41.738 30.9064C42.5797 31.6804 43.2567 32.6162 43.7286 33.6578C44.2005 34.6995 44.4575 35.8255 44.4844 36.9687V42.0312Z" fill="#F3A952"/>
<path d="M31.7395 44.6764C31.1827 49.4731 28.0312 55.1431 28.0312 59.75C28.0345 60.1672 28.0811 60.5828 28.1705 60.9903L28.0312 61.0156C28.0312 61.0156 22.9688 66.0781 22.9688 71.1406C22.9688 71.1406 22.9688 76.2031 19.1719 77.4688L19.02 77.7092C18.3332 77.337 17.7096 76.8586 17.1722 76.2917C16.0996 75.2731 15.4567 73.8832 15.375 72.4063C15.375 68.6094 0.1875 58.4844 0.1875 50.8906V42.0313C1.91176 42.0358 3.62547 41.7623 5.26266 41.2213C7.11309 40.5968 8.84258 39.6592 10.3758 38.4495C13.0136 36.3397 15.1529 33.6732 16.6406 30.6406H21.7031V31.9063C21.7031 35.7031 29.2969 35.7031 29.2969 35.7031C31.0568 37.8308 31.9595 40.5387 31.8281 43.2969C31.8297 43.7582 31.8001 44.2191 31.7395 44.6764Z" fill="#FAB769"/>
<path d="M42.4086 14.3014C41.4691 13.7303 40.4669 13.2695 39.4217 12.9282C39.4217 17.9844 36.8905 17.9844 30.5623 17.9844C27.7352 18.0242 25.0016 19.0038 22.7927 20.7688C22.0636 21.3259 21.1567 21.5986 20.2412 21.5362C19.3257 21.4738 18.4643 21.0805 17.8175 20.4296L16.7354 19.3475C15.878 20.3756 15.0895 21.4592 14.375 22.5913C17.4758 24.7808 16.6405 30.6406 16.6405 30.6406H21.703C21.703 30.6406 22.9686 20.5156 30.5623 20.5156C38.1561 20.5156 38.1561 23.0469 38.1561 23.0469H43.2186C43.2186 23.0469 45.7498 23.0469 45.7498 19.25C45.7498 17.4655 44.6361 15.6936 42.4086 14.3014Z" fill="#F8A88D"/>
<path d="M23.0439 30.6406C23.3223 30.742 23.6182 30.7867 23.9141 30.7721C24.21 30.7576 24.5001 30.6841 24.7672 30.5559C25.0343 30.4278 25.2732 30.2476 25.4697 30.0259C25.6663 29.8042 25.8166 29.5455 25.9118 29.2649C26.6041 27.407 28.2836 24.3125 31.8273 24.3125C33.3727 24.2588 34.9085 24.5756 36.3064 25.2364C36.499 25.3365 36.7141 25.3853 36.931 25.3783C37.1479 25.3712 37.3594 25.3085 37.545 25.1961C37.7307 25.0838 37.8844 24.9256 37.9913 24.7367C38.0982 24.5478 38.1547 24.3346 38.1555 24.1176V23.0469C38.1555 23.0469 38.1555 20.5156 30.5617 20.5156C24.5665 20.5156 22.5212 26.8121 21.9238 29.4687C22.0178 29.7317 22.1661 29.972 22.3591 30.1739C22.5521 30.3758 22.7854 30.5348 23.0439 30.6406Z" fill="#FBD2C4"/>
<path d="M48.2812 23.0469H45.75V25.5781C45.75 26.2495 45.4833 26.8933 45.0086 27.368C44.5339 27.8427 43.8901 28.1094 43.2188 28.1094H41.9531C41.9531 28.1094 40.6875 26.8438 34.3594 26.8438C32.8793 26.816 31.425 27.2327 30.1841 28.0399C28.9433 28.8472 27.9729 30.0079 27.3984 31.3722C27.1249 31.9527 26.636 32.4039 26.0354 32.63C25.4348 32.8561 24.7697 32.8394 24.1812 32.5834C23.2624 32.1433 22.4245 31.5511 21.7031 30.8317V31.9062C21.7031 35.7031 29.2969 35.7031 29.2969 35.7031C29.2969 35.7031 29.2969 29.375 36.8906 29.375C38.6365 29.2975 40.3535 29.84 41.738 30.9064L41.9531 30.6406H48.2812C47.4013 29.5768 46.95 28.2228 47.0156 26.8438C46.95 25.4647 47.4013 24.1107 48.2812 23.0469Z" fill="#F8A183"/>
<path d="M16.409 9.67302C16.0222 8.05356 15.231 6.55867 14.1094 5.32812V0.265625H11.5781C11.2425 0.265625 10.9205 0.398967 10.6832 0.636318C10.4458 0.873669 10.3125 1.19559 10.3125 1.53125V5.885C10.3117 6.32413 10.4251 6.75593 10.6416 7.13797C11.9445 9.27081 12.7009 11.6923 12.8438 14.1875C12.7788 16.7655 12.3528 19.3216 11.5781 21.7812C12.573 21.7464 13.5529 22.0302 14.3752 22.5912C16.2927 19.5126 18.7798 16.8279 21.7031 14.6811V11.6562H18.8732C18.2988 11.6526 17.7426 11.4546 17.2952 11.0945C16.8477 10.7343 16.5354 10.2333 16.409 9.67302Z" fill="#F79274"/>
<path d="M27.5883 0.265673C27.0502 0.269196 26.5223 0.413163 26.0569 0.683329L20.4375 4.06255H17.9062C17.9062 4.73388 18.1729 5.37771 18.6476 5.85241C19.1223 6.32711 19.7662 6.5938 20.4375 6.5938H20.9362C21.4362 6.59391 21.925 6.44594 22.341 6.16855L28.8071 1.85783C29.1264 1.645 29.5016 1.53139 29.8854 1.5313C29.9348 1.5313 29.9816 1.54269 30.0297 1.54649C29.9292 1.40029 29.8152 1.26385 29.6892 1.13895C29.4152 0.860367 29.088 0.63955 28.7272 0.489555C28.3663 0.339561 27.9791 0.263433 27.5883 0.265673Z" fill="#F9C3B9"/>
<path d="M7.82555 40.1061C8.27339 35.5242 9.07739 30.9842 10.2302 26.5272C10.473 25.5877 10.93 24.7171 11.5654 23.9837C12.2009 23.2503 12.9975 22.674 13.893 22.3C13.1753 21.9407 12.3805 21.7625 11.5781 21.7811C5.25 21.7811 2.71875 29.3748 2.71875 31.9061C2.71875 34.4373 0.1875 38.2342 0.1875 38.2342V42.0311C1.91176 42.0356 3.62547 41.7621 5.26266 41.2211C6.14712 40.923 7.00453 40.55 7.82555 40.1061Z" fill="#F3A952"/>
<path d="M7.78125 49.6252C7.49867 46.4579 7.5135 43.271 7.82555 40.1064C7.00453 40.5504 6.14713 40.9234 5.26266 41.2215C3.62547 41.7625 1.91176 42.036 0.1875 42.0315V50.8908C0.1875 58.4846 15.375 68.6096 15.375 72.4065C15.4567 73.8834 16.0996 75.2733 17.1722 76.2919C17.7096 76.8588 18.3332 77.3372 19.02 77.7094L19.1719 77.469C22.9688 76.2033 22.9688 71.1408 22.9688 71.1408V69.8752C22.9688 62.2815 9.04688 62.2815 7.78125 49.6252Z" fill="#F3A952"/>
<path d="M31.5757 40.7656C31.2909 38.9023 30.5033 37.152 29.2976 35.7031C29.2976 35.7031 21.7038 35.7031 21.7038 31.9062V30.6406H16.6413C16.6413 30.6406 15.3959 40.6555 31.5757 40.7656Z" fill="#F3A952"/>
<path d="M33.0938 34.4375C33.1159 33.6688 33.3033 32.9138 33.643 32.2239C34.0012 31.4676 34.5448 30.8142 35.2232 30.3243C35.9016 29.8344 36.6929 29.5239 37.5234 29.4218C37.3083 29.4092 37.1159 29.375 36.8906 29.375C29.2969 29.375 29.2969 35.7031 29.2969 35.7031C30.5023 37.1522 31.2899 38.9024 31.575 40.7656H31.8281C34.3594 40.7656 33.0938 36.9688 33.0938 34.4375Z" fill="#F3A952"/>
<path d="M6.02836 48.5899L6.03595 48.6051C6.04481 48.6228 6.05114 48.6443 6.06127 48.662C6.3673 49.3101 6.86998 49.8451 7.49775 50.1909C9.28355 51.0844 9.67969 55.5736 9.67969 57.2189C9.67969 57.3867 9.74636 57.5477 9.86503 57.6664C9.98371 57.785 10.1447 57.8517 10.3125 57.8517C10.4803 57.8517 10.6413 57.785 10.76 57.6664C10.8786 57.5477 10.9453 57.3867 10.9453 57.2189C10.9453 56.5342 10.863 50.5225 8.09766 49.0809C10.0961 49.2809 12.2109 49.834 12.2109 50.8908C12.2109 51.0586 12.2776 51.2196 12.3963 51.3382C12.515 51.4569 12.6759 51.5236 12.8438 51.5236C13.0116 51.5236 13.1725 51.4569 13.2912 51.3382C13.4099 51.2196 13.4766 51.0586 13.4766 50.8908C13.4766 48.257 8.96967 47.809 7.03453 47.7381C6.33228 45.7829 5.95353 43.7263 5.91319 41.6492C7.39503 41.1024 8.79677 40.3591 10.0809 39.4394C10.5898 40.7649 11.4897 41.9043 12.6614 42.7063C13.833 43.5084 15.2208 43.9351 16.6406 43.9298C16.8085 43.9298 16.9694 43.8632 17.0881 43.7445C17.2068 43.6258 17.2734 43.4649 17.2734 43.297C17.2734 43.1292 17.2068 42.9682 17.0881 42.8496C16.9694 42.7309 16.8085 42.6642 16.6406 42.6642C15.4178 42.6533 14.2288 42.261 13.2396 41.542C12.2504 40.823 11.5103 39.8132 11.1225 38.6535C13.6816 36.5282 15.7596 33.8832 17.219 30.8939C17.2549 30.8143 17.2735 30.7281 17.2734 30.6408H16.6406C16.6406 30.6408 16.6735 30.4041 16.7014 30.0194C16.5713 30.0072 16.4406 30.0356 16.3273 30.1006C16.214 30.1656 16.1236 30.2641 16.0686 30.3826C14.6186 33.3175 12.5453 35.9005 9.99356 37.951C8.51768 39.1158 6.85284 40.0186 5.07155 40.6202C3.49562 41.1392 1.84666 41.4019 0.1875 41.3986V42.6642C1.70101 42.6622 3.20729 42.4553 4.66528 42.0491C4.71198 44.2948 5.17413 46.5125 6.02836 48.5899Z" fill="white"/>
<path d="M44.4983 56.115C42.7758 54.0672 38.7321 52.2459 37.4905 51.7194C37.183 48.1985 33.314 44.9294 32.4015 44.208C32.4268 43.9093 32.4609 43.6207 32.4609 43.2967C32.5982 40.3701 31.6285 37.499 29.7449 35.2549C29.6392 35.1527 29.5006 35.0912 29.3538 35.0815C29.3218 35.2873 29.3027 35.4948 29.2969 35.703C29.2969 35.703 29.0539 35.703 28.6641 35.6814C28.6607 35.7674 28.6749 35.8532 28.7058 35.9335C28.7367 36.0138 28.7836 36.0869 28.8438 36.1485C30.4729 38.1648 31.3092 40.707 31.1953 43.2967C31.1934 43.6746 31.1689 44.052 31.1219 44.4269C29.5845 46.2232 27.7751 47.7675 25.7595 49.0034C23.934 47.4025 21.5996 46.5015 19.1719 46.4608C19.004 46.4608 18.8431 46.5274 18.7244 46.6461C18.6057 46.7648 18.5391 46.9258 18.5391 47.0936C18.5391 47.2614 18.6057 47.4224 18.7244 47.5411C18.8431 47.6597 19.004 47.7264 19.1719 47.7264C21.1086 47.7675 22.9803 48.4334 24.5078 49.6248C23.6244 50.0205 22.6708 50.2356 21.7031 50.2577C16.0736 50.2577 16.0078 54.643 16.0078 54.6873C16.0078 54.8552 16.0745 55.0161 16.1932 55.1348C16.3118 55.2535 16.4728 55.3202 16.6406 55.3202C16.8085 55.3202 16.9694 55.2535 17.0881 55.1348C17.2068 55.0161 17.2734 54.8552 17.2734 54.6873C17.2734 54.5608 17.3241 51.5233 21.7031 51.5233C25.2735 51.5233 28.7375 48.687 30.7081 46.7266C30.3461 48.2314 29.8373 49.797 29.326 51.3322C29.1539 51.8523 28.9805 52.3763 28.8121 52.9003C27.0289 53.4116 18.5391 56.2314 18.5391 63.5467C18.5391 63.7145 18.6057 63.8755 18.7244 63.9942C18.8431 64.1129 19.004 64.1795 19.1719 64.1795C19.3397 64.1795 19.5007 64.1129 19.6193 63.9942C19.738 63.8755 19.8047 63.7145 19.8047 63.5467C19.8047 57.978 25.8291 55.2733 28.3515 54.3849C27.7842 56.1198 27.4634 57.9257 27.3984 59.7498C27.4026 60.0598 27.4296 60.369 27.4794 60.675C26.7264 61.4572 22.3359 66.2235 22.3359 71.1405C22.3359 71.1873 22.298 75.76 18.9719 76.8687C18.8573 76.9074 18.7562 76.9782 18.6807 77.0727C18.6051 77.1671 18.5581 77.2812 18.5454 77.4015C18.7036 77.504 18.8542 77.6205 19.02 77.7091C19.1858 77.7977 19.3997 77.8926 19.5857 77.9799C20.4012 77.6489 21.1331 77.1411 21.7287 76.4931C22.3242 75.845 22.7685 75.0729 23.0295 74.2324C23.9102 75.8851 25.3638 77.1596 27.1175 77.8166C27.3972 77.6977 27.6781 77.5825 27.9553 77.4369C28.154 77.3382 28.3515 77.2256 28.5502 77.1167C28.4926 77.0238 28.4114 76.9478 28.3147 76.8965C28.2532 76.8702 28.1903 76.8474 28.1262 76.8282C26.8583 76.497 25.7321 75.7636 24.9163 74.7381C24.1005 73.7126 23.6392 72.4503 23.6016 71.1405C23.6016 67.441 26.5391 63.6581 27.8528 62.1545C29.2779 66.2311 33.7253 70.3419 35.1529 71.5809C35.1605 71.5885 35.1732 71.5923 35.182 71.5999C35.3213 71.4442 35.4617 71.2923 35.5997 71.1329C35.7376 70.9734 35.8629 70.8063 35.9971 70.6456C35.9844 70.6367 35.9781 70.6203 35.9655 70.6127C32.9444 67.9815 29.4766 64.0416 28.7906 60.8674C28.7088 60.5004 28.6664 60.1258 28.6641 59.7498C28.882 56.9993 29.5099 54.2969 30.5271 51.7321C31.2305 49.7645 31.7921 47.7492 32.2078 45.7014C33.562 46.8886 36.2578 49.5755 36.2578 52.1561V52.1713C36.2679 55.6657 40.099 60.9117 41.2684 62.4317C41.357 62.5507 41.4064 62.6127 41.4342 62.6481C41.5443 62.4494 41.6696 62.2507 41.7747 62.0533C41.8797 61.8558 41.9822 61.6369 42.0923 61.4205C41.1229 60.1346 38.2486 56.1314 37.6437 53.1673C39.3016 53.9153 42.5796 55.5416 43.725 57.1756C43.7948 57.2702 43.8558 57.371 43.9073 57.4768C43.9073 57.492 43.93 57.497 43.9376 57.5122C44.0338 57.2819 44.154 57.0351 44.2426 56.8098C44.3312 56.5845 44.411 56.3504 44.4983 56.115Z" fill="white"/>
<path d="M35.65 32.6009C35.7889 33.0408 36.0407 33.4366 36.3803 33.7488L39.3178 36.9914C39.6928 37.4714 40.1759 37.856 40.7277 38.114C40.9876 38.222 41.2722 38.2566 41.5504 38.214C41.9513 38.1135 42.2981 37.8624 42.5186 37.5128C43.0623 36.7412 43.3004 35.7953 43.1867 34.8582C43.0731 33.9211 42.6158 33.0595 41.9035 32.4402C40.7123 31.4545 39.2622 30.8332 37.7269 30.6506C37.457 30.6168 37.1829 30.6429 36.9242 30.7271C36.6655 30.8113 36.4285 30.9515 36.2302 31.1377C36.0319 31.324 35.877 31.5517 35.7768 31.8046C35.6765 32.0575 35.6332 32.3294 35.65 32.6009Z" fill="#F3A952"/>
<path d="M39.4488 47.891C39.5239 48.5894 39.8119 49.2478 40.2737 49.7771C40.7355 50.3064 41.3489 50.6809 42.0307 50.85C42.2325 50.9044 42.4452 50.9044 42.647 50.85C42.8077 50.7874 42.9516 50.6881 43.0672 50.5602C43.9995 49.5177 44.5036 48.1616 44.4784 46.7633C44.615 46.0476 44.4822 45.3066 44.1056 44.6829C43.729 44.0591 43.1352 43.5966 42.4382 43.3841C40.8992 42.955 40.2651 44.27 39.85 45.3509C39.5133 46.1528 39.3756 47.0243 39.4488 47.891Z" fill="#F3A952"/>
</svg>
