<svg width="20" height="21" viewBox="0 0 20 21" fill="none" xmlns="http://www.w3.org/2000/svg">
<mask id="mask0_0_1148" style="mask-type:luminance" maskUnits="userSpaceOnUse" x="0" y="0" width="20" height="21">
<path d="M0 0.500002H20V20.5H0V0.500002Z" fill="white"/>
</mask>
<g mask="url(#mask0_0_1148)">
<path d="M11.384 0.894766C15.9195 0.894766 19.6094 4.58461 19.6094 9.12012" stroke="#F3A952" stroke-miterlimit="10" stroke-linecap="round" stroke-linejoin="round"/>
<path d="M11.384 3.24473C14.6235 3.24473 17.2594 5.88066 17.2594 9.12012" stroke="#F3A952" stroke-miterlimit="10" stroke-linecap="round" stroke-linejoin="round"/>
<path d="M11.384 5.59516C13.3278 5.59516 14.909 7.17637 14.909 9.12012" stroke="#F3A952" stroke-miterlimit="10" stroke-linecap="round" stroke-linejoin="round"/>
<path d="M11.384 7.94561C12.0328 7.94561 12.559 8.47182 12.559 9.12061" stroke="#F3A952" stroke-miterlimit="10" stroke-linecap="round" stroke-linejoin="round"/>
<path d="M7.32101 13.1875C7.32101 13.4032 7.14613 13.5781 6.93039 13.5781C6.71469 13.5781 6.53976 13.4032 6.53976 13.1875C6.53976 12.9718 6.71469 12.7969 6.93039 12.7969C7.14613 12.7969 7.32101 12.9718 7.32101 13.1875Z" fill="#F3A952"/>
<path d="M5.78896 11.8519C5.54114 11.5264 5.3063 11.1903 5.08513 10.8442C4.79454 10.3891 4.88243 9.78641 5.26403 9.40477L6.59024 8.07856C6.87575 7.79344 6.87575 7.33055 6.59024 7.04536L3.46911 3.9243C3.18396 3.63872 2.7211 3.63872 2.43595 3.9243L1.64606 4.71411C0.364073 5.99579 0.0175879 7.952 0.822275 9.57622C2.25392 12.4665 5.20001 16.8969 10.8758 19.6801C12.5051 20.4786 14.4703 20.1399 15.7531 18.8571L16.5609 18.0493C16.8465 17.7641 16.8465 17.3013 16.5609 17.0157L13.4398 13.895C13.1547 13.6094 12.6918 13.6094 12.4067 13.895L11.0805 15.2212C10.6988 15.6028 10.0961 15.6907 9.64099 15.4001C9.14868 15.0854 8.67622 14.743 8.22583 14.3747" stroke="#F3A952" stroke-miterlimit="10" stroke-linecap="round" stroke-linejoin="round"/>
</g>
</svg>
