<svg width="50" height="50" viewBox="0 0 50 50" fill="none" xmlns="http://www.w3.org/2000/svg">
<mask id="mask0_2196_2945" style="mask-type:luminance" maskUnits="userSpaceOnUse" x="0" y="0" width="50" height="50">
<path d="M0 3.8147e-06H50V50H0V3.8147e-06Z" fill="white"/>
</mask>
<g mask="url(#mask0_2196_2945)">
<path d="M2.77031 13.3179C1.95439 12.7743 1.46484 11.8595 1.46484 10.8797V10.8773C1.46484 9.14517 2.86914 7.74097 4.60137 7.74097H45.3985C47.1307 7.74097 48.535 9.14517 48.535 10.8773V10.8789V10.8797C48.535 11.8595 48.0455 12.7743 47.2296 13.3179C43.2482 15.9727 31.2516 23.9699 26.7407 26.9777C25.6864 27.6806 24.3135 27.6806 23.2592 26.9777C18.7482 23.9699 6.75166 15.9727 2.77031 13.3179Z" stroke="white" stroke-miterlimit="10" stroke-linecap="round" stroke-linejoin="round"/>
<path d="M1.46484 10.8787V39.1208C1.46484 39.9531 1.79512 40.751 2.38428 41.3394C2.97266 41.9285 3.77051 42.2588 4.60283 42.2588H45.397C46.2293 42.2588 47.0271 41.9285 47.6155 41.3394C48.2047 40.751 48.535 39.9531 48.535 39.1208V10.8787" stroke="white" stroke-miterlimit="10" stroke-linecap="round" stroke-linejoin="round"/>
</g>
</svg>
