<svg width="62" height="60" viewBox="0 0 62 60" fill="none" xmlns="http://www.w3.org/2000/svg">
<g clip-path="url(#clip0_0_180)">
<path d="M12.1339 38.4446C12.1561 36.2589 13.0253 34.2128 14.5797 32.6806C16.1341 31.1484 18.1992 30.3046 20.3944 30.3046H24.7436C27.6367 30.3046 30.3838 29.1911 32.487 27.1704C34.5712 25.1656 35.8021 22.4787 35.9511 19.6078C35.9638 19.3445 35.8687 19.0843 35.6879 18.894C35.507 18.7037 35.2533 18.5926 34.9868 18.5926H33.6703C28.8675 18.5926 24.9625 14.7066 24.9625 9.92922V1.09449C24.9625 0.561553 24.531 0.130127 23.9981 0.130127C23.4652 0.130127 23.0337 0.561553 23.0337 1.09449V9.93239C23.0337 15.7725 27.8048 20.5245 33.6735 20.5245H33.9177C33.5942 22.5167 32.633 24.3566 31.1515 25.781C29.4131 27.4527 27.1386 28.3759 24.7467 28.3759H20.3944C17.6917 28.3759 15.1443 29.4164 13.2251 31.307C11.5121 32.9947 10.4748 35.1899 10.2496 37.5564C4.43798 38.3463 0 43.3362 0 49.2747V59.0008C0 59.5337 0.431426 59.9652 0.964365 59.9652C1.4973 59.9652 1.92873 59.5337 1.92873 59.0008V49.2747C1.92873 44.0627 6.01459 39.7262 11.2266 39.3994C11.7342 39.3677 12.1275 38.9522 12.1339 38.4446Z" fill="#064ACB"/>
<path d="M56.39 32.9883C56.8817 31.0595 57.1355 29.0642 57.1355 27.053V20.0074C57.1355 17.0318 55.9712 14.2466 53.8585 12.1624C51.7553 10.0878 48.9542 8.94258 45.9723 8.94258H45.3474C41.8388 8.94258 38.7745 10.4843 36.8552 13.1902H35.4594C33.0073 13.1902 31.0151 11.1981 31.0151 8.7459V0.964365C31.0119 0.431426 30.5805 0 30.0476 0C29.5146 0 29.0832 0.431426 29.0832 0.964365V8.7459C29.0832 12.2608 31.9446 15.119 35.4594 15.119H37.3723C37.7022 15.119 38.0099 14.9508 38.1876 14.6685C39.7166 12.2544 42.3274 10.8713 45.3505 10.8713H45.9755C48.4467 10.8713 50.7656 11.8166 52.5071 13.5328C54.2519 15.2522 55.2099 17.5521 55.2099 20.0042V27.0498C55.2099 28.6169 55.0418 30.1776 54.715 31.6972C52.2787 30.0856 49.3603 29.1403 46.2261 29.1403C37.7181 29.1403 30.7994 36.0622 30.7994 44.567C30.7994 46.1436 31.0373 47.6631 31.4783 49.0938C31.4529 49.0906 31.4307 49.0875 31.4053 49.0875H20.7751C17.5997 49.0875 14.7066 47.3268 13.222 44.494C13.0284 44.1229 12.6192 43.9198 12.2068 43.9896C8.41282 44.6209 5.6593 47.8693 5.6593 51.7109V58.9976C5.6593 59.5305 6.09073 59.9619 6.62367 59.9619C7.1566 59.9619 7.58803 59.5305 7.58803 58.9976V51.7109C7.58803 49.0399 9.35498 46.7495 11.8769 46.0389C13.7803 49.1287 17.1207 51.0194 20.7719 51.0194H31.3958C31.6623 51.0194 31.9065 50.9115 32.081 50.7338C34.4665 56.1806 39.9038 59.9968 46.2197 59.9968C54.7277 59.9968 61.6464 53.075 61.6464 44.5702C61.6464 39.9609 59.6098 35.8179 56.39 32.9883ZM46.2197 58.0681C38.7776 58.0681 32.7218 52.0123 32.7218 44.5702C32.7218 37.1281 38.7776 31.0722 46.2197 31.0722C53.6618 31.0722 59.7177 37.1281 59.7177 44.5702C59.7177 52.0154 53.6618 58.0681 46.2197 58.0681Z" fill="#064ACB"/>
<path d="M39.8752 41.306C41.3376 41.306 42.524 40.1164 42.524 38.6571C42.524 37.1947 41.3344 36.0083 39.8752 36.0083C38.4128 36.0083 37.2264 37.1979 37.2264 38.6571C37.2264 40.1195 38.416 41.306 39.8752 41.306ZM39.8752 37.937C40.2717 37.937 40.5953 38.2606 40.5953 38.6571C40.5953 39.0537 40.2717 39.3772 39.8752 39.3772C39.4787 39.3772 39.1551 39.0537 39.1551 38.6571C39.1551 38.2606 39.4787 37.937 39.8752 37.937Z" fill="#F3A952"/>
<path d="M46.1024 41.306C47.5648 41.306 48.7512 40.1164 48.7512 38.6571C48.7512 37.1947 47.5616 36.0083 46.1024 36.0083C44.6399 36.0083 43.4535 37.1979 43.4535 38.6571C43.4535 40.1195 44.6431 41.306 46.1024 41.306ZM46.1024 37.937C46.4989 37.937 46.8225 38.2606 46.8225 38.6571C46.8225 39.0537 46.4989 39.3772 46.1024 39.3772C45.7058 39.3772 45.3823 39.0537 45.3823 38.6571C45.3823 38.2606 45.7058 37.937 46.1024 37.937Z" fill="#F3A952"/>
<path d="M52.3295 41.306C53.7919 41.306 54.9783 40.1164 54.9783 38.6571C54.9783 37.1947 53.7887 36.0083 52.3295 36.0083C50.8671 36.0083 49.6807 37.1979 49.6807 38.6571C49.6807 40.1195 50.8703 41.306 52.3295 41.306ZM52.3295 37.937C52.726 37.937 53.0496 38.2606 53.0496 38.6571C53.0496 39.0537 52.726 39.3772 52.3295 39.3772C51.933 39.3772 51.6094 39.0537 51.6094 38.6571C51.6094 38.2606 51.933 37.937 52.3295 37.937Z" fill="#F3A952"/>
<path d="M39.8752 47.5583C38.4128 47.5583 37.2264 48.7479 37.2264 50.2072C37.2264 51.6696 38.416 52.856 39.8752 52.856C41.3376 52.856 42.524 51.6664 42.524 50.2072C42.5272 48.7448 41.3376 47.5583 39.8752 47.5583ZM39.8752 50.9273C39.4787 50.9273 39.1551 50.6037 39.1551 50.2072C39.1551 49.8107 39.4787 49.4871 39.8752 49.4871C40.2717 49.4871 40.5953 49.8107 40.5953 50.2072C40.5953 50.6037 40.2717 50.9273 39.8752 50.9273Z" fill="#F3A952"/>
<path d="M46.1024 47.5583C44.6399 47.5583 43.4535 48.7479 43.4535 50.2072C43.4535 51.6696 44.6431 52.856 46.1024 52.856C47.5648 52.856 48.7512 51.6664 48.7512 50.2072C48.7544 48.7448 47.5648 47.5583 46.1024 47.5583ZM46.1024 50.9273C45.7058 50.9273 45.3823 50.6037 45.3823 50.2072C45.3823 49.8107 45.7058 49.4871 46.1024 49.4871C46.4989 49.4871 46.8225 49.8107 46.8225 50.2072C46.8225 50.6037 46.4989 50.9273 46.1024 50.9273Z" fill="#F3A952"/>
<path d="M52.3295 47.5583C50.8671 47.5583 49.6807 48.7479 49.6807 50.2072C49.6807 51.6696 50.8703 52.856 52.3295 52.856C53.7919 52.856 54.9783 51.6664 54.9783 50.2072C54.9815 48.7448 53.7919 47.5583 52.3295 47.5583ZM52.3295 50.9273C51.933 50.9273 51.6094 50.6037 51.6094 50.2072C51.6094 49.8107 51.933 49.4871 52.3295 49.4871C52.726 49.4871 53.0496 49.8107 53.0496 50.2072C53.0496 50.6037 52.726 50.9273 52.3295 50.9273Z" fill="#F3A952"/>
<path d="M39.355 44.3036C39.355 42.8412 38.1654 41.6548 36.7061 41.6548C35.2437 41.6548 34.0573 42.8444 34.0573 44.3036C34.0573 45.766 35.2469 46.9524 36.7061 46.9524C38.1686 46.9524 39.355 45.766 39.355 44.3036ZM36.7061 45.0237C36.3096 45.0237 35.986 44.7002 35.986 44.3036C35.986 43.9071 36.3096 43.5835 36.7061 43.5835C37.1027 43.5835 37.4262 43.9071 37.4262 44.3036C37.4262 44.7002 37.1027 45.0237 36.7061 45.0237Z" fill="#F3A952"/>
<path d="M45.5853 44.3036C45.5853 42.8412 44.3957 41.6548 42.9364 41.6548C41.474 41.6548 40.2876 42.8444 40.2876 44.3036C40.2876 45.766 41.4772 46.9524 42.9364 46.9524C44.3957 46.9524 45.5853 45.766 45.5853 44.3036ZM42.9333 45.0237C42.5367 45.0237 42.2132 44.7002 42.2132 44.3036C42.2132 43.9071 42.5367 43.5835 42.9333 43.5835C43.3298 43.5835 43.6534 43.9071 43.6534 44.3036C43.6534 44.7002 43.3298 45.0237 42.9333 45.0237Z" fill="#F3A952"/>
<path d="M55.4859 41.6548C54.0235 41.6548 52.837 42.8444 52.837 44.3036C52.837 45.766 54.0266 46.9524 55.4859 46.9524C56.9483 46.9524 58.1347 45.7629 58.1347 44.3036C58.1347 42.8412 56.9483 41.6548 55.4859 41.6548ZM55.4859 45.0237C55.0893 45.0237 54.7658 44.7002 54.7658 44.3036C54.7658 43.9071 55.0893 43.5835 55.4859 43.5835C55.8824 43.5835 56.206 43.9071 56.206 44.3036C56.206 44.7002 55.8824 45.0237 55.4859 45.0237Z" fill="#F3A952"/>
<path d="M51.8124 44.3036C51.8124 42.8412 50.6228 41.6548 49.1636 41.6548C47.7012 41.6548 46.5147 42.8444 46.5147 44.3036C46.5147 45.766 47.7043 46.9524 49.1636 46.9524C50.6228 46.9524 51.8124 45.766 51.8124 44.3036ZM49.1604 45.0237C48.7639 45.0237 48.4403 44.7002 48.4403 44.3036C48.4403 43.9071 48.7639 43.5835 49.1604 43.5835C49.5569 43.5835 49.8805 43.9071 49.8805 44.3036C49.8805 44.7002 49.5569 45.0237 49.1604 45.0237Z" fill="#F3A952"/>
</g>
<defs>
<clipPath id="clip0_0_180">
<rect width="61.6464" height="60" fill="white"/>
</clipPath>
</defs>
</svg>
