<svg width="24" height="27" viewBox="0 0 24 27" fill="none" xmlns="http://www.w3.org/2000/svg">
<path d="M22.765 18.1761V24.1689C22.765 24.9779 22.1092 25.6338 21.3002 25.6338H2.46484C1.65586 25.6338 1 24.9779 1 24.1689V22.1312" stroke="#F3A952" stroke-miterlimit="10" stroke-linecap="round" stroke-linejoin="round"/>
<path d="M17.3151 24.1689H2.46728C1.65693 24.1689 1 23.512 1 22.7017V4.50703C1 3.69668 1.65693 3.03975 2.46728 3.03975H21.2977C22.1081 3.03975 22.765 3.69668 22.765 4.50703V18.719C22.765 19.1082 22.6104 19.4814 22.3353 19.7566L18.3527 23.7392C18.0775 24.0144 17.7043 24.1689 17.3151 24.1689Z" stroke="#F3A952" stroke-miterlimit="10" stroke-linecap="round" stroke-linejoin="round"/>
<path d="M16.7139 24.1689C17.3778 24.1689 17.9161 23.6307 17.9161 22.9667V20.5222C17.9161 19.8583 18.4543 19.32 19.1183 19.32H21.5628C22.2268 19.32 22.765 18.7817 22.765 18.1178" stroke="#F3A952" stroke-miterlimit="10" stroke-linecap="round" stroke-linejoin="round"/>
<path d="M5.32979 8.27319H1" stroke="#F3A952" stroke-miterlimit="10" stroke-linecap="round" stroke-linejoin="round"/>
<path d="M22.7653 8.27319H6.79492" stroke="#F3A952" stroke-miterlimit="10" stroke-linecap="round" stroke-linejoin="round"/>
<path d="M5.14683 5.23022C4.73403 5.23022 4.39941 4.89561 4.39941 4.48281V2.11372C4.39941 1.70093 4.73403 1.36631 5.14683 1.36631H5.31494C5.72773 1.36631 6.06235 1.70093 6.06235 2.11372V3.03984" stroke="#F3A952" stroke-miterlimit="10" stroke-linecap="round" stroke-linejoin="round"/>
<path d="M18.4505 5.23022C18.0377 5.23022 17.7031 4.89561 17.7031 4.48281V2.11372C17.7031 1.70093 18.0377 1.36631 18.4505 1.36631H18.6187C19.0314 1.36631 19.3661 1.70093 19.3661 2.11372V3.03984" stroke="#F3A952" stroke-miterlimit="10" stroke-linecap="round" stroke-linejoin="round"/>
<path d="M5.28989 12.9119H3.54604C3.35342 12.9119 3.19727 12.7557 3.19727 12.5631V10.8192C3.19727 10.6266 3.35342 10.4705 3.54604 10.4705H5.28989C5.48252 10.4705 5.63867 10.6266 5.63867 10.8192V12.5631C5.63867 12.7557 5.48252 12.9119 5.28989 12.9119Z" stroke="#F3A952" stroke-miterlimit="10" stroke-linecap="round" stroke-linejoin="round"/>
<path d="M10.2665 12.9119H8.52261C8.32998 12.9119 8.17383 12.7557 8.17383 12.5631V10.8192C8.17383 10.6266 8.32998 10.4705 8.52261 10.4705H10.2665C10.4591 10.4705 10.6152 10.6266 10.6152 10.8192V12.5631C10.6152 12.7557 10.4591 12.9119 10.2665 12.9119Z" stroke="#F3A952" stroke-miterlimit="10" stroke-linecap="round" stroke-linejoin="round"/>
<path d="M15.243 12.9119H13.4992C13.3065 12.9119 13.1504 12.7557 13.1504 12.5631V10.8192C13.1504 10.6266 13.3065 10.4705 13.4992 10.4705H15.243C15.4356 10.4705 15.5918 10.6266 15.5918 10.8192V12.5631C15.5918 12.7557 15.4356 12.9119 15.243 12.9119Z" stroke="#F3A952" stroke-miterlimit="10" stroke-linecap="round" stroke-linejoin="round"/>
<path d="M20.2186 12.9119H18.4748C18.2821 12.9119 18.126 12.7557 18.126 12.5631V10.8192C18.126 10.6266 18.2821 10.4705 18.4748 10.4705H20.2186C20.4112 10.4705 20.5674 10.6266 20.5674 10.8192V12.5631C20.5674 12.7557 20.4112 12.9119 20.2186 12.9119Z" stroke="#F3A952" stroke-miterlimit="10" stroke-linecap="round" stroke-linejoin="round"/>
<path d="M5.28989 17.4417H3.54604C3.35342 17.4417 3.19727 17.2855 3.19727 17.0929V15.349C3.19727 15.1564 3.35342 15.0002 3.54604 15.0002H5.28989C5.48252 15.0002 5.63867 15.1564 5.63867 15.349V17.0929C5.63867 17.2855 5.48252 17.4417 5.28989 17.4417Z" stroke="#F3A952" stroke-miterlimit="10" stroke-linecap="round" stroke-linejoin="round"/>
<path d="M10.2665 17.4417H8.52261C8.32998 17.4417 8.17383 17.2855 8.17383 17.0929V15.349C8.17383 15.1564 8.32998 15.0002 8.52261 15.0002H10.2665C10.4591 15.0002 10.6152 15.1564 10.6152 15.349V17.0929C10.6152 17.2855 10.4591 17.4417 10.2665 17.4417Z" stroke="#F3A952" stroke-miterlimit="10" stroke-linecap="round" stroke-linejoin="round"/>
<path d="M15.243 17.4417H13.4992C13.3065 17.4417 13.1504 17.2855 13.1504 17.0929V15.349C13.1504 15.1564 13.3065 15.0002 13.4992 15.0002H15.243C15.4356 15.0002 15.5918 15.1564 15.5918 15.349V17.0929C15.5918 17.2855 15.4356 17.4417 15.243 17.4417Z" stroke="#F3A952" stroke-miterlimit="10" stroke-linecap="round" stroke-linejoin="round"/>
<path d="M20.2186 17.5505H18.4748C18.2821 17.5505 18.126 17.3944 18.126 17.2018V15.4579C18.126 15.2653 18.2821 15.1091 18.4748 15.1091H20.2186C20.4112 15.1091 20.5674 15.2653 20.5674 15.4579V17.2018C20.5674 17.3944 20.4112 17.5505 20.2186 17.5505Z" stroke="#F3A952" stroke-miterlimit="10" stroke-linecap="round" stroke-linejoin="round"/>
<path d="M5.28989 21.9717H3.54604C3.35342 21.9717 3.19727 21.8155 3.19727 21.6229V19.8791C3.19727 19.6864 3.35342 19.5303 3.54604 19.5303H5.28989C5.48252 19.5303 5.63867 19.6864 5.63867 19.8791V21.6229C5.63867 21.8155 5.48252 21.9717 5.28989 21.9717Z" stroke="#F3A952" stroke-miterlimit="10" stroke-linecap="round" stroke-linejoin="round"/>
<path d="M10.2665 21.9717H8.52261C8.32998 21.9717 8.17383 21.8155 8.17383 21.6229V19.8791C8.17383 19.6864 8.32998 19.5303 8.52261 19.5303H10.2665C10.4591 19.5303 10.6152 19.6864 10.6152 19.8791V21.6229C10.6152 21.8155 10.4591 21.9717 10.2665 21.9717Z" stroke="#F3A952" stroke-miterlimit="10" stroke-linecap="round" stroke-linejoin="round"/>
<path d="M13.1504 20.3819V19.8791C13.1504 19.6864 13.3065 19.5303 13.4992 19.5303H15.243C15.4356 19.5303 15.5918 19.6864 15.5918 19.8791V21.6229C15.5918 21.8155 15.4356 21.9717 15.243 21.9717H13.4992C13.3065 21.9717 13.1504 21.8155 13.1504 21.6229" stroke="#F3A952" stroke-miterlimit="10" stroke-linecap="round" stroke-linejoin="round"/>
</svg>
