<svg width="141" height="138" viewBox="0 0 141 138" fill="none" xmlns="http://www.w3.org/2000/svg">
<path fill-rule="evenodd" clip-rule="evenodd" d="M70.1782 0C76.5933 0 82.4225 2.59951 86.6466 6.78641C90.8707 10.9733 93.4931 16.753 93.4931 23.1097V82.1228C93.4931 88.4814 90.8707 94.2593 86.6466 98.4462C82.4225 102.633 76.5933 105.233 70.1782 105.233C63.7631 105.233 57.9338 102.633 53.7097 98.4462C49.4857 94.2593 46.863 88.4814 46.863 82.1228V23.1097C46.863 16.7512 49.4857 10.9733 53.7097 6.78641C57.9338 2.59951 63.7631 0 70.1782 0ZM70.1782 5.15896C65.2008 5.15896 60.6738 7.17961 57.3903 10.4345C54.1063 13.6893 52.0677 18.1765 52.0677 23.1097V82.1228C52.0677 87.0563 54.1063 91.5434 57.3903 94.798C60.6738 98.0531 65.2008 100.074 70.1782 100.074C75.155 100.074 79.6825 98.0531 82.966 94.798C86.25 91.5434 88.2886 87.0563 88.2886 82.1228V23.1097C88.2886 18.1765 86.25 13.6893 82.966 10.4345C79.6825 7.17961 75.155 5.15896 70.1782 5.15896Z" fill="#064ACB"/>
<path fill-rule="evenodd" clip-rule="evenodd" d="M52.5341 52.9316V82.3156C52.5341 87.2286 54.5556 91.6971 57.8122 94.9382C61.0682 98.1797 65.5578 100.192 70.493 100.192C75.4282 100.192 79.9178 98.1797 83.1739 94.9382C86.4304 91.6971 88.4519 87.2286 88.4519 82.3156V52.9316H78.8888H52.5341Z" fill="#F3A952"/>
<path fill-rule="evenodd" clip-rule="evenodd" d="M73.2602 50.4109C74.691 50.4109 75.8493 51.54 75.8493 52.9312C75.8493 54.3224 74.6891 55.452 73.2602 55.452H49.4518C48.0214 55.452 46.863 54.3224 46.863 52.9312C46.863 51.54 48.0232 50.4109 49.4518 50.4109H73.2602Z" fill="#064ACB"/>
<path fill-rule="evenodd" clip-rule="evenodd" d="M103.774 23.9451H110.939C112.903 23.9451 114.685 24.7596 115.976 26.0718C117.267 27.384 118.069 29.1976 118.069 31.1916C118.069 33.1876 117.267 34.9992 115.976 36.3114C114.685 37.6236 112.903 38.4382 110.939 38.4382H103.774C101.81 38.4382 100.027 37.6236 98.7363 36.3114C97.4457 34.9992 96.644 33.1876 96.644 31.1916C96.644 29.1957 97.4457 27.384 98.7363 26.0718C100.026 24.7596 101.81 23.9451 103.774 23.9451ZM110.939 29.1699H103.774C103.23 29.1699 102.731 29.3984 102.37 29.767C102.008 30.1356 101.783 30.6406 101.783 31.1935C101.783 31.7464 102.008 32.2532 102.37 32.6199C102.732 32.9885 103.23 33.2171 103.774 33.2171H110.939C111.483 33.2171 111.982 32.9885 112.343 32.6199C112.705 32.2513 112.93 31.7464 112.93 31.1935C112.93 30.6406 112.705 30.1338 112.343 29.767C111.982 29.3984 111.483 29.1699 110.939 29.1699Z" fill="#064ACB"/>
<path fill-rule="evenodd" clip-rule="evenodd" d="M115.289 34.1156C113.865 34.1156 112.711 32.9663 112.711 31.551C112.711 30.1338 113.866 28.9863 115.289 28.9863C115.428 28.9863 115.284 28.9918 115.702 29.0008C123.323 29.171 129.495 33.8857 133.729 40.1733C137.822 46.2472 140.123 53.8615 140.123 60.1289C140.123 60.2212 140.118 60.2306 140.107 60.6989C139.499 87.6464 115.217 103.371 95.5234 116.125C84.1178 123.511 74.3543 129.833 72.6653 136.099C72.298 137.465 70.8859 138.278 69.5123 137.912C68.5843 137.666 67.9126 136.946 67.685 136.085C65.9876 129.824 56.229 123.506 44.8312 116.125C25.1377 103.371 0.857032 87.6464 0.249287 60.6989C0.238369 60.2306 0.23291 60.2212 0.23291 60.1289C0.23291 53.8596 2.5347 46.2472 6.62694 40.1733C10.8612 33.8857 17.0332 29.171 24.6537 29.0008C25.0704 28.9918 24.9266 28.9863 25.0667 28.9863C26.4915 28.9863 27.6451 30.1356 27.6451 31.551C27.6451 32.9681 26.4896 34.1156 25.0667 34.1156C24.6864 34.1156 24.9321 34.1065 24.7556 34.1101C19.0548 34.2368 14.2802 37.9977 10.8994 43.0184C7.37481 48.2507 5.39146 54.7752 5.39146 60.127C5.39146 60.5688 5.38421 60.4731 5.38781 60.5978C5.93371 84.8304 28.9589 99.7419 47.6352 111.835C57.31 118.1 65.8874 123.656 70.1801 129.706C74.4723 123.656 83.0517 118.1 92.7248 111.835C111.399 99.7419 134.424 84.8323 134.972 60.5978C134.976 60.4731 134.968 60.5688 134.968 60.127C134.968 54.7752 132.985 48.2489 129.461 43.0166C126.079 37.996 121.305 34.235 115.604 34.1083C115.424 34.1065 115.67 34.1156 115.289 34.1156Z" fill="#064ACB"/>
<path fill-rule="evenodd" clip-rule="evenodd" d="M37.0053 29.1699H29.6289C29.0689 29.1699 28.5556 29.3984 28.1842 29.767C27.8109 30.1356 27.5794 30.6406 27.5794 31.1935C27.5794 31.7464 27.8109 32.2532 28.1842 32.6199C28.5575 32.9885 29.0689 33.2171 29.6289 33.2171H37.0053C37.5653 33.2171 38.0786 32.9885 38.45 32.6199C38.8233 32.2513 39.0548 31.7464 39.0548 31.1935C39.0548 30.6406 38.8233 30.1338 38.45 29.767C38.0767 29.3984 37.5653 29.1699 37.0053 29.1699ZM29.627 23.9451H37.0035C39.0249 23.9451 40.8597 24.7596 42.1886 26.0718C43.5176 27.384 44.3426 29.1976 44.3426 31.1916C44.3426 33.1876 43.5176 34.9992 42.1886 36.3114C40.8597 37.6236 39.0249 38.4382 37.0035 38.4382H29.627C27.6055 38.4382 25.7708 37.6236 24.4418 36.3114C23.1128 34.9992 22.2878 33.1876 22.2878 31.1916C22.2878 29.1957 23.1128 27.384 24.4418 26.0718C25.7708 24.7596 27.6055 23.9451 29.627 23.9451Z" fill="#064ACB"/>
<path fill-rule="evenodd" clip-rule="evenodd" d="M71.6093 89.4521C73.0022 89.5509 74.0506 90.7649 73.9527 92.1619C73.8544 93.5603 72.6451 94.6129 71.2536 94.5141C67.353 94.2345 63.9378 92.282 61.5784 89.3626C59.2548 86.4865 57.9563 82.6687 58.2456 78.6053C58.3439 77.2068 59.5532 76.1543 60.9447 76.253C62.3376 76.3513 63.386 77.5653 63.2877 78.9623C63.0929 81.7022 63.9524 84.2573 65.4935 86.1655C67.0013 88.0304 69.1606 89.2765 71.6093 89.4521Z" fill="white"/>
<path fill-rule="evenodd" clip-rule="evenodd" d="M90.8732 50.4109C92.3209 50.4109 93.4932 51.54 93.4932 52.9312C93.4932 54.3224 92.3189 55.452 90.8732 55.452H83.5111C82.0628 55.452 80.8905 54.3224 80.8905 52.9312C80.8905 51.54 82.0648 50.4109 83.5111 50.4109H90.8732Z" fill="#064ACB"/>
<path d="M75.2189 35.2877C77.6553 35.2877 79.6301 33.4539 79.6301 31.1919C79.6301 28.9297 77.6553 27.0959 75.2189 27.0959C72.7829 27.0959 70.8082 28.9297 70.8082 31.1919C70.8082 33.4539 72.7829 35.2877 75.2189 35.2877Z" fill="#F3A952"/>
<path d="M66.7334 27.0108C68.2574 26.611 69.2009 24.9144 68.8411 23.2212C68.4813 21.5281 66.9541 20.4797 65.4306 20.8795C63.9066 21.2793 62.9631 22.9759 63.3229 24.669C63.6827 26.3621 65.2099 27.4106 66.7334 27.0108Z" fill="#F3A952"/>
<path d="M75.8335 19.4262C76.6947 18.4418 76.6947 16.8459 75.8335 15.8615C74.9723 14.8772 73.5756 14.8772 72.7144 15.8615C71.8532 16.8459 71.8532 18.4418 72.7144 19.4262C73.5756 20.4105 74.9723 20.4105 75.8335 19.4262Z" fill="#F3A952"/>
</svg>
