<svg width="20" height="15" viewBox="0 0 20 15" fill="none" xmlns="http://www.w3.org/2000/svg">
<path d="M1.10816 2.82717C0.781788 2.60971 0.585968 2.24381 0.585968 1.8519V1.85092C0.585968 1.15807 1.14769 0.596387 1.84058 0.596387H18.1594C18.8523 0.596387 19.414 1.15807 19.414 1.85092V1.85154V1.8519C19.414 2.24381 19.2182 2.60971 18.8919 2.82717C17.2993 3.88908 12.5007 7.08795 10.6963 8.29107C10.2746 8.57225 9.72542 8.57225 9.3037 8.29107C7.49933 7.08795 2.70069 3.88908 1.10816 2.82717Z" stroke="#F3A952" stroke-miterlimit="10" stroke-linecap="round" stroke-linejoin="round"/>
<path d="M0.585968 1.85178V13.1486C0.585968 13.4815 0.718077 13.8007 0.953741 14.036C1.18909 14.2717 1.50823 14.4038 1.84116 14.4038H18.1588C18.4917 14.4038 18.8109 14.2717 19.0462 14.036C19.2819 13.8007 19.414 13.4815 19.414 13.1486V1.85178" stroke="#F3A952" stroke-miterlimit="10" stroke-linecap="round" stroke-linejoin="round"/>
</svg>
